<svg xmlns="http://www.w3.org/2000/svg" viewBox="0 0 502.44 457.78"><defs><style>.cls-1{fill:#f15a29;fill-rule:evenodd;}</style></defs><title>florida</title><g id="florida"><polyline class="cls-1" points="65.57 268.8 65.76 268.8 65.76 268.6 65.57 268.6 65.57 267.81 65.57 268.01 65.57 267.81 65.76 267.62 65.57 267.62 65.57 267.42 65.76 267.42 65.76 267.22 65.57 267.22 66.16 267.22 66.16 266.83 66.35 266.83 66.55 266.63 66.55 266.83 66.75 266.83 66.75 266.63 66.55 266.63 66.55 266.44 66.16 266.05 66.16 265.85 66.55 265.26 66.75 264.87 66.94 264.87 66.94 264.67 67.14 264.67 67.14 264.48 67.33 264.48 67.33 264.08 67.53 264.08 67.53 263.89 67.73 263.89 67.73 263.69 67.92 263.69 67.92 263.49 68.12 263.49 68.12 263.3 68.32 263.3 68.32 263.1 68.71 263.1 68.91 262.9 69.3 262.9 69.3 262.71 69.49 262.71 69.49 262.32 69.89 262.12 70.28 262.12 70.67 261.92 70.87 261.92 71.06 261.73 71.46 261.53 71.65 261.33 71.85 261.33 72.05 261.14 72.05 260.94 72.44 260.55 72.64 260.35 72.83 259.76 73.03 259.57 73.22 259.17 73.22 256.62 72.83 256.62 72.83 255.05 72.64 254.07 72.44 252.11 70.48 252.11 70.48 250.34 67.73 250.34 67.73 248.77 70.48 248.77 70.48 245.23 69.3 245.82 69.3 244.65 70.48 244.45 70.48 242.09 70.28 241.5 70.28 238.95 68.12 238.95 68.12 238.36 70.28 238.36 70.48 238.17 70.48 237.58 70.08 237.58 70.08 235.42 70.48 235.42 70.28 236.01 70.48 236.2 70.48 236.79 72.83 236.79 72.83 235.22 73.42 235.22 73.42 234.83 73.22 234.24 73.03 234.24 73.03 233.85 72.83 233.85 73.22 232.47 73.22 229.14 73.42 229.14 73.42 228.55 73.62 228.55 73.81 228.35 74.4 228.35 74.4 228.55 74.6 227.76 73.81 227.76 73.81 227.56 75.58 227.56 75.38 224.82 73.81 224.82 73.62 224.62 73.22 224.62 73.22 224.23 73.03 223.84 73.03 223.64 72.83 223.64 72.83 221.87 75.19 221.87 75.19 220.3 74.99 217.75 74.8 217.16 74.8 216.77 74.6 212.84 74.4 211.66 74.01 205.97 74.01 203.61 73.81 203.02 73.81 202.63 72.44 202.83 71.85 202.83 70.67 203.02 70.67 200.27 71.46 200.27 71.46 200.08 71.65 200.08 71.65 200.47 72.44 200.27 72.64 200.08 72.64 199.88 72.83 199.88 73.03 199.69 73.03 198.7 72.83 198.7 72.83 198.51 72.64 198.51 72.64 198.31 72.44 198.31 72.44 197.72 73.62 197.72 73.81 198.31 74.4 198.31 74.4 198.51 74.4 198.31 75.19 198.31 74.99 198.31 74.99 198.11 74.8 198.11 74.8 197.72 74.99 197.72 74.99 197.33 75.19 197.13 75.38 197.13 75.78 196.94 78.13 196.94 78.13 196.35 77.94 196.35 77.94 196.15 77.74 196.15 77.74 195.95 77.94 195.95 77.74 195.95 77.74 195.76 77.35 195.76 77.35 195.37 78.53 195.37 79.51 196.35 79.51 196.54 79.7 196.54 79.7 196.74 79.9 196.74 79.9 196.94 80.1 196.94 80.1 197.13 80.1 196.94 81.47 196.94 81.67 197.13 82.06 197.13 82.06 197.33 82.65 197.33 82.65 196.94 83.43 196.74 84.22 196.74 84.22 198.9 82.65 198.9 82.65 199.1 85 199.1 85 198.9 85.2 198.9 85.2 198.7 85.4 198.51 85.59 198.31 85.59 198.11 85.79 198.11 85.79 197.33 85.59 196.35 85.59 193.01 85.4 192.62 85.4 192.03 84.42 192.03 84.61 193.99 82.84 193.99 82.84 192.03 81.47 192.03 81.47 191.24 87.17 191.05 87.17 192.03 87.36 196.94 88.34 196.94 88.34 198.11 87.36 198.11 87.36 199.1 90.89 199.1 91.09 199.29 91.29 199.29 91.48 199.49 91.68 199.49 92.07 199.1 92.27 198.9 92.47 198.9 92.66 198.51 93.25 198.11 93.64 197.92 93.84 197.53 94.63 197.13 95.8 196.35 96 196.35 96.2 196.15 96.39 195.95 96.59 195.76 98.16 194.97 98.36 194.97 98.75 194.78 99.34 194.38 99.73 194.19 100.32 193.99 100.52 193.79 101.11 193.6 101.5 193.4 101.69 193.4 102.67 192.81 103.26 192.62 103.66 192.42 103.85 192.42 103.85 192.22 104.05 192.22 104.25 192.03 104.44 192.03 104.64 191.83 105.03 191.83 105.23 191.63 105.42 191.63 105.62 191.44 106.21 191.24 107.98 190.46 107.98 190.26 108.37 190.26 108.37 190.06 108.76 190.06 108.96 189.87 109.35 189.87 109.35 189.67 109.94 189.47 110.14 189.28 110.53 189.08 110.72 189.08 111.12 188.89 113.28 187.9 113.47 187.71 114.26 187.51 114.65 187.31 114.85 187.12 116.03 186.34 116.42 186.34 117.2 185.75 118.78 184.96 119.36 184.57 119.56 184.57 120.15 183.98 120.35 183.98 120.54 183.78 120.74 183.78 120.94 183.59 121.13 183.59 121.33 183.39 122.11 183 122.31 183 122.31 182.8 125.06 181.23 125.25 181.23 125.45 181.03 125.65 181.03 125.65 180.84 125.84 180.84 126.04 180.64 126.24 180.44 126.43 180.25 126.83 180.05 129.97 177.5 130.95 176.52 131.15 176.52 131.15 176.32 132.13 175.54 132.91 174.75 133.7 174.16 134.09 173.77 136.45 171.81 136.45 171.41 136.25 171.41 136.25 171.22 136.05 171.02 136.05 170.82 135.86 170.63 135.66 170.24 135.66 170.04 135.46 169.84 135.46 169.65 135.27 169.65 135.27 169.25 135.07 169.06 135.07 168.86 134.88 168.86 134.68 168.47 134.48 167.88 134.29 167.88 134.29 167.68 134.09 167.49 134.09 167.29 133.89 166.9 133.89 166.7 133.7 166.31 133.7 165.52 133.5 164.93 133.5 164.34 133.3 164.15 133.3 162.97 133.11 162.77 133.11 162.19 132.91 161.2 132.91 160.42 132.72 160.22 132.72 159.63 132.52 159.24 132.52 158.85 132.91 158.85 133.7 158.65 133.7 149.03 133.5 149.03 133.5 143.93 133.3 143.14 133.3 131.56 133.11 127.63 133.11 125.47 140.57 125.47 140.77 125.28 148.81 125.28 149.01 125.08 153.13 125.08 156.86 124.88 161.97 124.88 165.11 124.69 173.95 124.69 174.34 124.49 184.74 124.49 185.33 124.29 196.33 124.29 204.18 124.1 204.18 123.7 212.43 123.7 214.59 123.51 225.39 123.51 225.58 123.31 227.55 123.31 227.55 123.11 227.55 123.31 233.63 123.31 236.58 123.11 242.66 123.11 243.06 122.92 252.48 122.92 252.68 122.72 257 122.72 257 120.95 256.8 120.76 256.8 113.1 257 112.71 257 109.37 256.8 109.37 256.8 109.17 257 108.98 257 107.02 256.8 107.02 256.8 106.62 256.61 106.23 256.61 106.03 256.41 105.84 256.41 102.89 256.61 102.7 256.61 102.11 256.8 102.11 256.8 101.91 257 101.52 257.19 101.13 257.19 98.97 257.39 98.77 257.39 98.57 257.59 98.57 257.59 98.38 257.78 98.38 257.98 98.18 258.18 98.18 258.18 97.98 258.37 97.79 258.37 95.43 258.18 95.23 258.18 94.65 257.98 94.65 257.98 94.25 257.59 93.66 257.59 93.47 257.39 93.47 257.39 91.11 257.59 90.72 257.59 90.52 257.78 90.33 257.78 88.17 257.39 87.58 257.39 87.38 257.19 87.19 257.19 86.99 257 86.99 257 86.6 256.8 86.4 256.8 85.42 257 85.22 257 84.04 257.19 83.85 257.19 82.08 257 82.08 257 81.69 256.8 81.49 256.8 81.3 256.61 81.1 256.41 80.9 256.21 80.9 256.21 80.31 256.02 79.72 256.02 79.53 255.82 79.33 255.82 71.28 255.62 71.08 255.62 63.43 255.43 63.43 255.43 55.97 255.23 55.58 254.84 55.58 254.84 55.18 255.03 54.99 254.84 54.79 254.84 54.59 255.23 54.59 255.23 48.7 255.03 48.51 255.03 48.12 256.61 48.12 256.8 47.92 257.19 47.92 257.19 48.51 258.18 48.51 258.18 47.72 258.37 47.72 258.37 46.74 258.18 46.74 258.18 46.35 257.98 46.35 257.98 46.15 257.78 46.15 257.78 45.56 261.91 45.56 261.91 45.37 262.69 45.37 263.08 45.17 263.87 45.17 263.87 45.37 271.72 45.37 271.92 45.17 278.6 45.17 278.79 44.97 283.7 44.97 283.9 44.78 284.29 44.78 284.29 44.58 284.49 44.58 284.49 44.38 284.68 44.38 284.88 44.19 285.07 43.99 285.47 43.6 285.66 43.6 285.86 43.4 285.86 43.21 286.06 43.21 286.25 43.01 286.45 43.01 286.45 42.81 286.64 42.62 287.04 42.42 287.23 42.23 287.43 42.23 287.43 42.03 288.22 42.03 288.22 41.83 294.3 41.83 294.3 42.03 294.5 42.03 295.28 42.81 295.48 42.81 295.48 43.01 298.82 43.01 299.01 43.21 299.41 43.21 299.41 43.4 299.6 43.4 299.8 43.21 300.19 43.21 300.19 43.01 300.39 43.01 300.58 42.81 300.58 42.62 300.98 42.23 301.17 42.03 301.17 41.83 301.37 41.63 301.37 41.44 301.57 41.44 301.57 41.24 302.16 41.24 302.16 39.87 301.96 39.67 301.96 34.17 302.55 34.17 302.55 33.98 310.4 33.98 310.6 34.17 310.8 34.37 310.99 34.57 311.19 34.76 311.19 34.96 311.38 34.96 311.58 35.16 311.78 35.35 312.17 35.35 312.17 35.55 312.37 35.55 312.37 35.74 312.56 35.94 312.76 35.94 312.95 36.14 312.95 37.71 313.15 37.91 313.15 38.1 313.35 38.1 313.35 38.49 313.54 38.49 313.54 38.69 313.74 38.69 313.74 38.89 313.94 38.89 314.13 39.08 314.33 39.08 314.33 38.89 314.72 38.89 314.92 39.08 315.11 39.28 315.51 39.28 315.51 39.08 315.7 38.89 315.9 39.08 316.1 39.08 316.1 39.48 316.29 39.67 317.47 39.67 317.47 39.48 317.67 39.48 317.67 39.87 317.86 39.87 318.06 40.06 318.25 40.26 318.45 40.26 318.45 40.46 318.65 40.46 318.65 41.05 319.24 41.63 319.24 42.23 319.43 42.42 319.63 42.62 319.82 42.62 320.22 42.81 320.42 43.01 320.61 43.21 320.61 43.8 320.81 43.8 320.81 43.99 321 43.99 321 44.19 320.42 44.19 320.42 44.78 320.02 44.78 320.02 43.4 319.82 43.4 319.82 43.21 318.45 43.21 317.86 43.4 317.67 43.4 317.67 45.17 317.86 45.17 317.86 45.37 318.06 45.37 318.06 49.88 320.22 49.88 320.22 50.08 320.02 50.27 320.02 50.47 319.82 50.47 319.82 50.67 319.63 50.67 319.63 51.06 319.43 51.45 319.24 51.65 319.24 52.04 319.04 52.63 319.04 52.83 318.84 53.02 318.84 53.42 318.65 53.61 318.45 53.61 318.45 53.81 318.25 53.81 318.06 54.01 318.06 54.2 317.86 54.4 317.67 54.79 317.27 55.18 317.27 55.97 317.08 56.75 317.08 57.34 317.27 57.54 317.27 57.74 317.86 58.33 318.06 58.52 318.06 59.9 317.86 60.09 317.86 60.29 318.06 60.29 318.06 60.48 318.45 60.48 318.45 60.88 318.06 61.27 318.06 61.66 317.86 61.86 317.67 61.86 317.67 62.05 317.47 62.05 317.27 62.25 316.49 62.25 316.1 62.05 314.92 62.05 314.92 61.86 314.72 61.86 314.52 61.66 313.74 61.66 313.74 61.47 312.56 61.47 312.37 61.66 312.17 61.66 311.78 62.05 311.58 62.05 311.38 62.25 311.38 63.43 311.19 63.63 311.38 63.82 311.58 64.41 312.17 66.77 312.17 66.96 311.97 68.34 311.97 68.73 312.37 69.51 312.37 70.5 312.56 70.69 312.76 71.08 312.95 71.28 312.76 72.07 312.76 73.05 312.95 73.83 312.56 74.23 312.56 74.81 312.17 75.01 312.17 75.21 311.97 75.21 312.17 75.21 312.17 75.6 311.97 75.8 312.17 75.99 311.58 75.99 311.58 76.58 311.38 76.58 311.38 76.97 311.19 77.17 311.19 77.37 310.99 77.37 310.8 77.57 310.4 77.57 310.21 77.76 310.01 77.96 309.81 78.16 309.62 78.16 309.22 78.55 309.22 79.33 308.83 79.33 309.03 79.53 309.03 79.72 317.47 79.72 322.97 79.53 329.64 79.53 329.64 79.33 330.62 79.33 330.62 79.53 331.61 79.53 332 79.33 332.39 79.33 332.59 79.72 332.59 86.6 332.78 86.79 332.59 86.79 332.78 86.99 332.78 95.23 332.98 95.43 332.98 100.73 333.18 103.87 333.18 110.75 333.37 111.33 333.37 118.8 333.57 119.39 333.57 121.15 334.36 121.15 334.55 120.95 346.53 120.95 347.12 120.76 359.09 120.76 359.29 120.56 361.84 120.56 363.41 120.37 364 120.37 367.14 120.17 383.05 120.17 385.4 119.97 393.65 119.97 393.85 119.78 398.56 119.78 402.68 119.58 409.36 119.58 411.12 119.39 416.03 119.39 416.23 119.58 416.23 126.45 416.43 127.24 416.62 133.32 416.82 137.64 416.82 139.8 417.01 141.96 417.01 146.28 417.21 146.48 417.21 150.21 417.41 150.8 417.41 155.9 417.6 157.28 417.6 165.13 417.8 170.63 417.8 178.87 418 180.64 418 191.63 418.19 192.62 418.19 204.4 418.39 204.79 418.39 213.63 418.58 219.12 418.58 225.41 416.43 225.41 416.43 230.71 416.62 232.28 416.62 233.46 416.43 234.04 416.43 236.01 416.23 236.6 416.43 237.38 416.62 239.35 416.62 243.86 416.82 246.02 416.82 255.84 417.01 258.98 417.01 266.63 417.21 267.42 417.21 269.58 417.41 269.78 417.41 275.67 417.6 275.86 417.6 276.26 417.41 276.45 417.6 276.65 417.6 285.09 417.8 286.66 417.8 291.57 418.19 304.92 418.39 309.24 418.39 310.81 418.58 315.33 418.58 319.45 418.78 320.63 418.78 326.13 418.98 326.91 418.98 331.23 414.46 331.23 414.46 331.43 414.66 333.19 414.66 336.73 414.85 337.32 414.85 339.28 415.25 349.1 415.25 350.47 415.44 356.16 415.44 357.14 415.64 358.72 415.64 361.27 415.84 367.16 417.8 366.96 418.19 366.96 418.19 369.51 418.39 373.83 418.39 379.92 418.58 380.71 418.58 385.42 418.78 386.99 418.78 392.49 418.98 393.47 418.98 398.77 419.17 399.75 419.17 403.87 417.01 403.87 415.05 404.07 409.75 404.07 401.7 404.27 394.63 404.46 391.49 404.46 390.31 404.66 385.01 404.66 379.9 404.86 376.18 404.86 373.82 405.05 370.68 405.05 369.69 405.25 364 405.25 350.26 405.44 349.28 405.44 343.19 405.64 322.77 405.64 319.24 405.84 295.09 405.84 293.52 405.64 269.17 405.64 265.05 405.84 250.32 405.84 249.93 406.03 239.33 406.03 229.9 406.23 227.15 406.23 225.58 406.43 220.28 406.43 211.84 406.62 206.73 406.82 198.49 406.82 194.95 407.02 191.03 407.02 190.04 407.21 183.57 407.21 183.37 407.02 183.37 406.82 183.17 406.62 182.98 406.62 182.98 406.43 182.78 406.43 182.78 406.23 182.58 406.23 182.58 406.03 182.39 405.84 182 405.05 181.6 404.86 181.41 404.46 181.41 404.27 181.21 404.07 180.23 402.7 180.23 402.5 180.03 402.3 179.84 402.11 179.44 401.52 179.44 401.32 179.05 400.93 178.26 399.75 178.07 399.36 177.68 398.77 177.48 398.38 177.09 397.98 176.89 397.59 176.69 397.2 176.1 396.41 175.71 395.82 175.32 395.04 175.12 394.84 174.93 394.84 174.93 394.65 174.73 394.45 174.53 394.06 174.14 393.47 173.95 393.27 173.55 392.49 173.36 392.49 173.36 392.29 172.77 391.31 172.57 391.31 172.57 391.11 171.79 389.93 171.59 389.74 171.59 389.54 171.39 389.35 171.39 389.15 171.2 388.95 171.2 388.76 171 388.56 171 388.17 170.8 387.97 170.8 387.38 170.61 387.19 170.61 385.22 170.8 385.22 170.8 384.63 171 384.44 171 384.04 171.2 383.85 171.2 383.65 171.39 383.26 171.39 383.06 171.2 382.47 171 382.08 169.43 378.74 169.43 378.35 169.23 378.15 169.23 377.96 169.04 377.96 169.04 377.76 168.84 377.76 168.84 377.56 168.64 377.17 164.33 372.46 164.33 372.26 164.13 372.07 162.95 370.69 162.16 369.91 162.16 369.71 161.97 369.71 161.97 369.51 161.77 369.51 160.6 368.14 160.6 367.94 160.4 367.94 160.4 367.75 160.2 367.55 160 367.36 160 367.16 159.81 366.96 158.83 365.39 158.63 365.19 158.04 364.21 156.86 362.45 156.67 362.05 156.08 361.07 155.1 359.5 154.7 358.72 152.55 355.38 152.35 354.99 151.17 353.02 147.44 347.13 146.46 345.56 146.07 344.97 145.87 344.78 145.48 343.99 144.5 342.62 144.5 342.42 143.91 341.64 143.91 341.44 143.71 341.24 143.71 340.65 143.51 340.65 143.51 339.08 143.32 338.89 143.32 337.51 143.12 335.75 142.93 334.37 142.73 331.82 142.73 331.43 142.53 330.64 142.53 330.25 142.34 327.89 142.34 326.91 142.14 325.14 141.75 322.39 141.75 321.22 141.55 320.04 141.55 318.66 141.35 317.49 141.16 316.11 141.16 314.54 140.96 313.95 140.96 312.77 140.77 312.58 140.77 312.19 140.57 312.19 140.57 311.99 140.37 311.6 140.37 311.4 140.18 311.4 140.18 311.2 139.98 310.81 139.78 310.61 139.59 310.02 139.19 309.63 139.19 309.44 138.8 309.04 138.8 308.65 138.61 308.65 138.61 308.45 138.21 308.06 137.82 307.47 137.62 307.28 136.84 306.1 136.64 306.1 136.45 305.9 136.45 305.7 135.86 305.12 135.86 304.92 135.46 304.53 134.88 304.33 134.68 304.33 134.29 304.13 133.89 304.13 132.91 303.74 130.16 302.96 129.77 302.76 126.83 301.78 126.43 301.78 126.04 301.58 125.65 301.58 125.06 301.39 124.67 301.39 124.27 301.19 123.29 300.99 121.72 300.8 121.52 300.8 120.54 300.6 120.35 300.41 120.35 300.6 120.74 301.19 120.94 301.98 121.13 302.76 121.33 303.55 121.52 304.33 121.52 304.53 121.72 305.12 118.78 305.12 118.78 305.9 117.4 305.9 117.2 303.94 114.06 303.94 114.06 302.96 114.26 302.96 114.26 302.56 114.46 302.56 114.46 302.17 114.26 300.41 114.26 299.62 116.62 299.62 117.2 299.81 117.2 297.66 115.63 297.66 115.63 296.48 114.46 296.48 114.46 296.67 114.46 296.28 114.26 295.11 114.65 295.11 114.46 292.16 114.46 289.02 113.47 289.41 113.28 289.61 113.08 289.61 113.08 288.43 114.85 286.27 114.85 285.68 114.65 285.29 115.24 285.29 115.24 286.07 116.22 286.07 116.22 285.29 116.62 285.29 116.81 285.09 116.81 284.7 111.9 284.7 111.9 284.11 110.92 284.11 110.92 283.13 107.39 283.13 107.39 283.32 106.01 283.32 105.82 283.52 105.03 283.52 105.03 283.72 105.23 283.91 105.23 289.61 105.03 289.61 105.03 289.8 104.83 290 104.25 290.39 104.25 290.59 104.05 290.79 104.05 291.77 104.25 291.96 104.05 291.96 104.05 292.16 103.66 292.16 103.66 292.36 99.53 292.36 99.53 290.98 98.16 290.98 98.16 290.79 96.78 290.79 95.41 290.98 88.93 290.98 88.73 291.18 86.18 291.18 86.18 289.8 85.99 289.8 85.99 289.61 85.4 289.61 85.4 288.23 84.42 288.23 84.61 288.04 84.61 287.64 84.81 287.64 84.81 287.06 85 287.06 85 285.68 85.4 285.68 85.4 285.48 85.59 285.48 85.59 284.11 85 284.11 84.81 283.13 84.22 283.13 84.02 280.38 85.2 280.38 85.2 280.18 85.4 279.99 85.4 279.59 85.59 279.59 85.59 279.2 83.83 279.4 83.83 276.06 83.43 276.06 78.33 276.26 78.33 275.86 78.13 275.86 77.94 275.67 77.94 275.47 77.74 275.47 77.74 275.08 77.35 274.1 77.15 273.9 77.15 273.7 76.95 273.51 76.76 273.12 76.76 272.92 76.56 272.72 76.56 272.53 76.17 272.33 75.97 271.94 75.78 271.74 75.78 271.54 75.58 271.54 75.58 271.35 75.38 271.35 75.38 271.15 71.65 274.69 65.96 273.51 66.16 273.31 66.16 273.12 66.35 272.92 66.35 272.53 66.55 272.53 66.55 272.13 66.75 272.13 66.75 271.35 66.94 271.35 66.94 269.97 66.75 269.97 66.75 269.78 65.76 269.78 65.76 269.58 65.76 269.78 65.76 269.58 65.57 269.58 65.76 269.58 65.76 269.38 65.57 269.38 65.76 269.38 65.76 268.99 65.57 268.99 65.57 268.8"/></g></svg>