<svg id="Layer_1" data-name="Layer 1" xmlns="http://www.w3.org/2000/svg" viewBox="0 0 603.99 415.29"><defs><style>.cls-1{fill:#fff;}.cls-2{fill:#5f1a16;}.cls-2,.cls-3{opacity:0.9;isolation:isolate;}.cls-3{fill:#009b86;}</style></defs><rect class="cls-1" width="603.99" height="415.29"/><path id="point-0-0" class="cls-2" d="M294.23,319.88h-121v15.54h121Z"/><path id="point-0-1" class="cls-2" d="M294.23,294H173.56v15.54H294.23Z"/><path id="point-0-2" class="cls-2" d="M294.23,268.08H162.89v15.54H294.23Z"/><path id="point-0-3" class="cls-2" d="M294.23,242.18h-135v15.54h135Z"/><path id="point-0-4" class="cls-2" d="M294.23,216.28H162.82v15.54H294.23Z"/><path id="point-0-5" class="cls-2" d="M294.23,190.38H26.55v15.54H294.23Z"/><path id="point-0-6" class="cls-2" d="M294.23,164.47H50.36V180H294.23Z"/><path id="point-0-7" class="cls-2" d="M294.23,138.57H34.39v15.54H294.23Z"/><path id="point-0-8" class="cls-2" d="M294.23,112.67H151.71v15.54H294.23Z"/><path id="point-0-9" class="cls-2" d="M294.23,86.77H155.16v15.54H294.23Z"/><path id="point-0-10" class="cls-2" d="M294.23,60.87H93V76.41h201.2Z"/><path id="point-0-11" class="cls-2" d="M294.23,35h-104V50.51h104Z"/><path id="point-0-12" class="cls-2" d="M294.23,9.07H250.88V24.61h43.35Z"/><path id="point-0-0-2" data-name="point-0-0" class="cls-3" d="M315.16,321.74H431.44v15.65H315.16Z"/><path id="point-0-1-2" data-name="point-0-1" class="cls-3" d="M315.16,295.65H432.72V311.3H315.16Z"/><path id="point-0-2-2" data-name="point-0-2" class="cls-3" d="M315.16,269.57H444v15.65H315.16Z"/><path id="point-0-3-2" data-name="point-0-3" class="cls-3" d="M315.16,243.49h135.4v15.65H315.16Z"/><path id="point-0-4-2" data-name="point-0-4" class="cls-3" d="M315.16,217.4H450v15.65H315.16Z"/><path id="point-0-5-2" data-name="point-0-5" class="cls-3" d="M315.16,191.32h281.4V207H315.16Z"/><path id="point-0-6-2" data-name="point-0-6" class="cls-3" d="M315.16,165.24H563.53v15.65H315.16Z"/><path id="point-0-7-2" data-name="point-0-7" class="cls-3" d="M315.16,139.15h275.5V154.8H315.16Z"/><path id="point-0-8-2" data-name="point-0-8" class="cls-3" d="M315.16,113.07H467.35v15.65H315.16Z"/><path id="point-0-9-2" data-name="point-0-9" class="cls-3" d="M315.16,87H463.7v15.65H315.16Z"/><path id="point-0-10-2" data-name="point-0-10" class="cls-3" d="M315.16,60.91H532.83V76.56H315.16Z"/><path id="point-0-11-2" data-name="point-0-11" class="cls-3" d="M315.16,34.82H432.62V50.47H315.16Z"/><path id="point-0-12-2" data-name="point-0-12" class="cls-3" d="M315.16,8.74h52.07V24.39H315.16Z"/></svg>