<svg id="Layer_1" data-name="Layer 1" xmlns="http://www.w3.org/2000/svg" viewBox="0 0 603.99 415.29"><defs><style>.cls-1{fill:#fff;}.cls-2{fill:#009b86;}.cls-2,.cls-3{opacity:0.9;isolation:isolate;}.cls-3{fill:#5f1a16;}</style></defs><rect class="cls-1" width="603.99" height="415.29"/><g id="data-points"><path id="point-0-0" class="cls-2" d="M294.58,320H157.18v15.58h137.4Z"/><path id="point-0-1" class="cls-2" d="M294.58,294H157.48v15.58h137.1Z"/><path id="point-0-2" class="cls-2" d="M294.58,268H145.14v15.59H294.58Z"/><path id="point-0-3" class="cls-2" d="M294.58,242H141.36V257.6H294.58Z"/><path id="point-0-4" class="cls-2" d="M294.58,216H141.73v15.59H294.58Z"/><path id="point-0-5" class="cls-2" d="M294.58,190.06H20.65v15.59H294.58Z"/><path id="point-0-6" class="cls-2" d="M294.58,164.09H28.21v15.58H294.58Z"/><path id="point-0-7" class="cls-2" d="M294.58,138.11H38.09V153.7H294.58Z"/><path id="point-0-8" class="cls-2" d="M294.58,112.14H146.22v15.58H294.58Z"/><path id="point-0-9" class="cls-2" d="M294.58,86.16H151.68v15.59h142.9Z"/><path id="point-0-10" class="cls-2" d="M294.58,60.18H86.73V75.77H294.58Z"/><path id="point-0-11" class="cls-2" d="M294.58,34.21H181.49V49.79H294.58Z"/><path id="point-0-12" class="cls-2" d="M294.58,8.23H242.07V23.82h52.51Z"/></g><g id="data-points-2" data-name="data-points"><path id="point-0-0-2" data-name="point-0-0" class="cls-3" d="M315.8,320.82h97.84v15.6H315.8Z"/><path id="point-0-1-2" data-name="point-0-1" class="cls-3" d="M315.8,294.83H420.5v15.59H315.8Z"/><path id="point-0-2-2" data-name="point-0-2" class="cls-3" d="M315.8,268.84H427.74v15.59H315.8Z"/><path id="point-0-3-2" data-name="point-0-3" class="cls-3" d="M315.8,242.85H435.11v15.59H315.8Z"/><path id="point-0-4-2" data-name="point-0-4" class="cls-3" d="M315.8,216.85h114v15.6h-114Z"/><path id="point-0-5-2" data-name="point-0-5" class="cls-3" d="M315.8,190.86H562.59v15.6H315.8Z"/><path id="point-0-6-2" data-name="point-0-6" class="cls-3" d="M315.8,164.87H552.54v15.6H315.8Z"/><path id="point-0-7-2" data-name="point-0-7" class="cls-3" d="M315.8,138.88H594.25v15.59H315.8Z"/><path id="point-0-8-2" data-name="point-0-8" class="cls-3" d="M315.8,112.89H478.14v15.59H315.8Z"/><path id="point-0-9-2" data-name="point-0-9" class="cls-3" d="M315.8,86.9h167v15.59h-167Z"/><path id="point-0-10-2" data-name="point-0-10" class="cls-3" d="M315.8,60.9h253V76.5h-253Z"/><path id="point-0-11-2" data-name="point-0-11" class="cls-3" d="M315.8,34.91H435v15.6H315.8Z"/><path id="point-0-12-2" data-name="point-0-12" class="cls-3" d="M315.8,8.92h53.77v15.6H315.8Z"/></g></svg>