<svg id="Layer_1" data-name="Layer 1" xmlns="http://www.w3.org/2000/svg" viewBox="0 0 603.99 415.29"><defs><style>.cls-1{fill:#fff;}.cls-2,.cls-4{opacity:0.9;}.cls-2,.cls-3,.cls-4{isolation:isolate;}.cls-3{fill:#5f1a16;opacity:0.9;}.cls-4{fill:#009b86;}</style></defs><rect class="cls-1" width="603.99" height="415.29"/><g class="cls-2"><path id="point-0-0" class="cls-3" d="M295,321.7H173.3v15.65H295Z"/><path id="point-0-1" class="cls-3" d="M295,295.62H171.17v15.64H295Z"/><path id="point-0-2" class="cls-3" d="M295,269.53H158v15.65H295Z"/><path id="point-0-3" class="cls-3" d="M295,243.45H161.16V259.1H295Z"/><path id="point-0-4" class="cls-3" d="M295,217.37H157.7V233H295Z"/><path id="point-0-5" class="cls-3" d="M295,191.29H20.4v15.65H295Z"/><path id="point-0-6" class="cls-3" d="M295,165.21H47.52v15.65H295Z"/><path id="point-0-7" class="cls-3" d="M295,139.13H56v15.65H295Z"/><path id="point-0-8" class="cls-3" d="M295,113.05H174.3V128.7H295Z"/><path id="point-0-9" class="cls-3" d="M295,87H172.65v15.65H295Z"/><path id="point-0-10" class="cls-3" d="M295,60.89H90.88V76.54H295Z"/><path id="point-0-11" class="cls-3" d="M295,34.81H183.28V50.46H295Z"/><path id="point-0-12" class="cls-3" d="M295,8.73H257.77V24.37H295Z"/></g><path id="point-0-0-2" data-name="point-0-0" class="cls-4" d="M315.35,321.67H419v15.62H315.35Z"/><path id="point-0-1-2" data-name="point-0-1" class="cls-4" d="M315.35,295.63H424.06v15.62H315.35Z"/><path id="point-0-2-2" data-name="point-0-2" class="cls-4" d="M315.35,269.58H427.88v15.63H315.35Z"/><path id="point-0-3-2" data-name="point-0-3" class="cls-4" d="M315.35,243.54H429.21v15.63H315.35Z"/><path id="point-0-4-2" data-name="point-0-4" class="cls-4" d="M315.35,217.5H430.84v15.63H315.35Z"/><path id="point-0-5-2" data-name="point-0-5" class="cls-4" d="M315.35,191.46H590v15.63H315.35Z"/><path id="point-0-6-2" data-name="point-0-6" class="cls-4" d="M315.35,165.42H556.57v15.63H315.35Z"/><path id="point-0-7-2" data-name="point-0-7" class="cls-4" d="M315.35,139.38H534.6V155H315.35Z"/><path id="point-0-8-2" data-name="point-0-8" class="cls-4" d="M315.35,113.34h111.8V129H315.35Z"/><path id="point-0-9-2" data-name="point-0-9" class="cls-4" d="M315.35,87.3H423.09v15.62H315.35Z"/><path id="point-0-10-2" data-name="point-0-10" class="cls-4" d="M315.35,61.26h155.1V76.88H315.35Z"/><path id="point-0-11-2" data-name="point-0-11" class="cls-4" d="M315.35,35.22h67.31V50.84H315.35Z"/><path id="point-0-12-2" data-name="point-0-12" class="cls-4" d="M315.35,9.18h27V24.8h-27Z"/></svg>