<svg id="graphic" xmlns="http://www.w3.org/2000/svg" viewBox="0 0 180 360"><defs><style>.cls-1{fill:#b1491c;}.cls-1,.cls-10,.cls-11,.cls-12,.cls-13,.cls-14,.cls-15,.cls-2,.cls-3,.cls-4,.cls-5,.cls-6,.cls-7,.cls-8,.cls-9{isolation:isolate;}.cls-2{fill:#852f19;}.cls-3{fill:#93381a;}.cls-4{fill:#ed6b21;}.cls-5{fill:#0c2939;}.cls-6{fill:#0a424a;}.cls-7{fill:#de621f;}.cls-8{fill:#084e52;}.cls-9{fill:#075a5a;}.cls-10{fill:#05716a;}.cls-11{fill:#037d72;}.cls-12{fill:#028a7a;}.cls-13{fill:#0b3642;}.cls-14{fill:#762718;}.cls-15{fill:#019582;}</style></defs><path id="point-1-1" class="cls-1" d="M0,288.91H180V360H0Z"/><path id="point-2-1" class="cls-2" d="M0,219.33H180v69.58H0Z"/><path id="point-3-1" class="cls-3" d="M0,217.82H180v1.51H0Z"/><path id="point-5-1" class="cls-4" d="M0,186.05H180v31.77H0Z"/><path id="point-7-1" class="cls-5" d="M0,136.13H180v49.92H0Z"/><path id="point-8-1" class="cls-6" d="M0,124H180v12.1H0Z"/><path id="point-9-1" class="cls-7" d="M0,113.45H180V124H0Z"/><path id="point-10-1" class="cls-8" d="M0,104.37H180v9.08H0Z"/><path id="point-11-1" class="cls-9" d="M0,101.34H180v3H0Z"/><path id="point-12-1" class="cls-10" d="M0,98.32H180v3H0Z"/><path id="point-13-1" class="cls-11" d="M0,92.27H180v6H0Z"/><path id="point-14-1" class="cls-12" d="M0,84.71H180v7.56H0Z"/><path id="point-15-1" class="cls-13" d="M0,81.68H180v3H0Z"/><path id="point-16-1" class="cls-13" d="M0,80.17H180v1.51H0Z"/><path id="point-19-1" class="cls-14" d="M0,78.66H180v1.51H0Z"/><path id="point-20-1" class="cls-15" d="M0,0H180V78.66H0Z"/></svg>