<svg id="graphic" xmlns="http://www.w3.org/2000/svg" viewBox="0 0 180 360"><defs><style>.cls-1{fill:#b1491c;}.cls-1,.cls-10,.cls-11,.cls-12,.cls-2,.cls-3,.cls-4,.cls-5,.cls-6,.cls-7,.cls-8,.cls-9{isolation:isolate;}.cls-2{fill:#852f19;}.cls-3{fill:#c0511d;}.cls-4{fill:#0c2939;}.cls-5{fill:#0a424a;}.cls-6{fill:#de621f;}.cls-7{fill:#084e52;}.cls-8{fill:#075a5a;}.cls-9{fill:#05716a;}.cls-10{fill:#037d72;}.cls-11{fill:#028a7a;}.cls-12{fill:#019582;}</style></defs><path id="point-1-7" class="cls-1" d="M0,138.21H180V360H0Z"/><path id="point-2-7" class="cls-2" d="M0,130.18H180v8H0Z"/><path id="point-4-7" class="cls-3" d="M0,125.36H180v4.82H0Z"/><path id="point-7-7" class="cls-4" d="M0,72.32H180v53H0Z"/><path id="point-8-7" class="cls-5" d="M0,53H180V72.32H0Z"/><path id="point-9-7" class="cls-6" d="M0,43.39H180V53H0Z"/><path id="point-10-7" class="cls-7" d="M0,38.57H180v4.82H0Z"/><path id="point-11-7" class="cls-8" d="M0,37H180v1.61H0Z"/><path id="point-12-7" class="cls-9" d="M0,32.14H180V37H0Z"/><path id="point-13-7" class="cls-10" d="M0,28.93H180v3.21H0Z"/><path id="point-14-7" class="cls-11" d="M0,19.29H180v9.64H0Z"/><path id="point-20-7" class="cls-12" d="M0,0H180V19.29H0Z"/></svg>