<svg id="graphic" xmlns="http://www.w3.org/2000/svg" viewBox="0 0 410.85 1616.31"><defs><style>.cls-1{fill:#0a424a;}.cls-1,.cls-10,.cls-11,.cls-12,.cls-13,.cls-14,.cls-16,.cls-17,.cls-18,.cls-19,.cls-20,.cls-21,.cls-22,.cls-3,.cls-5,.cls-6,.cls-7,.cls-8,.cls-9{stroke:#fff;stroke-miterlimit:10;}.cls-2,.cls-23{font-size:26.98px;font-family:Numans-Regular, Numans;}.cls-3{fill:#ed6b21;}.cls-4{letter-spacing:-0.01em;}.cls-5{fill:#019582;}.cls-6{fill:#0c2939;}.cls-7{fill:#de621f;}.cls-8{fill:#762718;}.cls-9{fill:#852f19;}.cls-10{fill:#93381a;}.cls-11{fill:#a3411b;}.cls-12{fill:#b1491c;}.cls-13{fill:#c0511d;}.cls-14{fill:#cf5a1e;}.cls-15{letter-spacing:-0.01em;}.cls-16{fill:#0b3642;}.cls-17{fill:#084e52;}.cls-18{fill:#075a5a;}.cls-19{fill:#066662;}.cls-20{fill:#05716a;}.cls-21{fill:#037d72;}.cls-22{fill:#028a7a;}.cls-23,.cls-25{letter-spacing:-0.01em;}.cls-24{letter-spacing:0em;}</style></defs><rect class="cls-1" x="65.67" y="518.27" width="78.86" height="78.86"/><text class="cls-2" transform="translate(187.32 578.16)">Indian</text><rect class="cls-3" x="65.67" y="439.41" width="78.86" height="78.86"/><text class="cls-2" transform="translate(187.32 494.23)">N<tspan class="cls-4" x="21.31" y="0">av</tspan><tspan x="54.02" y="0">ajo</tspan></text><rect class="cls-5" x="65.67" y="360.68" width="78.86" height="78.86"/><text class="cls-2" transform="translate(187.32 418.06)">Other race</text><rect class="cls-6" x="65.67" y="282.19" width="78.86" height="78.86"/><text class="cls-2" transform="translate(187.32 339.85)">Asian</text><rect class="cls-7" x="65.67" y="202.77" width="78.86" height="78.86"/><text class="cls-2" transform="translate(187.32 242.16)">Chinese</text><rect class="cls-8" x="65.67" y="597.13" width="78.86" height="78.86"/><rect class="cls-9" x="65.67" y="123" width="78.86" height="78.86"/><rect class="cls-10" x="65.67" y="834.82" width="78.86" height="78.86"/><rect class="cls-11" x="65.67" y="1465.14" width="78.86" height="78.86"/><rect class="cls-12" x="65.67" y="43.37" width="78.86" height="78.86"/><rect class="cls-13" x="65.67" y="755.96" width="78.86" height="78.86"/><rect class="cls-14" x="65.67" y="676" width="78.86" height="78.86"/><text class="cls-2" transform="translate(187.32 98.2)">Black</text><text class="cls-2" transform="translate(187.32 159.36)">American <tspan x="0" y="32.37">Indian</tspan></text><text class="cls-2" transform="translate(187.32 883.14)">Cherokee</text><text class="cls-2" transform="translate(187.32 804.28)">Chipp<tspan class="cls-15" x="81.22" y="0">ew</tspan><tspan x="121.53" y="0">a</tspan></text><text class="cls-2" transform="translate(187.32 1510.81)">Sioux</text><text class="cls-2" transform="translate(187.32 723.25)">Samoan</text><text class="cls-2" transform="translate(187.32 632.39)">Other pacific <tspan x="0" y="32.37">Islander</tspan></text><rect class="cls-16" x="65.67" y="1307.3" width="78.86" height="78.86"/><rect class="cls-17" x="65.67" y="911.61" width="78.86" height="78.86"/><rect class="cls-18" x="65.67" y="991.08" width="78.86" height="78.86"/><rect class="cls-19" x="65.67" y="1386.35" width="78.86" height="78.86"/><rect class="cls-20" x="65.67" y="1069.74" width="78.86" height="78.86"/><rect class="cls-21" x="65.67" y="1149.46" width="78.86" height="78.86"/><rect class="cls-22" x="65.67" y="1228.25" width="78.86" height="78.86"/><text class="cls-2" transform="translate(187.32 971.51)">Filipino</text><text class="cls-2" transform="translate(187.32 1059.16)">Japanese</text><text class="cls-23" transform="translate(187.32 1129.63)">K<tspan class="cls-24" x="18.43" y="0">orean</tspan></text><text class="cls-2" transform="translate(187.32 1209.35)">Vietnamese</text><text class="cls-2" transform="translate(187.32 1288.14)">Other asian</text><text class="cls-2" transform="translate(187.32 1367.2)">H<tspan class="cls-25" x="20.77" y="0">aw</tspan><tspan x="60.81" y="0">aiian</tspan></text><text class="cls-2" transform="translate(187.32 1446.25)">Guamanian</text></svg>