<svg id="graphic" xmlns="http://www.w3.org/2000/svg" viewBox="0 0 180 360"><defs><style>.cls-1{fill:#b1491c;}.cls-1,.cls-10,.cls-11,.cls-12,.cls-13,.cls-14,.cls-15,.cls-16,.cls-2,.cls-3,.cls-4,.cls-5,.cls-6,.cls-7,.cls-8,.cls-9{isolation:isolate;}.cls-2{fill:#852f19;}.cls-3{fill:#93381a;}.cls-4{fill:#ed6b21;}.cls-5{fill:#a3411b;}.cls-6{fill:#0c2939;}.cls-7{fill:#0a424a;}.cls-8{fill:#de621f;}.cls-9{fill:#084e52;}.cls-10{fill:#075a5a;}.cls-11{fill:#05716a;}.cls-12{fill:#037d72;}.cls-13{fill:#028a7a;}.cls-14{fill:#0b3642;}.cls-15{fill:#066662;}.cls-16{fill:#019582;}</style></defs><path id="point-1-2" class="cls-1" d="M0,262.45H180V360H0Z"/><path id="point-2-2" class="cls-2" d="M0,239.23H180v23.22H0Z"/><path id="point-3-2" class="cls-3" d="M0,236.9H180v2.33H0Z"/><path id="point-5-2" class="cls-4" d="M0,234.58H180v2.32H0Z"/><path id="point-6-2" class="cls-5" d="M0,232.26H180v2.32H0Z"/><path id="point-7-2" class="cls-6" d="M0,157.94H180v74.32H0Z"/><path id="point-8-2" class="cls-7" d="M0,144H180v13.94H0Z"/><path id="point-9-2" class="cls-8" d="M0,130.06H180V144H0Z"/><path id="point-10-2" class="cls-9" d="M0,123.1H180v7H0Z"/><path id="point-11-2" class="cls-10" d="M0,118.45H180v4.65H0Z"/><path id="point-12-2" class="cls-11" d="M0,109.16H180v9.29H0Z"/><path id="point-13-2" class="cls-12" d="M0,99.87H180v9.29H0Z"/><path id="point-14-2" class="cls-13" d="M0,85.94H180V99.87H0Z"/><path id="point-15-2" class="cls-14" d="M0,83.61H180v2.33H0Z"/><path id="point-17-2" class="cls-15" d="M0,81.29H180v2.32H0Z"/><path id="point-20-2" class="cls-16" d="M0,0H180V81.29H0Z"/></svg>