<svg id="graphic" xmlns="http://www.w3.org/2000/svg" viewBox="0 0 180 360"><defs><style>.cls-1{fill:#b1491c;}.cls-1,.cls-10,.cls-11,.cls-12,.cls-13,.cls-2,.cls-3,.cls-4,.cls-5,.cls-6,.cls-7,.cls-8,.cls-9{isolation:isolate;}.cls-2{fill:#852f19;}.cls-3{fill:#93381a;}.cls-4{fill:#0c2939;}.cls-5{fill:#0a424a;}.cls-6{fill:#de621f;}.cls-7{fill:#084e52;}.cls-8{fill:#075a5a;}.cls-9{fill:#05716a;}.cls-10{fill:#037d72;}.cls-11{fill:#028a7a;}.cls-12{fill:#0b3642;}.cls-13{fill:#019582;}</style></defs><path id="point-1-11" class="cls-1" d="M0,207.31H180V360H0Z"/><path id="point-2-11" class="cls-2" d="M0,201.1H180v6.21H0Z"/><path id="point-3-11" class="cls-3" d="M0,199.86H180v1.24H0Z"/><path id="point-7-11" class="cls-4" d="M0,137.79H180v62.07H0Z"/><path id="point-8-11" class="cls-5" d="M0,117.93H180v19.86H0Z"/><path id="point-9-11" class="cls-6" d="M0,108H180v9.93H0Z"/><path id="point-10-11" class="cls-7" d="M0,101.79H180V108H0Z"/><path id="point-11-11" class="cls-8" d="M0,100.55H180v1.24H0Z"/><path id="point-12-11" class="cls-9" d="M0,96.83H180v3.72H0Z"/><path id="point-13-11" class="cls-10" d="M0,85.66H180V96.83H0Z"/><path id="point-14-11" class="cls-11" d="M0,75.72H180v9.94H0Z"/><path id="point-15-11" class="cls-12" d="M0,74.48H180v1.24H0Z"/><path id="point-20-11" class="cls-13" d="M0,0H180V74.48H0Z"/></svg>