<svg id="graphic" xmlns="http://www.w3.org/2000/svg" viewBox="0 0 180 360"><defs><style>.cls-1{fill:#b1491c;}.cls-1,.cls-10,.cls-11,.cls-12,.cls-13,.cls-2,.cls-3,.cls-4,.cls-5,.cls-6,.cls-7,.cls-8,.cls-9{isolation:isolate;}.cls-2{fill:#852f19;}.cls-3{fill:#93381a;}.cls-4{fill:#0c2939;}.cls-5{fill:#0a424a;}.cls-6{fill:#de621f;}.cls-7{fill:#084e52;}.cls-8{fill:#075a5a;}.cls-9{fill:#05716a;}.cls-10{fill:#037d72;}.cls-11{fill:#028a7a;}.cls-12{fill:#0b3642;}.cls-13{fill:#019582;}</style></defs><path id="point-1-8" class="cls-1" d="M0,118.5H180V360H0Z"/><path id="point-2-8" class="cls-2" d="M0,105H180V118.5H0Z"/><path id="point-3-8" class="cls-3" d="M0,103.82H180V105H0Z"/><path id="point-7-8" class="cls-4" d="M0,70H180v33.85H0Z"/><path id="point-8-8" class="cls-5" d="M0,58.68H180V70H0Z"/><path id="point-9-8" class="cls-6" d="M0,53H180v5.64H0Z"/><path id="point-10-8" class="cls-7" d="M0,50.78H180V53H0Z"/><path id="point-11-8" class="cls-8" d="M0,49.66H180v1.12H0Z"/><path id="point-12-8" class="cls-9" d="M0,47.4H180v2.26H0Z"/><path id="point-13-8" class="cls-10" d="M0,44H180V47.4H0Z"/><path id="point-14-8" class="cls-11" d="M0,36.11H180V44H0Z"/><path id="point-15-8" class="cls-12" d="M0,35H180v1.13H0Z"/><path id="point-20-8" class="cls-13" d="M0,0H180V35H0Z"/></svg>