<svg id="graphic" xmlns="http://www.w3.org/2000/svg" viewBox="0 0 180 360"><defs><style>.cls-1{fill:#b1491c;}.cls-1,.cls-10,.cls-11,.cls-12,.cls-2,.cls-3,.cls-4,.cls-5,.cls-6,.cls-7,.cls-8,.cls-9{isolation:isolate;}.cls-2{fill:#852f19;}.cls-3{fill:#c0511d;}.cls-4{fill:#0c2939;}.cls-5{fill:#0a424a;}.cls-6{fill:#de621f;}.cls-7{fill:#084e52;}.cls-8{fill:#075a5a;}.cls-9{fill:#05716a;}.cls-10{fill:#037d72;}.cls-11{fill:#028a7a;}.cls-12{fill:#019582;}</style></defs><path id="point-1-12" class="cls-1" d="M0,211.35H180V360H0Z"/><path id="point-2-12" class="cls-2" d="M0,190.45H180v20.9H0Z"/><path id="point-4-12" class="cls-3" d="M0,183.48H180v7H0Z"/><path id="point-7-12" class="cls-4" d="M0,118.45H180v65H0Z"/><path id="point-8-12" class="cls-5" d="M0,104.52H180v13.93H0Z"/><path id="point-9-12" class="cls-6" d="M0,92.9H180v11.62H0Z"/><path id="point-10-12" class="cls-7" d="M0,88.26H180V92.9H0Z"/><path id="point-11-12" class="cls-8" d="M0,85.94H180v2.32H0Z"/><path id="point-12-12" class="cls-9" d="M0,81.29H180v4.65H0Z"/><path id="point-13-12" class="cls-10" d="M0,79H180v2.32H0Z"/><path id="point-14-12" class="cls-11" d="M0,48.77H180V79H0Z"/><path id="point-20-12" class="cls-12" d="M0,0H180V48.77H0Z"/></svg>