<svg id="graphic" xmlns="http://www.w3.org/2000/svg" viewBox="0 0 180 360"><defs><style>.cls-1{fill:#b1491c;}.cls-1,.cls-10,.cls-11,.cls-12,.cls-13,.cls-14,.cls-2,.cls-3,.cls-4,.cls-5,.cls-6,.cls-7,.cls-8,.cls-9{isolation:isolate;}.cls-2{fill:#852f19;}.cls-3{fill:#93381a;}.cls-4{fill:#0c2939;}.cls-5{fill:#0a424a;}.cls-6{fill:#de621f;}.cls-7{fill:#084e52;}.cls-8{fill:#075a5a;}.cls-9{fill:#05716a;}.cls-10{fill:#037d72;}.cls-11{fill:#028a7a;}.cls-12{fill:#0b3642;}.cls-13{fill:#762718;}.cls-14{fill:#019582;}</style></defs><path id="point-1-4" class="cls-1" d="M0,97.27H180V360H0Z"/><path id="point-2-4" class="cls-2" d="M0,94.78H180v2.49H0Z"/><path id="point-3-4" class="cls-3" d="M0,94H180v.83H0Z"/><path id="point-7-4" class="cls-4" d="M0,59.86H180V94H0Z"/><path id="point-8-4" class="cls-5" d="M0,49.05H180V59.86H0Z"/><path id="point-9-4" class="cls-6" d="M0,43.23H180v5.82H0Z"/><path id="point-10-4" class="cls-7" d="M0,41.57H180v1.66H0Z"/><path id="point-11-4" class="cls-8" d="M0,40.74H180v.83H0Z"/><path id="point-12-4" class="cls-9" d="M0,36.58H180v4.16H0Z"/><path id="point-13-4" class="cls-10" d="M0,31.59H180v5H0Z"/><path id="point-14-4" class="cls-11" d="M0,25.77H180v5.82H0Z"/><path id="point-15-4" class="cls-12" d="M0,24.94H180v.83H0Z"/><path id="point-19-4" class="cls-13" d="M0,24.11H180v.83H0Z"/><path id="point-20-4" class="cls-14" d="M0,0H180V24.11H0Z"/></svg>