<svg id="graphic" xmlns="http://www.w3.org/2000/svg" viewBox="0 0 180 360"><defs><style>.cls-1{fill:#b1491c;}.cls-1,.cls-10,.cls-11,.cls-12,.cls-2,.cls-3,.cls-4,.cls-5,.cls-6,.cls-7,.cls-8,.cls-9{isolation:isolate;}.cls-2{fill:#852f19;}.cls-3{fill:#0c2939;}.cls-4{fill:#0a424a;}.cls-5{fill:#de621f;}.cls-6{fill:#084e52;}.cls-7{fill:#075a5a;}.cls-8{fill:#05716a;}.cls-9{fill:#037d72;}.cls-10{fill:#028a7a;}.cls-11{fill:#0b3642;}.cls-12{fill:#019582;}</style></defs><path id="point-1-3" class="cls-1" d="M0,131.43H180V360H0Z"/><path id="point-2-3" class="cls-2" d="M0,127.14H180v4.29H0Z"/><path id="point-7-3" class="cls-3" d="M0,87.14H180v40H0Z"/><path id="point-8-3" class="cls-4" d="M0,75.71H180V87.14H0Z"/><path id="point-9-3" class="cls-5" d="M0,68.57H180v7.14H0Z"/><path id="point-10-3" class="cls-6" d="M0,61.43H180v7.14H0Z"/><path id="point-11-3" class="cls-7" d="M0,60H180v1.43H0Z"/><path id="point-12-3" class="cls-8" d="M0,58.57H180V60H0Z"/><path id="point-13-3" class="cls-9" d="M0,54.29H180v4.28H0Z"/><path id="point-14-3" class="cls-10" d="M0,48.57H180v5.72H0Z"/><path id="point-15-3" class="cls-11" d="M0,47.14H180v1.43H0Z"/><path id="point-20-3" class="cls-12" d="M0,0H180V47.14H0Z"/></svg>