<svg id="Layer_1" data-name="Layer 1" xmlns="http://www.w3.org/2000/svg" viewBox="0 0 531.25 336.65">
    <defs>
        <style>.congress16-1{fill:#afafaf;}.congress16-1,.congress16-2,.congress16-3,.congress16-4{stroke:#fff;stroke-miterlimit:10;stroke-width:0.25px;}.congress16-2{fill:#0d2436;}.congress16-2,.congress16-3{opacity:0.9;isolation:isolate;}.congress16-3{fill:#5f1a16;}.congress16-4{fill:#2b3990;}.congress16-5{font-size:20px;font-family:Numans-Regular, Numans;}
        </style>
    </defs><polygon id="wisconsin" class="congress16-1" points="321.82 114.72 347.32 113.53 347.23 112.33 345.23 102.13 346.63 98.42 346.13 93.72 348.02 90.63 348.23 86.42 349.32 84.42 351.02 80.53 351.73 77.42 350.13 79.33 348.43 82.03 346.02 83.72 344.02 86.72 342.82 86.33 343.63 83.22 347.13 78.53 348.43 74.72 349.93 72.22 350.32 68.83 351.82 68.72 352.13 70.53 353.43 68.83 354.93 68.83 355.02 70.53 356.43 70.03 357.13 67.92 360.82 67.63 362.13 66.33 364.73 64.72 369.32 65.22 370.73 66.63 371.93 64.72 377.32 64.92 380.63 63.42 372.93 60.42 368.43 60.83 367.63 58.63 367.63 56.42 363.52 57.92 358.73 58.73 355.63 60.33 353.32 62.13 350.32 61.83 347.43 61.92 343.82 59.13 340.93 58.02 338.23 58.02 336.73 58.63 337.52 55.33 338.52 52.92 341.63 50.63 337.63 50.23 335.82 53.23 333.52 54.52 331.13 56.92 325.43 59.52 321.52 62.73 318.13 62.13 315.02 63.13 314.93 60.42 316.02 59.23 314.23 58.83 307.93 62.23 304.43 61.02 303.73 69.33 299.13 72.83 299.02 75.53 300.82 77.63 300.23 79.53 300.52 87.83 304.43 88.72 304.23 90.33 308.23 91.22 309.23 94.13 315.02 98.33 315.02 104.13 316.73 105.83 315.82 108.72 317.43 112.13 320.93 113.33 321.82 114.72"/><polygon id="washington" class="congress16-2" points="86.72 51.83 86.72 54.13 89.03 54.13 89.03 57.52 85.33 62.73 84.42 65.53 81.13 66.92 79.42 73.03 81.72 74.53 80.72 76.22 79.42 78.53 77.42 87.53 74.53 101.33 9.22 84.33 9.22 79.72 10.22 77.03 9.22 73.22 11.63 71.03 12.22 68.22 13.82 67.03 15.82 64.13 26.32 36.83 27.13 32.73 33.73 36.52 34.92 42.63 38.42 45.52 45.92 45.52 50.02 47.42 68.42 47.42 86.72 51.83"/><polygon id="vermont" class="congress16-1" points="488.02 86.53 481.23 87.83 479.32 84.03 479.32 80.42 477.93 77.22 476.63 77.22 476.63 74.13 475.02 72.22 475.02 69.92 476.02 68.22 473.13 60.42 489.63 56.73 489.63 59.73 490.63 61.73 489.63 64.83 487.13 66.63 487.13 68.83 488.32 70.83 488.13 73.22 487.13 75.42 487.13 82.33 488.02 86.53"/><polygon id="rhodeisland" class="congress16-2" points="496.73 93.53 498.93 101.83 501.02 100.33 501.02 97.33 502.63 96.72 503.13 98.03 504.13 99.13 505.02 97.83 503.63 95.13 501.73 95.13 500.23 94.33 500.23 92.92 496.73 93.53"/><polygon id="pennsylvania" class="congress16-2" points="419.13 127.53 421.82 139.03 465.73 131.53 466.73 128.82 469.43 129.82 471.73 127.53 472.52 125.53 475.13 123.53 472.63 120.53 471.13 120.53 471.02 119.22 468.82 119.22 469.63 114.72 468.43 113.03 470.52 111.63 471.32 107.83 469.23 107.33 464.52 101.83 422.82 109.53 422.82 106.63 421.23 108.03 419.63 108.42 417.93 110.33 416.23 111.63 419.13 127.53"/><polygon id="oregon" class="congress16-2" points="27.13 32.73 33.73 36.52 34.92 42.63 38.42 45.52 45.92 45.52 50.02 47.42 53.73 47.42 61.42 47.42 68.42 47.42 78.92 49.92 86.72 51.83 86.72 47.42 88.13 41.23 89.63 34.52 91.33 26.73 93.53 18.43 93.53 14.53 65.63 8.32 47.13 2.42 47.33 6.13 48.63 6.13 47.33 9.93 48.63 16.63 44.33 23.82 42.52 23.82 43.33 20.13 44.52 17.63 43.92 13.53 41.83 13.53 39.83 11.03 38.63 11.93 29.23 5.72 28.32 8.82 29.23 13.53 28.32 17.73 29.52 19.73 28.32 23.13 29.82 23.82 30.93 25.02 29.02 25.02 28.32 26.93 29.93 28.13 28.32 31.32 27.13 31.32 27.13 32.73"/><polygon id="newyork" class="congress16-2" points="493.32 107.33 490.82 108.53 487.13 110.63 484.63 111.63 482.63 113.03 481.43 112.03 482.93 110.33 481.82 108.92 483.23 107.42 483.93 105.72 482.52 104.92 481.82 96.92 481.23 97.13 481.23 87.83 479.32 84.03 479.32 80.42 477.93 77.22 476.63 77.22 476.63 74.13 475.02 72.22 475.02 69.92 476.02 68.22 473.13 60.42 461.13 63.13 454.13 70.53 453.02 73.83 449.52 77.42 450.02 78.92 451.43 80.03 451.82 82.92 450.63 85.03 448.43 86.92 446.13 88.63 440.23 91.03 437.93 89.42 428.63 91.42 427.82 94.83 429.93 97.53 429.13 100.42 426.73 103.22 422.82 106.63 422.82 109.53 464.52 101.83 469.23 107.33 472.52 108.03 479.13 111.03 480.43 113.03 479.93 116.33 483.02 115.92 487.13 113.53 488.43 112.72 493.13 110.72 495.43 107.33 493.32 107.33"/><polygon id="newmexico" class="congress16-2" points="200.53 185.32 194.63 249.22 156.32 244.22 157.03 246.82 139.72 244.93 138.93 250.43 129.72 249.22 139.93 177.72 200.53 185.32"/><polygon id="newjersey" class="congress16-2" points="471.32 107.83 479.13 111.03 480.43 113.03 479.93 116.33 479.02 118.42 480.93 118.13 482.02 119.03 482.02 128.22 478.52 135.63 476.63 137.53 475.63 135.93 472.93 134.53 470.93 132.82 469.43 130.63 469.43 129.82 471.73 127.53 472.52 125.53 475.13 123.53 472.63 120.53 471.13 120.53 471.02 119.22 468.82 119.22 469.63 114.72 468.43 113.03 470.52 111.63 471.32 107.83"/><polygon id="minnesota" class="congress16-2" points="267.63 103.33 315.02 102.13 315.02 98.33 309.23 94.13 308.23 91.22 304.23 90.33 304.43 88.72 300.52 87.83 300.23 79.53 300.82 77.63 299.02 75.53 299.13 72.83 303.73 69.33 304.43 61.02 308.93 56.23 314.32 51.63 318.43 49.02 325.73 44.33 322.43 43.33 317.32 44.13 314.63 42.63 308.73 44.83 305.32 43.73 303.43 42.02 302.02 42.42 299.43 39.33 293.13 38.23 289.32 39.13 284.82 37.02 282.82 37.83 281.63 36.33 281.63 33.52 281.13 29.93 278.52 29.32 277.73 33.13 260.93 33.92 262.02 37.23 260.82 38.33 261.52 47.63 263.23 48.92 264.13 63.92 265.93 69.33 265.93 72.83 263.63 76.83 263.63 78.42 267.63 81.42 267.63 103.33"/><polygon id="michigan" class="congress16-2" points="377.02 119.22 388.93 117.53 388.93 116.42 390.13 114.72 391.13 113.42 391.13 111.13 392.52 109.72 393.32 105.72 395.23 105.63 396.02 100.03 392.52 89.72 388.82 88.72 384.13 94.83 381.63 94.03 381.23 90.92 383.93 88.63 385.13 86.22 384.82 80.53 383.73 78.22 383.63 75.92 384.73 74.63 381.32 72.42 377.02 71.63 376.23 70.13 371.32 68.83 368.23 72.42 368.82 74.22 366.63 76.53 366.63 79.63 364.13 82.03 362.63 80.42 360.82 81.63 359.32 84.33 359.43 87.92 358.43 92.13 358.82 95.53 360.32 100.33 362.43 105.22 361.23 116.33 358.43 120.72 358.02 121.33 377.02 119.22"/><polygon id="massachusets" class="congress16-2" points="481.23 87.83 481.23 97.13 496.73 93.53 500.23 92.92 500.23 94.33 501.73 95.13 503.63 95.13 505.02 97.83 506.63 95.63 509.02 94.72 509.63 96.03 511.23 94.72 513.63 93.92 513.63 91.42 512.02 88.22 510.52 89.72 511.32 91.22 511.32 92.92 509.32 93.33 507.43 92.22 505.43 89.53 502.02 88.92 503.93 83.63 502.63 80.92 500.63 81.53 499.23 83.83 481.23 87.83"/><polygon id="maryland" class="congress16-2" points="432.43 144.22 438.52 138.03 440.63 139.03 442.52 137.43 447.02 136.53 449.23 139.72 450.73 139.72 452.63 141.22 452.63 142.63 454.73 142.63 457.13 144.72 455.43 148.53 455.13 151.13 457.13 151.13 458.23 150.53 459.73 151.93 460.93 150.93 463.43 150.93 463.43 149.63 461.32 144.43 461.32 137.93 464.32 134.03 465.52 134.13 465.43 136.82 463.93 139.93 465.02 142.63 466.23 148.82 468.52 149.53 470.13 149.53 470.23 152.53 472.93 151.93 472.82 154.32 471.82 157.43 471.82 161.22 473.73 157.72 475.13 151.72 476.63 149.22 476.63 145.03 470.32 146.22 465.73 131.53 430.73 137.43 432.43 144.22"/><polygon id="maine" class="congress16-1" points="492.13 51.13 499.63 72.42 499.63 75.13 503.02 78.33 505.13 70.92 504.52 68.72 506.63 66.42 508.13 67.03 509.23 65.22 511.93 64.63 512.92 62.73 514.63 58.42 516.42 58.02 519.42 54.42 521.42 55.23 523.02 53.33 525.92 51.33 527.83 48.42 529.52 47.92 528.23 46.42 527.42 44.33 523.42 43.23 522.23 40.23 519.42 38.83 514.42 23.32 509.32 20.02 503.52 23.63 501.63 22.23 501.93 20.32 500.43 20.82 496.82 33.23 497.63 35.02 496.63 37.42 497.32 42.83 496.63 45.52 495.13 47.42 495.73 49.63 494.23 51.63 492.93 50.73 492.13 51.13"/><polygon id="iowa" class="congress16-3" points="315.02 102.13 315.02 104.13 316.73 105.83 315.82 108.72 317.43 112.13 320.93 113.33 323.63 117.22 326.43 119.92 325.73 123.53 322.52 127.53 318.23 128.82 317.43 131.53 318.93 134.43 317.43 138.13 315.02 140.43 315.02 142.72 312.13 140.43 273.73 140.43 273.02 137.53 273.02 135.32 271.63 133.72 271.63 130.93 270.43 126.22 266.73 118.83 265.93 112.13 267.63 109.22 265.63 106.72 265.63 103.33 315.02 102.13"/><polygon id="indiana" class="congress16-2" points="339.82 184.43 340.63 181.43 343.43 180.13 345.52 182.32 347.13 182.32 347.13 178.03 350.52 176.22 350.52 173.93 350.52 168.93 353.43 163.72 354.82 161.22 354.82 158.03 352.63 156.43 353.73 153.93 351.02 122.42 349.13 117.83 347.23 116.33 347.32 113.53 321.82 114.72 323.63 117.22 326.43 119.92 325.73 123.53 322.52 127.53 318.23 128.82 317.43 131.53 318.93 134.43 317.43 138.13 315.02 140.43 315.02 147.72 317.43 151.72 321.93 155.72 323.63 161.22 326.52 159.93 328.73 162.13 328.73 165.32 326.73 168.93 335.13 175.53 336.63 178.43 336.63 181.32 339.82 184.43"/><polygon id="delaware" class="congress16-2" points="468.52 132.82 469.43 129.82 466.73 128.82 465.73 131.53 470.32 146.22 476.63 145.03 476.63 142.82 474.52 140.22 472.52 139.13 468.52 132.82"/><polygon id="connecticut" class="congress16-2" points="496.73 93.53 498.93 101.83 496.13 103.22 491.13 104.42 488.02 105.72 485.32 107.72 482.93 110.33 481.82 108.92 483.23 107.42 483.93 105.72 482.52 104.92 481.82 96.92 496.73 93.53"/><path id="california" class="congress16-2" d="M47.53,94.22l-9.6,38.4,41.4,60.9v3.8l.6,2.7,1.1,1v1.2l1.69.6v2.11l-1.9-.61-2.3,2.5-1.8,5-1.6,1.8h-1.8l.2,1.4.2,1.6s1.3,2,1.6,2.5a6.05,6.05,0,0,1,0,1.9l-3,1.1-25.1-2.69-.7-9.81-6.3-8.8h-2.5l.4-1.89-.7-2.2-4.8-1.3-1.3-1.2-.9-2.8-6.5-3.11-3-.5-3.2-2.6,2-5.4-2-2.7.8-.89.1-2-1.8-1.2-2.8-6.3-.5-2.8-3-2.61,1.2-3.8,1.9-1.6v-2.2L9.12,149v-5.8l1.8.1,2.2,1.3-1.5-7.5-2,2.4-3-3.59.41-5-4.7-7,1.3-1.81-1.3-1.9,1.2-3.6,1.8-2.19-3-9.2v-3l4.4-7,2.39-4v-7.1L47.53,94.22Z"/><polygon id="whyoming" class="congress16-3" points="130.03 112.13 127.92 123.72 194.53 132.53 198.53 81.42 136.03 74.13 130.03 112.13"/><polygon id="westvirginia" class="congress16-1" points="430.73 137.43 432.43 144.22 438.52 138.03 440.63 139.03 442.52 137.43 447.02 136.53 449.23 139.72 449.23 142.32 447.43 142.63 443.63 139.63 442.52 142.03 442.73 143.63 441.63 144.22 441.52 146.32 439.23 148.93 437.23 148.32 436.13 154.03 434.63 154.72 431.63 152.32 430.13 160.53 428.23 166.53 425.82 168.03 422.82 168.82 422.82 171.32 419.13 172.32 417.52 171.32 416.23 173.53 411.43 171.32 411.43 169.32 407.52 168.03 403.82 163.13 404.32 159.22 407.13 154.72 407.13 151.22 410.43 151.22 410.43 148.93 412.23 145.03 414.73 145.03 417.73 141.13 417.73 139.13 419.13 134.13 416.23 132.22 417.73 130.72 417.73 129.22 419.13 127.53 421.82 139.03 430.73 137.43"/><path id="virginia" class="congress16-2" d="M449.23,139.73h1.5l1.89,1.5v1.39h2.11l2.39,2.11-1.7,3.8-.2,2.6h2l1.1-.6,1.5,1.4,1.6,1.3,4,1.2.7,2-.1,2.39,1.6,2.3-1.39,1.2v1.4l1,1.1-1.8.11.3,2.19,1.89.5,1.8-.8,2,.11,1.4,1.19.3,2.31-25,5.69s-34.8,5.11-34.8,4.81-16.4,1.69-16.4,1.69l5.8-3.19.8-2.4,1.4-.5,6.8-5.3,4.9,2.2,1.2-2.2,1.6,1.1,3.7-1.1v-2.4l3-.9,2.4-1.5,1.9-6,1.5-8.1,3,2.4,1.5-.8,1.1-5.61,2,.61,2.2-2.61.1-2.1,1.1-.6-.2-1.6,1.1-2.4,3.8,3,1.9-.2-.29-2.69Z"/><polygon id="utah" class="congress16-3" points="102.03 106.72 89.92 170.03 139.93 177.72 146.82 126.22 127.92 123.72 130.03 112.13 102.03 106.72"/><polygon id="texas" class="congress16-3" points="288.82 230.93 290.73 230.03 292.02 230.93 292.02 250.43 294.52 254.72 297.13 260.73 297.13 265.32 296.02 270.73 296.02 274.32 294.73 279.23 287.32 281.13 285.52 280.93 285.52 278.73 282.63 279.82 282.32 281.43 283.43 283.32 280.73 285.43 279.73 287.93 272.23 292.02 268.93 293.43 268.13 292.02 264.63 293.52 266.13 295.52 262.32 296.52 261.82 299.23 260.52 298.43 259.02 299.02 259.02 300.82 257.82 302.52 256.02 302.43 254.93 303.82 255.72 305.63 254.93 308.32 253.32 310.02 254.43 311.73 253.22 315.23 255.72 324.13 257.82 326.13 257.82 327.93 256.02 326.73 254.72 327.93 251.63 325.63 245.43 324.43 236.13 320.23 232.72 313.52 231.63 309.73 231.63 307.13 230.82 304.73 228.82 304.73 227.22 302.32 227.22 301.13 223.13 296.23 220.32 289.63 219.13 285.32 213.22 280.32 213.22 278.63 210.53 276.82 206.32 276.82 203.22 276.13 201.82 274.52 200.43 276.43 197.03 276.52 194.32 282.73 191.93 285.32 190.03 285.32 177.63 276.52 175.63 273.32 176.22 269.73 174.53 267.43 174.53 265.93 159.72 250.43 159.72 248.53 157.03 246.82 156.32 244.22 194.63 249.22 200.03 190.72 230.82 193.53 229.63 216.13 232.03 220.22 238.03 220.82 245.03 224.22 246.72 223.43 251.72 228.03 253.43 225.43 255.72 227.13 257.82 225.72 259.23 230.03 261.52 225.43 265.93 226.32 267.63 230.03 269.63 227.72 274.63 226.32 277.93 227.13 280.43 226.03 288.82 230.93"/><polygon id="tennessee" class="congress16-3" points="413.13 180.93 413.13 185.13 411.43 186.32 409.63 188.63 407.73 188.63 406.13 190.13 403.82 190.13 401.82 192.72 400.23 194.72 396.73 197.32 392.02 198.63 391.13 200.13 389.13 203.22 389.13 205.32 331.02 210.63 332.13 209.43 333.32 202.13 335.43 197.32 337.63 190.72 351.52 188.82 351.52 186.53 354.23 187.13 408.43 181.32 413.13 180.93"/><polygon id="southdakota" class="congress16-3" points="265.93 72.83 263.63 76.83 263.63 78.42 267.63 81.42 267.63 103.33 265.63 103.33 265.63 106.72 267.63 109.22 265.93 112.13 266.73 117.22 259.93 112.13 257.43 112.13 254.63 113.92 252.72 111.13 249.43 112.13 248.22 109.03 196.53 106.72 199.53 69.33 265.93 72.83"/><polygon id="southcarolina" class="congress16-3" points="432.82 237.32 434.13 234.03 436.73 230.32 444.63 224.32 445.73 221.43 447.52 219.43 449.13 215.13 451.52 211.22 453.43 209.82 440.73 200.32 428.93 202.13 428.13 199.53 426.02 199.22 425.23 198.32 410.93 199.63 408.52 201.63 403.82 203.22 402.23 207.72 409.02 210.63 411.43 215.53 419.13 219.13 419.13 222.93 426.52 227.03 426.52 230.03 429.43 231.32 429.63 237.13 432.82 237.32"/><polygon id="oklahoma" class="congress16-3" points="285.32 187.13 285.32 195.82 286.82 205.43 286.82 230.03 280.43 226.03 277.93 227.13 274.63 226.32 269.63 227.72 267.63 230.03 265.93 226.32 261.52 225.43 259.23 230.03 257.82 225.72 255.72 227.13 253.43 225.43 251.72 228.03 246.72 223.43 245.03 224.22 238.03 220.82 232.03 220.22 229.63 216.13 230.82 193.53 200.03 190.72 200.53 185.32 285.32 187.13"/><polygon id="ohio" class="congress16-1" points="416.23 111.63 419.13 127.53 417.73 129.22 417.73 130.72 416.23 132.22 419.13 134.13 417.73 139.13 417.73 141.13 414.73 145.03 412.23 145.03 410.43 148.93 410.43 151.22 407.13 151.22 407.13 154.72 404.32 159.22 399.13 154.93 396.82 157.13 392.93 157.13 391.32 158.22 389.63 156.43 387.02 156.43 384.23 152.53 380.52 153.22 377.02 119.22 388.93 117.53 389.02 119.33 391.02 118.92 395.32 120.83 399.82 121.53 403.52 118.83 405.63 119.72 409.32 115.13 411.63 114.53 416.23 111.63"/><polygon id="northdakota" class="congress16-3" points="199.53 69.33 265.93 72.83 265.93 69.33 263.93 63.33 263.23 48.92 261.52 47.63 260.82 38.33 262.02 37.23 260.93 33.92 216.82 32.63 202.82 31.32 199.53 69.33"/><polygon id="northcarolina" class="congress16-3" points="389.73 205.22 403.82 203.22 408.52 201.63 410.93 199.63 425.23 198.32 426.02 199.22 428.13 199.53 428.93 202.13 440.73 200.32 453.43 209.82 454.32 209.03 458.23 208.32 459.82 206.93 460.93 202.93 466.23 196.43 470.93 194.43 473.13 192.72 473.13 191.13 470.82 192.53 467.32 193.13 466.13 191.43 468.23 191.32 469.73 190.22 470.52 188.03 469.32 186.43 469.63 184.93 471.23 184.32 471.82 185.53 473.13 185.93 474.93 184.93 476.63 182.93 476.63 178.53 475.23 179.03 474.32 180.53 472.52 178.53 468.32 179.93 467.43 178.63 474.43 174.63 474.43 172.72 472.93 170.53 449.23 175.72 413.73 181.03 413.13 180.93 413.13 185.13 411.43 186.32 409.63 188.63 407.73 188.63 406.13 190.13 403.82 190.13 400.23 194.72 396.73 197.32 392.02 198.63 389.13 203.22 389.13 205.32 389.73 205.22"/><polygon id="newhampshire" class="congress16-2" points="489.63 56.73 489.63 59.73 490.63 61.73 489.63 64.83 487.13 66.63 487.13 68.83 488.32 70.83 488.13 73.22 487.13 75.42 487.13 82.33 488.02 86.53 499.23 83.83 500.63 81.53 502.63 80.92 503.02 78.33 499.63 75.13 499.63 72.42 492.13 51.13 490.63 51.92 489.43 54.42 489.63 56.73"/><polygon id="nevada" class="congress16-2" points="102.03 106.72 74.42 101.22 47.52 94.22 37.92 132.63 79.33 193.53 80.72 189.22 79.83 188.63 80.83 183.32 80.22 180.72 80.92 179.43 84.33 179.43 85.03 181.22 86.72 181.93 89.92 170.03 102.03 106.72"/><polygon id="nebraska" class="congress16-3" points="266.52 117.13 266.73 118.83 267.73 120.92 270.43 126.22 271.63 130.93 271.63 133.72 273.02 135.32 273.02 137.53 273.93 141.22 276.02 144.72 277.93 148.43 212.53 146.32 213.03 134.43 194.53 132.53 196.53 106.72 248.22 109.03 249.43 112.13 252.72 111.13 254.63 113.92 257.43 112.13 259.93 112.13 266.52 117.13"/><polygon id="montana" class="congress16-1" points="198.53 81.42 202.82 31.32 170.03 27.63 114.83 19.32 101.53 16.32 99.72 28.52 101.53 33.63 100.63 36.13 103.83 40.73 106.33 46.42 110.53 48.73 108.33 56.02 108.33 57.92 106.33 61.52 108.63 62.92 111.53 60.63 113.22 61.92 113.22 67.03 114.72 69.92 113.63 72.03 116.33 73.22 117.22 78.53 120.33 78.53 123.92 77.63 128.13 78.53 131.22 78.53 132.72 76.42 134.93 80.92 136.03 74.13 198.53 81.42"/><polygon id="missouri" class="congress16-3" points="273.73 140.43 312.13 140.43 315.02 142.72 315.02 147.72 317.43 151.72 321.93 155.72 323.63 161.22 326.52 159.93 328.73 162.13 328.73 165.53 326.73 168.93 335.43 175.72 336.63 178.43 336.63 181.32 339.82 184.43 340.63 188.82 337.63 190.72 335.43 197.32 328.73 197.32 331.82 194.13 330.43 190.72 285.32 192.63 285.32 161.22 279.73 155.72 281.52 151.22 277.93 148.43 273.73 140.43"/><polygon id="mississippi" class="congress16-3" points="353.02 208.63 353.02 250.43 354.82 267.73 349.93 267.02 341.43 270.63 338.73 265.32 339.52 261.73 319.52 261.73 319.43 259.32 323.63 247.13 325.63 246.13 322.63 237.13 323.32 233.43 320.63 229.53 323.02 227.63 324.02 223.03 325.52 219.82 328.23 216.93 328.63 213.13 331.02 210.63 353.02 208.63"/><polygon id="louisiana" class="congress16-3" points="292.02 237.13 322.63 237.13 324.13 241.63 325.63 246.13 323.63 247.13 322.13 251.82 319.43 259.32 319.52 261.73 339.52 261.73 338.73 265.32 341.43 270.63 336.43 269.32 333.93 269.13 332.73 271.32 333.93 273.32 337.63 272.43 339.73 272.82 340.63 274.93 345.73 271.63 346.63 273.73 345.23 274.23 342.32 277.43 341.43 279.02 349.13 283.63 345.23 285.43 344.73 283.73 340.23 281.73 339.52 280.43 337.43 280.32 336.82 283.63 335.63 284.43 334.73 282.73 331.63 283.13 330.02 285.02 326.23 283.73 324.23 280.93 321.43 280.32 319.73 277.73 317.43 277.23 316.52 276.32 314.32 277.32 314.32 280.02 302.82 277.43 294.73 279.23 296.02 274.32 296.02 270.73 297.13 265.32 297.13 260.73 294.52 254.72 292.02 250.43 292.02 237.13"/><polygon id="kentucky" class="congress16-3" points="396.73 182.72 354.13 187.13 351.52 186.53 351.52 188.82 337.63 190.72 340.63 188.82 339.82 184.43 340.63 181.43 343.43 180.13 345.52 182.32 347.13 182.32 347.13 178.03 350.52 176.22 350.52 173.53 352.23 171.32 357.02 171.32 358.52 172.32 360.32 172.32 360.52 170.03 362.32 169.63 364.23 170.93 365.23 170.32 365.32 168.32 366.93 167.13 368.23 168.32 370.82 168.32 371.43 166.32 375.43 161.22 376.02 158.72 377.93 159.13 380.13 157.93 380.82 156.53 380.52 153.22 384.23 152.53 387.02 156.43 389.63 156.43 391.32 158.22 392.93 157.13 396.82 157.13 399.13 154.93 404.32 159.22 403.82 163.13 407.52 168.03 411.43 169.32 411.43 171.32 404.63 176.63 403.23 177.13 402.52 179.53 396.73 182.72"/><polygon id="kanasas" class="congress16-3" points="277.93 148.43 281.52 151.22 279.73 155.72 281.93 157.63 285.32 161.22 285.32 187.13 210.63 185.53 212.53 146.32 277.93 148.43"/><polygon id="illinois" class="congress16-3" points="358.02 121.33 377.02 119.22 380.82 156.53 380.13 157.93 377.93 159.13 376.02 158.72 375.43 161.22 371.43 166.32 370.82 168.32 368.23 168.32 366.93 167.13 365.32 168.32 365.23 170.32 364.23 170.93 362.32 169.63 360.52 170.03 360.32 172.32 358.52 172.32 357.02 171.32 352.23 171.32 350.52 173.53 350.52 168.93 354.82 161.22 354.82 158.03 352.63 156.43 353.73 153.93 351.02 122.42 354.13 123.83 358.02 121.33"/><polygon id="idaho" class="congress16-3" points="101.53 16.32 99.72 28.52 101.53 33.63 100.63 36.13 103.83 40.73 106.33 46.42 110.53 48.73 108.33 56.02 108.33 57.92 106.33 61.52 108.63 62.92 111.53 60.63 113.22 61.92 113.22 67.03 114.72 69.92 113.63 72.03 116.33 73.22 117.22 78.53 120.33 78.53 123.92 77.63 128.13 78.53 131.22 78.53 132.72 76.42 134.93 80.92 130.03 112.13 74.42 101.22 79.42 78.53 81.72 74.53 79.42 73.03 81.13 66.92 84.42 65.53 85.33 62.73 89.03 57.52 89.03 54.13 86.72 54.13 86.72 51.83 86.72 47.42 90.03 32.73 91.53 25.43 93.53 18.43 93.53 14.53 101.53 16.32"/><g id="hawaii"><path class="congress16-4" d="M134,294.73v2.6h4.9l.8-2.6-1.8-1.5c-.4-.31-3.9,1.5-3.9,1.5Z"/><path class="congress16-4" d="M153.12,301.12l2.11-1.5,3.6,3.3v2.8H154l-.91-4.6Z"/><polygon class="congress16-4" points="164.13 306.52 164.13 308.63 166.22 308.63 168.53 308.63 169.72 310.52 171.03 307.73 164.13 306.52"/><polygon class="congress16-4" points="166.22 311.63 167.53 313.93 167.53 315.13 170.03 313.32 167.53 310.52 166.22 311.63"/><path class="congress16-4" d="M171.73,308.52v2.8h2l.8,2.6,3-1.1,1.5-1.6-2-1.4-2.8.6-2.5-1.9Z"/><polygon class="congress16-4" points="181.03 318.52 181.03 320.82 178.93 324.13 180.03 329.32 181.03 333.32 183.53 334.13 185.63 331.32 190.63 329.52 193.53 328.93 193.53 327.13 191.22 326.32 190.13 323.63 186.22 320.32 183.32 319.52 181.03 318.52"/></g><polygon id="georgia" class="congress16-3" points="391.13 256.73 392.93 259.32 421.02 258.02 424.13 261.23 424.13 253.53 429.52 254.53 428.63 247.32 430.13 242.53 432.82 237.32 429.63 237.13 429.43 231.32 426.52 230.03 426.52 227.03 419.13 222.93 419.13 219.13 411.43 215.53 409.02 210.63 402.23 207.72 403.82 203.22 389.13 205.32 378.63 206.22 387.23 237.13 389.13 238.82 389.13 240.82 387.93 246.53 390.02 250.43 389.13 253.53 391.13 256.73"/><polygon id="florida" class="congress16-3" points="365.13 266.23 363.52 262.63 363.73 259.32 391.13 256.73 392.93 259.32 421.02 258.02 424.13 261.23 424.13 253.53 429.52 254.53 429.82 256.93 430.93 258.52 431.32 261.23 433.23 263.52 433.02 267.43 437.63 272.93 438.32 275.23 440.93 276.32 444.23 281.02 443.82 284.13 444.52 287.52 446.82 289.02 448.73 294.63 452.32 299.93 454.32 303.93 453.13 308.13 454.32 312.02 452.23 314.82 452.82 319.13 450.13 321.13 446.13 322.52 446.13 320.32 444.02 320.13 441.32 316.43 439.02 314.73 435.63 313.93 435.43 311.93 434.52 310.02 431.02 306.13 431.02 303.82 427.93 303.63 425.73 300.23 423.63 298.13 422.93 296.52 424.32 295.13 424.82 292.73 423.93 291.23 422.32 291.02 422.32 292.63 421.32 293.52 420.02 291.82 419.82 289.23 420.82 286.52 421.32 283.63 420.52 280.52 417.82 275.93 415.73 276.02 410.02 270.63 408.93 269.23 403.43 266.02 399.73 266.73 397.93 268.73 394.13 270.93 389.43 273.52 389.43 271.32 386.63 269.52 387.52 267.82 384.93 266.52 383.32 267.43 379.32 265.82 377.13 265.63 377.13 263.93 372.93 265.82 370.82 264.63 368.63 264.63 367.63 266.02 365.13 266.23"/><polygon id="colorado" class="congress16-1" points="194.53 132.53 213.03 134.43 210.63 185.53 200.53 185.32 139.93 177.72 146.82 126.22 194.53 132.53"/><polygon id="arkanasas" class="congress16-3" points="285.32 192.63 330.43 190.72 331.82 194.13 328.73 197.32 335.43 197.32 333.32 202.13 332.13 209.43 328.63 213.13 328.23 216.93 325.52 219.82 324.02 223.03 323.02 227.63 320.63 229.53 323.32 233.43 322.63 237.13 292.02 237.13 292.02 230.93 290.73 230.03 288.82 230.93 286.82 229.82 286.82 205.43 285.32 195.82 285.32 192.63"/><polygon id="arizona" class="congress16-1" points="139.93 177.72 129.72 249.22 108.63 246.53 72.42 223.72 72.42 222.03 75.33 220.93 75.33 219.03 73.83 216.53 73.33 213.53 75.13 213.53 76.72 211.72 78.42 206.72 80.72 204.22 82.63 204.82 82.63 202.72 80.92 202.13 80.92 200.93 79.92 199.93 79.33 197.22 79.33 193.53 80.72 189.22 79.83 188.63 80.83 183.32 80.22 180.72 80.92 179.43 84.33 179.43 85.03 181.22 86.72 181.93 89.92 170.03 139.93 177.72"/><path id="alaska" class="congress16-3" d="M78.22,256.62,83,262.33v46.2h5.69l4.81,5.7,5.19-3,9.6,13.1,7.8,3.7v5.9l-6.09,2.6-7.41-6.5-5.4-6.1-3.3-7.4-7-3.5-5.9-2.2-5-.6-4.8-4.5-6.2-.3v2.2l-1.7,2.3-7,2v-3l2.7-3.6,1.1-1.8-4.8,2.6-4,3.5-3.3,2.8,1.7.8-10,8.3-6.2,2.1-6.6,2-5.9,1.8-5.5.5h-2.6l2.8-2.1h2.9l4-1.4,2.8.1,2.8-1.9,8.8-4.3,1.5-3.7c.9-1.3,1.8-2.6,2.6-4-.4.2-5.4,1.6-5.4,1.6l-2.6-4s-4,.5-3.9.4a7.72,7.72,0,0,0-.2-1.5l1.4-1.6-1.1-3.2c-1.6-.4-3.2-.71-4.8-1-.2.1-1.9-3.21-1.9-3.21l1.2-2.5-1.4-4.7,5.4-3.4,1.8-2.1,2.7,2.7,2.7-2.7h3l.9-6.6-3.5,2.1s-5.1-1.7-5.3-1.7a35.84,35.84,0,0,1-2.9-2.6l.9-2.5-1.8-4.1,9.3-1.4-.5,4.1,4.3.7s1.4-5.5,1.1-5.6-3.2-1.5-3.2-1.5l-.7-4.9-2.2-2.7,1.5-2.2,3.8,1,2.3-1,1.6-3.2,7.3-3.4,3.8,1.2,1.2-1.2,6.9,2.7-.7,2.2,2.4.7,3.7-.7,7.3,3.5,2.7-1.7Z"/><polygon id="alabama" class="congress16-3" points="353.02 208.63 378.63 206.22 387.23 237.13 389.13 238.82 389.13 240.82 387.93 246.53 390.02 250.43 389.13 253.53 391.13 256.73 363.73 259.32 363.52 262.63 365.13 266.23 363.52 267.93 361.43 267.82 360.13 265.82 359.52 262.43 357.32 267.13 355.82 266.23 354.82 267.73 353.02 250.43 353.02 208.63"/><text class="congress16-5" transform="translate(454.33 259.32)">116th</text>
</svg>