<svg id="2004election" xmlns="http://www.w3.org/2000/svg" viewBox="0 0 531 336.3">
    <defs>
        <style>.cls-1{fill:#eaeaea;}.cls-1,.cls-2,.cls-3,.cls-4{stroke:#fff;stroke-miterlimit:10;stroke-width:0.25px;}.cls-2{fill:#2b3990;}.cls-3{fill:#d33945;}.cls-4{fill:none;}.cls-5{font-size:20px;font-family:Numans-Regular, Numans;}
        </style>
    </defs>
        <rect class="cls-1" x="-0.5" width="531" height="336.4"/><polygon id="wisconsin" class="cls-2" points="321.2 114.6 346.7 113.4 346.6 112.2 344.6 102 346 98.3 345.5 93.6 347.4 90.5 347.6 86.3 348.7 84.3 350.4 80.4 351.1 77.3 349.5 79.2 347.8 81.9 345.4 83.6 343.4 86.6 342.2 86.2 343 83.1 346.5 78.4 347.8 74.6 349.3 72.1 349.7 68.7 351.2 68.6 351.5 70.4 352.8 68.7 354.3 68.7 354.4 70.4 355.8 69.9 356.5 67.8 360.2 67.5 361.5 66.2 364.1 64.6 368.7 65.1 370.1 66.5 371.3 64.6 376.7 64.8 380 63.3 372.3 60.3 367.8 60.7 367 58.5 367 56.3 362.9 57.8 358.1 58.6 355 60.2 352.7 62 349.7 61.7 346.8 61.8 343.2 59 340.3 57.9 337.6 57.9 336.1 58.5 336.9 55.2 337.9 52.8 341 50.5 337 50.1 335.2 53.1 332.9 54.4 330.5 56.8 324.8 59.4 320.9 62.6 317.5 62 314.4 63 314.3 60.3 315.4 59.1 313.6 58.7 307.3 62.1 303.8 60.9 303.1 69.2 298.5 72.7 298.4 75.4 300.2 77.5 299.6 79.4 299.9 87.7 303.8 88.6 303.6 90.2 307.6 91.1 308.6 94 314.4 98.2 314.4 104 316.1 105.7 315.2 108.6 316.8 112 320.3 113.2 321.2 114.6"/><polygon id="washington" class="cls-2" points="86.1 51.7 86.1 54 88.4 54 88.4 57.4 84.7 62.6 83.8 65.4 80.5 66.8 78.8 72.9 81.1 74.4 80.1 76.1 78.8 78.4 76.8 87.4 73.9 101.2 8.6 84.2 8.6 79.6 9.6 76.9 8.6 73.1 11 70.9 11.6 68.1 13.2 66.9 15.2 64 25.7 36.7 26.5 32.6 33.1 36.4 34.3 42.5 37.8 45.4 45.3 45.4 49.4 47.3 67.8 47.3 86.1 51.7"/><polygon id="vermont" class="cls-2" points="487.4 86.4 480.6 87.7 478.7 83.9 478.7 80.3 477.3 77.1 476 77.1 476 74 474.4 72.1 474.4 69.8 475.4 68.1 472.5 60.3 489 56.6 489 59.6 490 61.6 489 64.7 486.5 66.5 486.5 68.7 487.7 70.7 487.5 73.1 486.5 75.3 486.5 82.2 487.4 86.4"/><polygon id="rhodeisland" class="cls-2" points="496.1 93.4 498.3 101.7 500.4 100.2 500.4 97.2 502 96.6 502.5 97.9 503.5 99 504.4 97.7 503 95 501.1 95 499.6 94.2 499.6 92.8 496.1 93.4"/><polygon id="pennsylvania" class="cls-2" points="418.5 127.4 421.2 138.9 465.1 131.4 466.1 128.7 468.8 129.7 471.1 127.4 471.9 125.4 474.5 123.4 472 120.4 470.5 120.4 470.4 119.1 468.2 119.1 469 114.6 467.8 112.9 469.9 111.5 470.7 107.7 468.6 107.2 463.9 101.7 422.2 109.4 422.2 106.5 420.6 107.9 419 108.3 417.3 110.2 415.6 111.5 418.5 127.4"/><polygon id="oregon" class="cls-2" points="26.5 32.6 33.1 36.4 34.3 42.5 37.8 45.4 45.3 45.4 49.4 47.3 53.1 47.3 60.8 47.3 67.8 47.3 78.3 49.8 86.1 51.7 86.1 47.3 87.5 41.1 89 34.4 90.7 26.6 92.9 18.3 92.9 14.4 65 8.2 46.5 2.3 46.7 6 48 6 46.7 9.8 48 16.5 43.7 23.7 41.9 23.7 42.7 20 43.9 17.5 43.3 13.4 41.2 13.4 39.2 10.9 38 11.8 28.6 5.6 27.7 8.7 28.6 13.4 27.7 17.6 28.9 19.6 27.7 23 29.2 23.7 30.3 24.9 28.4 24.9 27.7 26.8 29.3 28 27.7 31.2 26.5 31.2 26.5 32.6"/><polygon id="newyork" class="cls-2" points="492.7 107.2 490.2 108.4 486.5 110.5 484 111.5 482 112.9 480.8 111.9 482.3 110.2 481.2 108.8 482.6 107.3 483.3 105.6 481.9 104.8 481.2 96.8 480.6 97 480.6 87.7 478.7 83.9 478.7 80.3 477.3 77.1 476 77.1 476 74 474.4 72.1 474.4 69.8 475.4 68.1 472.5 60.3 460.5 63 453.5 70.4 452.4 73.7 448.9 77.3 449.4 78.8 450.8 79.9 451.2 82.8 450 84.9 447.8 86.8 445.5 88.5 439.6 90.9 437.3 89.3 428 91.3 427.2 94.7 429.3 97.4 428.5 100.3 426.1 103.1 422.2 106.5 422.2 109.4 463.9 101.7 468.6 107.2 471.9 107.9 478.5 110.9 479.8 112.9 479.3 116.2 482.4 115.8 486.5 113.4 487.8 112.6 492.5 110.6 494.8 107.2 492.7 107.2"/><polygon id="newmexico" class="cls-3" points="199.9 185.2 194 249.1 155.7 244.1 156.4 246.7 139.1 244.8 138.3 250.3 129.1 249.1 139.3 177.6 199.9 185.2"/><polygon id="newjersey" class="cls-2" points="470.7 107.7 478.5 110.9 479.8 112.9 479.3 116.2 478.4 118.3 480.3 118 481.4 118.9 481.4 128.1 477.9 135.5 476 137.4 475 135.8 472.3 134.4 470.3 132.7 468.8 130.5 468.8 129.7 471.1 127.4 471.9 125.4 474.5 123.4 472 120.4 470.5 120.4 470.4 119.1 468.2 119.1 469 114.6 467.8 112.9 469.9 111.5 470.7 107.7"/><polygon id="minnesota" class="cls-2" points="267 103.2 314.4 102 314.4 98.2 308.6 94 307.6 91.1 303.6 90.2 303.8 88.6 299.9 87.7 299.6 79.4 300.2 77.5 298.4 75.4 298.5 72.7 303.1 69.2 303.8 60.9 308.3 56.1 313.7 51.5 317.8 48.9 325.1 44.2 321.8 43.2 316.7 44 314 42.5 308.1 44.7 304.7 43.6 302.8 41.9 301.4 42.3 298.8 39.2 292.5 38.1 288.7 39 284.2 36.9 282.2 37.7 281 36.2 281 33.4 280.5 29.8 277.9 29.2 277.1 33 260.3 33.8 261.4 37.1 260.2 38.2 260.9 47.5 262.6 48.8 263.5 63.8 265.3 69.2 265.3 72.7 263 76.7 263 78.3 267 81.3 267 103.2"/><polygon id="michigan" class="cls-2" points="376.4 119.1 388.3 117.4 388.3 116.3 389.5 114.6 390.5 113.3 390.5 111 391.9 109.6 392.7 105.6 394.6 105.5 395.4 99.9 391.9 89.6 388.2 88.6 383.5 94.7 381 93.9 380.6 90.8 383.3 88.5 384.5 86.1 384.2 80.4 383.1 78.1 383 75.8 384.1 74.5 380.7 72.3 376.4 71.5 375.6 70 370.7 68.7 367.6 72.3 368.2 74.1 366 76.4 366 79.5 363.5 81.9 362 80.3 360.2 81.5 358.7 84.2 358.8 87.8 357.8 92 358.2 95.4 359.7 100.2 361.8 105.1 360.6 116.2 357.8 120.6 357.4 121.2 376.4 119.1"/><polygon id="massachusets" class="cls-2" points="480.6 87.7 480.6 97 496.1 93.4 499.6 92.8 499.6 94.2 501.1 95 503 95 504.4 97.7 506 95.5 508.4 94.6 509 95.9 510.6 94.6 513 93.8 513 91.3 511.4 88.1 509.9 89.6 510.7 91.1 510.7 92.8 508.7 93.2 506.8 92.1 504.8 89.4 501.4 88.8 503.3 83.5 502 80.8 500 81.4 498.6 83.7 480.6 87.7"/><polygon id="maryland" class="cls-2" points="431.8 144.1 437.9 137.9 440 138.9 441.9 137.3 446.4 136.4 448.6 139.6 450.1 139.6 452 141.1 452 142.5 454.1 142.5 456.5 144.6 454.8 148.4 454.5 151 456.5 151 457.6 150.4 459.1 151.8 460.3 150.8 462.8 150.8 462.8 149.5 460.7 144.3 460.7 137.8 463.7 133.9 464.9 134 464.8 136.7 463.3 139.8 464.4 142.5 465.6 148.7 467.9 149.4 469.5 149.4 469.6 152.4 472.3 151.8 472.2 154.2 471.2 157.3 471.2 161.1 473.1 157.6 474.5 151.6 476 149.1 476 144.9 469.7 146.1 465.1 131.4 430.1 137.3 431.8 144.1"/><polygon id="maine" class="cls-2" points="491.5 51 499 72.3 499 75 502.4 78.2 504.5 70.8 503.9 68.6 506 66.3 507.5 66.9 508.6 65.1 511.3 64.5 512.3 62.6 514 58.3 515.8 57.9 518.8 54.3 520.8 55.1 522.4 53.2 525.3 51.2 527.2 48.3 528.9 47.8 527.6 46.3 526.8 44.2 522.8 43.1 521.6 40.1 518.8 38.7 513.8 23.2 508.7 19.9 502.9 23.5 501 22.1 501.3 20.2 499.8 20.7 496.2 33.1 497 34.9 496 37.3 496.7 42.7 496 45.4 494.5 47.3 495.1 49.5 493.6 51.5 492.3 50.6 491.5 51"/><polygon id="iowa" class="cls-3" points="314.4 102 314.4 104 316.1 105.7 315.2 108.6 316.8 112 320.3 113.2 323 117.1 325.8 119.8 325.1 123.4 321.9 127.4 317.6 128.7 316.8 131.4 318.3 134.3 316.8 138 314.4 140.3 314.4 142.6 311.5 140.3 273.1 140.3 272.4 137.4 272.4 135.2 271 133.6 271 130.8 269.8 126.1 266.1 118.7 265.3 112 267 109.1 265 106.6 265 103.2 314.4 102"/><polygon id="indiana" class="cls-2" points="339.2 184.3 340 181.3 342.8 180 344.9 182.2 346.5 182.2 346.5 177.9 349.9 176.1 349.9 173.8 349.9 168.8 352.8 163.6 354.2 161.1 354.2 157.9 352 156.3 353.1 153.8 350.4 122.3 348.5 117.7 346.6 116.2 346.7 113.4 321.2 114.6 323 117.1 325.8 119.8 325.1 123.4 321.9 127.4 317.6 128.7 316.8 131.4 318.3 134.3 316.8 138 314.4 140.3 314.4 147.6 316.8 151.6 321.3 155.6 323 161.1 325.9 159.8 328.1 162 328.1 165.2 326.1 168.8 334.5 175.4 336 178.3 336 181.2 339.2 184.3"/><polygon id="delaware" class="cls-2" points="467.9 132.7 468.8 129.7 466.1 128.7 465.1 131.4 469.7 146.1 476 144.9 476 142.7 473.9 140.1 471.9 139 467.9 132.7"/><polygon id="connecticut" class="cls-2" points="496.1 93.4 498.3 101.7 495.5 103.1 490.5 104.3 487.4 105.6 484.7 107.6 482.3 110.2 481.2 108.8 482.6 107.3 483.3 105.6 481.9 104.8 481.2 96.8 496.1 93.4"/><path id="california" class="cls-2" d="M46.9,94.1l-9.6,38.4,41.4,60.9v3.8l.6,2.7,1.1,1v1.2l1.7.6v2.1l-1.9-.6-2.3,2.5-1.8,5-1.6,1.8H72.7l.2,1.4.2,1.6s1.3,2,1.6,2.5a6.05,6.05,0,0,1,0,1.9l-3,1.1-25.1-2.7-.7-9.8-6.3-8.8H37.1l.4-1.9-.7-2.2L32,195.3l-1.3-1.2-.9-2.8-6.5-3.1-3-.5-3.2-2.6,2-5.4-2-2.7.8-.9.1-2-1.8-1.2-2.8-6.3-.5-2.8-3-2.6,1.2-3.8,1.9-1.6v-2.2l-4.5-4.7v-5.8l1.8.1,2.2,1.3L11,137l-2,2.4-3-3.6.4-5-4.7-7L3,122l-1.3-1.9,1.2-3.6,1.8-2.2-3-9.2v-3l4.4-7,2.4-4V84L46.9,94.1Z"/><polygon id="whyoming" class="cls-3" points="129.4 112 127.3 123.6 193.9 132.4 197.9 81.3 135.4 74 129.4 112"/><polygon id="westvirginia" class="cls-3" points="430.1 137.3 431.8 144.1 437.9 137.9 440 138.9 441.9 137.3 446.4 136.4 448.6 139.6 448.6 142.2 446.8 142.5 443 139.5 441.9 141.9 442.1 143.5 441 144.1 440.9 146.2 438.6 148.8 436.6 148.2 435.5 153.9 434 154.6 431 152.2 429.5 160.4 427.6 166.4 425.2 167.9 422.2 168.7 422.2 171.2 418.5 172.2 416.9 171.2 415.6 173.4 410.8 171.2 410.8 169.2 406.9 167.9 403.2 163 403.7 159.1 406.5 154.6 406.5 151.1 409.8 151.1 409.8 148.8 411.6 144.9 414.1 144.9 417.1 141 417.1 139 418.5 134 415.6 132.1 417.1 130.6 417.1 129.1 418.5 127.4 421.2 138.9 430.1 137.3"/><path id="virginia" class="cls-3" d="M448.6,139.6h1.5l1.9,1.5v1.4h2.1l2.4,2.1-1.7,3.8-.2,2.6h2l1.1-.6,1.5,1.4,1.6,1.3,4,1.2.7,2-.1,2.4L467,161l-1.4,1.2v1.4l1,1.1-1.8.1.3,2.2,1.9.5,1.8-.8,2,.1,1.4,1.2.3,2.3-25,5.7s-34.8,5.1-34.8,4.8-16.4,1.7-16.4,1.7l5.8-3.2.8-2.4,1.4-.5,6.8-5.3,4.9,2.2,1.2-2.2,1.6,1.1,3.7-1.1v-2.4l3-.9,2.4-1.5,1.9-6,1.5-8.1,3,2.4,1.5-.8,1.1-5.6,2,.6,2.2-2.6.1-2.1,1.1-.6-.2-1.6,1.1-2.4,3.8,3,1.9-.2-.3-2.7Z"/><polygon id="utah" class="cls-3" points="101.4 106.6 89.3 169.9 139.3 177.6 146.2 126.1 127.3 123.6 129.4 112 101.4 106.6"/><polygon id="texas" class="cls-3" points="288.2 230.8 290.1 229.9 291.4 230.8 291.4 250.3 293.9 254.6 296.5 260.6 296.5 265.2 295.4 270.6 295.4 274.2 294.1 279.1 286.7 281 284.9 280.8 284.9 278.6 282 279.7 281.7 281.3 282.8 283.2 280.1 285.3 279.1 287.8 271.6 291.9 268.3 293.3 267.5 291.9 264 293.4 265.5 295.4 261.7 296.4 261.2 299.1 259.9 298.3 258.4 298.9 258.4 300.7 257.2 302.4 255.4 302.3 254.3 303.7 255.1 305.5 254.3 308.2 252.7 309.9 253.8 311.6 252.6 315.1 255.1 324 257.2 326 257.2 327.8 255.4 326.6 254.1 327.8 251 325.5 244.8 324.3 235.5 320.1 232.1 313.4 231 309.6 231 307 230.2 304.6 228.2 304.6 226.6 302.2 226.6 301 222.5 296.1 219.7 289.5 218.5 285.2 212.6 280.2 212.6 278.5 209.9 276.7 205.7 276.7 202.6 276 201.2 274.4 199.8 276.3 196.4 276.4 193.7 282.6 191.3 285.2 189.4 285.2 177 276.4 175 273.2 175.6 269.6 173.9 267.3 173.9 265.8 159.1 250.3 159.1 248.4 156.4 246.7 155.7 244.1 194 249.1 199.4 190.6 230.2 193.4 229 216 231.4 220.1 237.4 220.7 244.4 224.1 246.1 223.3 251.1 227.9 252.8 225.3 255.1 227 257.2 225.6 258.6 229.9 260.9 225.3 265.3 226.2 267 229.9 269 227.6 274 226.2 277.3 227 279.8 225.9 288.2 230.8"/><polygon id="tennessee" class="cls-3" points="412.5 180.8 412.5 185 410.8 186.2 409 188.5 407.1 188.5 405.5 190 403.2 190 401.2 192.6 399.6 194.6 396.1 197.2 391.4 198.5 390.5 200 388.5 203.1 388.5 205.2 330.4 210.5 331.5 209.3 332.7 202 334.8 197.2 337 190.6 350.9 188.7 350.9 186.4 353.6 187 407.8 181.2 412.5 180.8"/><polygon id="southdakota" class="cls-3" points="265.3 72.7 263 76.7 263 78.3 267 81.3 267 103.2 265 103.2 265 106.6 267 109.1 265.3 112 266.1 117.1 259.3 112 256.8 112 254 113.8 252.1 111 248.8 112 247.6 108.9 195.9 106.6 198.9 69.2 265.3 72.7"/><polygon id="southcarolina" class="cls-3" points="432.2 237.2 433.5 233.9 436.1 230.2 444 224.2 445.1 221.3 446.9 219.3 448.5 215 450.9 211.1 452.8 209.7 440.1 200.2 428.3 202 427.5 199.4 425.4 199.1 424.6 198.2 410.3 199.5 407.9 201.5 403.2 203.1 401.6 207.6 408.4 210.5 410.8 215.4 418.5 219 418.5 222.8 425.9 226.9 425.9 229.9 428.8 231.2 429 237 432.2 237.2"/><polygon id="oklahoma" class="cls-3" points="284.7 187 284.7 195.7 286.2 205.3 286.2 229.9 279.8 225.9 277.3 227 274 226.2 269 227.6 267 229.9 265.3 226.2 260.9 225.3 258.6 229.9 257.2 225.6 255.1 227 252.8 225.3 251.1 227.9 246.1 223.3 244.4 224.1 237.4 220.7 231.4 220.1 229 216 230.2 193.4 199.4 190.6 199.9 185.2 284.7 187"/><polygon id="ohio" class="cls-3" points="415.6 111.5 418.5 127.4 417.1 129.1 417.1 130.6 415.6 132.1 418.5 134 417.1 139 417.1 141 414.1 144.9 411.6 144.9 409.8 148.8 409.8 151.1 406.5 151.1 406.5 154.6 403.7 159.1 398.5 154.8 396.2 157 392.3 157 390.7 158.1 389 156.3 386.4 156.3 383.6 152.4 379.9 153.1 376.4 119.1 388.3 117.4 388.4 119.2 390.4 118.8 394.7 120.7 399.2 121.4 402.9 118.7 405 119.6 408.7 115 411 114.4 415.6 111.5"/><polygon id="northdakota" class="cls-3" points="198.9 69.2 265.3 72.7 265.3 69.2 263.3 63.2 262.6 48.8 260.9 47.5 260.2 38.2 261.4 37.1 260.3 33.8 216.2 32.5 202.2 31.2 198.9 69.2"/><polygon id="northcarolina" class="cls-3" points="389.1 205.1 403.2 203.1 407.9 201.5 410.3 199.5 424.6 198.2 425.4 199.1 427.5 199.4 428.3 202 440.1 200.2 452.8 209.7 453.7 208.9 457.6 208.2 459.2 206.8 460.3 202.8 465.6 196.3 470.3 194.3 472.5 192.6 472.5 191 470.2 192.4 466.7 193 465.5 191.3 467.6 191.2 469.1 190.1 469.9 187.9 468.7 186.3 469 184.8 470.6 184.2 471.2 185.4 472.5 185.8 474.3 184.8 476 182.8 476 178.4 474.6 178.9 473.7 180.4 471.9 178.4 467.7 179.8 466.8 178.5 473.8 174.5 473.8 172.6 472.3 170.4 448.6 175.6 413.1 180.9 412.5 180.8 412.5 185 410.8 186.2 409 188.5 407.1 188.5 405.5 190 403.2 190 399.6 194.6 396.1 197.2 391.4 198.5 388.5 203.1 388.5 205.2 389.1 205.1"/><polygon id="newhampshire" class="cls-3" points="489 56.6 489 59.6 490 61.6 489 64.7 486.5 66.5 486.5 68.7 487.7 70.7 487.5 73.1 486.5 75.3 486.5 82.2 487.4 86.4 498.6 83.7 500 81.4 502 80.8 502.4 78.2 499 75 499 72.3 491.5 51 490 51.8 488.8 54.3 489 56.6"/><polygon id="nevada" class="cls-3" points="101.4 106.6 73.8 101.1 46.9 94.1 37.3 132.5 78.7 193.4 80.1 189.1 79.2 188.5 80.2 183.2 79.6 180.6 80.3 179.3 83.7 179.3 84.4 181.1 86.1 181.8 89.3 169.9 101.4 106.6"/><polygon id="nebraska" class="cls-3" points="265.9 117 266.1 118.7 267.1 120.8 269.8 126.1 271 130.8 271 133.6 272.4 135.2 272.4 137.4 273.3 141.1 275.4 144.6 277.3 148.3 211.9 146.2 212.4 134.3 193.9 132.4 195.9 106.6 247.6 108.9 248.8 112 252.1 111 254 113.8 256.8 112 259.3 112 265.9 117"/><polygon id="montana" class="cls-3" points="197.9 81.3 202.2 31.2 169.4 27.5 114.2 19.2 100.9 16.2 99.1 28.4 100.9 33.5 100 36 103.2 40.6 105.7 46.3 109.9 48.6 107.7 55.9 107.7 57.8 105.7 61.4 108 62.8 110.9 60.5 112.6 61.8 112.6 66.9 114.1 69.8 113 71.9 115.7 73.1 116.6 78.4 119.7 78.4 123.3 77.5 127.5 78.4 130.6 78.4 132.1 76.3 134.3 80.8 135.4 74 197.9 81.3"/><polygon id="missouri" class="cls-3" points="273.1 140.3 311.5 140.3 314.4 142.6 314.4 147.6 316.8 151.6 321.3 155.6 323 161.1 325.9 159.8 328.1 162 328.1 165.4 326.1 168.8 334.8 175.6 336 178.3 336 181.2 339.2 184.3 340 188.7 337 190.6 334.8 197.2 328.1 197.2 331.2 194 329.8 190.6 284.7 192.5 284.7 161.1 279.1 155.6 280.9 151.1 277.3 148.3 273.1 140.3"/><polygon id="mississippi" class="cls-3" points="352.4 208.5 352.4 250.3 354.2 267.6 349.3 266.9 340.8 270.5 338.1 265.2 338.9 261.6 318.9 261.6 318.8 259.2 323 247 325 246 322 237 322.7 233.3 320 229.4 322.4 227.5 323.4 222.9 324.9 219.7 327.6 216.8 328 213 330.4 210.5 352.4 208.5"/><polygon id="louisiana" class="cls-3" points="291.4 237 322 237 323.5 241.5 325 246 323 247 321.5 251.7 318.8 259.2 318.9 261.6 338.9 261.6 338.1 265.2 340.8 270.5 335.8 269.2 333.3 269 332.1 271.2 333.3 273.2 337 272.3 339.1 272.7 340 274.8 345.1 271.5 346 273.6 344.6 274.1 341.7 277.3 340.8 278.9 348.5 283.5 344.6 285.3 344.1 283.6 339.6 281.6 338.9 280.3 336.8 280.2 336.2 283.5 335 284.3 334.1 282.6 331 283 329.4 284.9 325.6 283.6 323.6 280.8 320.8 280.2 319.1 277.6 316.8 277.1 315.9 276.2 313.7 277.2 313.7 279.9 302.2 277.3 294.1 279.1 295.4 274.2 295.4 270.6 296.5 265.2 296.5 260.6 293.9 254.6 291.4 250.3 291.4 237"/><polygon id="kentucky" class="cls-3" points="396.1 182.6 353.5 187 350.9 186.4 350.9 188.7 337 190.6 340 188.7 339.2 184.3 340 181.3 342.8 180 344.9 182.2 346.5 182.2 346.5 177.9 349.9 176.1 349.9 173.4 351.6 171.2 356.4 171.2 357.9 172.2 359.7 172.2 359.9 169.9 361.7 169.5 363.6 170.8 364.6 170.2 364.7 168.2 366.3 167 367.6 168.2 370.2 168.2 370.8 166.2 374.8 161.1 375.4 158.6 377.3 159 379.5 157.8 380.2 156.4 379.9 153.1 383.6 152.4 386.4 156.3 389 156.3 390.7 158.1 392.3 157 396.2 157 398.5 154.8 403.7 159.1 403.2 163 406.9 167.9 410.8 169.2 410.8 171.2 404 176.5 402.6 177 401.9 179.4 396.1 182.6"/><polygon id="kanasas" class="cls-3" points="277.3 148.3 280.9 151.1 279.1 155.6 281.3 157.5 284.7 161.1 284.7 187 210 185.4 211.9 146.2 277.3 148.3"/><polygon id="illinois" class="cls-3" points="357.4 121.2 376.4 119.1 380.2 156.4 379.5 157.8 377.3 159 375.4 158.6 374.8 161.1 370.8 166.2 370.2 168.2 367.6 168.2 366.3 167 364.7 168.2 364.6 170.2 363.6 170.8 361.7 169.5 359.9 169.9 359.7 172.2 357.9 172.2 356.4 171.2 351.6 171.2 349.9 173.4 349.9 168.8 354.2 161.1 354.2 157.9 352 156.3 353.1 153.8 350.4 122.3 353.5 123.7 357.4 121.2"/><polygon id="idaho" class="cls-3" points="100.9 16.2 99.1 28.4 100.9 33.5 100 36 103.2 40.6 105.7 46.3 109.9 48.6 107.7 55.9 107.7 57.8 105.7 61.4 108 62.8 110.9 60.5 112.6 61.8 112.6 66.9 114.1 69.8 113 71.9 115.7 73.1 116.6 78.4 119.7 78.4 123.3 77.5 127.5 78.4 130.6 78.4 132.1 76.3 134.3 80.8 129.4 112 73.8 101.1 78.8 78.4 81.1 74.4 78.8 72.9 80.5 66.8 83.8 65.4 84.7 62.6 88.4 57.4 88.4 54 86.1 54 86.1 51.7 86.1 47.3 89.4 32.6 90.9 25.3 92.9 18.3 92.9 14.4 100.9 16.2"/><g id="hawaii"><path class="cls-2" d="M133.4,294.6v2.6h4.9l.8-2.6-1.8-1.5c-.4-.3-3.9,1.5-3.9,1.5Z"/><path class="cls-2" d="M152.5,301c-.3.2,2.1-1.5,2.1-1.5l3.6,3.3v2.8h-4.8l-.9-4.6Z"/><polygon class="cls-2" points="163.5 306.4 163.5 308.5 165.6 308.5 167.9 308.5 169.1 310.4 170.4 307.6 163.5 306.4"/><polygon class="cls-2" points="165.6 311.5 166.9 313.8 166.9 315 169.4 313.2 166.9 310.4 165.6 311.5"/><path class="cls-2" d="M171.1,308.4v2.8h2l.8,2.6,3-1.1,1.5-1.6-2-1.4-2.8.6-2.5-1.9Z"/><polygon class="cls-2" points="180.4 318.4 180.4 320.7 178.3 324 179.4 329.2 180.4 333.2 182.9 334 185 331.2 190 329.4 192.9 328.8 192.9 327 190.6 326.2 189.5 323.5 185.6 320.2 182.7 319.4 180.4 318.4"/></g><polygon id="georgia" class="cls-3" points="390.5 256.6 392.3 259.2 420.4 257.9 423.5 261.1 423.5 253.4 428.9 254.4 428 247.2 429.5 242.4 432.2 237.2 429 237 428.8 231.2 425.9 229.9 425.9 226.9 418.5 222.8 418.5 219 410.8 215.4 408.4 210.5 401.6 207.6 403.2 203.1 388.5 205.2 378 206.1 386.6 237 388.5 238.7 388.5 240.7 387.3 246.4 389.4 250.3 388.5 253.4 390.5 256.6"/><polygon id="florida" class="cls-3" points="364.5 266.1 362.9 262.5 363.1 259.2 390.5 256.6 392.3 259.2 420.4 257.9 423.5 261.1 423.5 253.4 428.9 254.4 429.2 256.8 430.3 258.4 430.7 261.1 432.6 263.4 432.4 267.3 437 272.8 437.7 275.1 440.3 276.2 443.6 280.9 443.2 284 443.9 287.4 446.2 288.9 448.1 294.5 451.7 299.8 453.7 303.8 452.5 308 453.7 311.9 451.6 314.7 452.2 319 449.5 321 445.5 322.4 445.5 320.2 443.4 320 440.7 316.3 438.4 314.6 435 313.8 434.8 311.8 433.9 309.9 430.4 306 430.4 303.7 427.3 303.5 425.1 300.1 423 298 422.3 296.4 423.7 295 424.2 292.6 423.3 291.1 421.7 290.9 421.7 292.5 420.7 293.4 419.4 291.7 419.2 289.1 420.2 286.4 420.7 283.5 419.9 280.4 417.2 275.8 415.1 275.9 409.4 270.5 408.3 269.1 402.8 265.9 399.1 266.6 397.3 268.6 393.5 270.8 388.8 273.4 388.8 271.2 386 269.4 386.9 267.7 384.3 266.4 382.7 267.3 378.7 265.7 376.5 265.5 376.5 263.8 372.3 265.7 370.2 264.5 368 264.5 367 265.9 364.5 266.1"/><polygon id="colorado" class="cls-3" points="193.9 132.4 212.4 134.3 210 185.4 199.9 185.2 139.3 177.6 146.2 126.1 193.9 132.4"/><polygon id="arkanasas" class="cls-3" points="284.7 192.5 329.8 190.6 331.2 194 328.1 197.2 334.8 197.2 332.7 202 331.5 209.3 328 213 327.6 216.8 324.9 219.7 323.4 222.9 322.4 227.5 320 229.4 322.7 233.3 322 237 291.4 237 291.4 230.8 290.1 229.9 288.2 230.8 286.2 229.7 286.2 205.3 284.7 195.7 284.7 192.5"/><polygon id="arizona" class="cls-3" points="139.3 177.6 129.1 249.1 108 246.4 71.8 223.6 71.8 221.9 74.7 220.8 74.7 218.9 73.2 216.4 72.7 213.4 74.5 213.4 76.1 211.6 77.8 206.6 80.1 204.1 82 204.7 82 202.6 80.3 202 80.3 200.8 79.3 199.8 78.7 197.1 78.7 193.4 80.1 189.1 79.2 188.5 80.2 183.2 79.6 180.6 80.3 179.3 83.7 179.3 84.4 181.1 86.1 181.8 89.3 169.9 139.3 177.6"/><path id="alaska" class="cls-3" d="M77.6,256.5l4.8,5.7v46.2h5.7l4.8,5.7,5.2-3,9.6,13.1,7.8,3.7v5.9l-6.1,2.6-7.4-6.5-5.4-6.1-3.3-7.4-7-3.5-5.9-2.2-5-.6-4.8-4.5-6.2-.3v2.2l-1.7,2.3-7,2v-3l2.7-3.6,1.1-1.8L54.7,306l-4,3.5-3.3,2.8,1.7.8-10,8.3-6.2,2.1-6.6,2-5.9,1.8-5.5.5H12.3l2.8-2.1H18l4-1.4,2.8.1,2.8-1.9,8.8-4.3,1.5-3.7c.9-1.3,1.8-2.6,2.6-4-.4.2-5.4,1.6-5.4,1.6l-2.6-4s-4,.5-3.9.4a7.72,7.72,0,0,0-.2-1.5l1.4-1.6-1.1-3.2c-1.6-.4-3.2-.7-4.8-1-.2.1-1.9-3.2-1.9-3.2l1.2-2.5-1.4-4.7,5.4-3.4,1.8-2.1,2.7,2.7,2.7-2.7h3l.9-6.6-3.5,2.1s-5.1-1.7-5.3-1.7a35.84,35.84,0,0,1-2.9-2.6l.9-2.5-1.8-4.1,9.3-1.4-.5,4.1,4.3.7s1.4-5.5,1.1-5.6-3.2-1.5-3.2-1.5l-.7-4.9-2.2-2.7,1.5-2.2,3.8,1,2.3-1,1.6-3.2,7.3-3.4,3.8,1.2,1.2-1.2,6.9,2.7-.7,2.2,2.4.7,3.7-.7,7.3,3.5,2.7-1.7Z"/><polygon id="alabama" class="cls-3" points="352.4 208.5 378 206.1 386.6 237 388.5 238.7 388.5 240.7 387.3 246.4 389.4 250.3 388.5 253.4 390.5 256.6 363.1 259.2 362.9 262.5 364.5 266.1 362.9 267.8 360.8 267.7 359.5 265.7 358.9 262.3 356.7 267 355.2 266.1 354.2 267.6 352.4 250.3 352.4 208.5"/><path id="outline" class="cls-4" d="M46.7,3.1v3H48L46.7,9.9,48,16.6l-4.3,7.1H41.8l.8-3.6,1.2-2.6-.5-4.1H41.1l-2-1.7-1.1.1L28.7,5.6l-.9,3.1.9,4.6-.9,4.2,1.2,2L27.7,23l1.5.7,1.1,1.2H28.4l-.7,1.9L29.3,28l-.6,1.8-1.1,1.5H26.4v1.4l-.8,4L23.3,43l-1.8,4.9-1.8,4.7-2,4.6L16.3,61l-1.1,2.8-2,3L11.6,68,11,70.8,8.6,73l.9,3.8-.9,2.7V91.2s-2.6,3.5-2.4,4-4.5,7-4.5,7v3l3,9.2-1.8,2.1-1.2,3.6L3,122l-1.3,1.8L3.6,127l2.8,3.8-.4,5,1.3,1.9,1.5,1.8,2-2.4.7,3.9.8,3.6-2.2-1.4-1.8-.1v5.8l2.4,2.2,2,2.4v2.2l-1.9,1.6-1.2,3.8,3,2.6.5,2.7,1.2,3,1.6,3.4,1.8,1.2-.1,2-.8.9,2,2.7-2,5.4,3.2,2.6,3,.5,6.5,3.1,1,2.8,1.3,1.2,4.8,1.3,1,2.7-.5,1.4h2.6l3.2,3.8,3.1,5,.7,9.8,25,2.3v2.1l36.2,22.8,30.3,3.9.8-5.5,17.2,1.9,2.7,1.8v1.9l14.8,15.5v1.5l1.8,2.3-.7,3.6,1.6,2.8,12.8,9.2h1.9l2.4-2.6,2.7-6.2,3.4-.1,1.5-1.9,1.4,1.6,3.1.7h4.2l2.7,1.8v1.8l2.4,2.4,3.5,2.6,1.2,4.3,2.8,6.6,4,4.9v1.2l1.6,2.4h2l.8,2.4v2.6l1.1,3.8,3.4,6.7,9.3,4.2,6.2,1.2,3.1,2.3,1.3-1.2,1.7,1.2v-2l-2-2-2.5-8.9,1.2-3.5-1.1-1.8,1.6-1.6.8-2.7-.8-1.9,1.1-1.3,1.7.1,1.2-1.8V299l1.5-.7,1.4.8.5-2.7,1.6-.3,2.2-.7-1.5-2,3.5-1.5.8,1.3,3.2-1.3,4.7-2.6,2.8-1.6.9-2.4,2.7-2.2-1.1-1.9.3-1.6,1.9-.8,1.1-.3v2.2l1.8.3,5-1.3,10.4-2.4,11.8,2.7v-2.7l2.2-1.1.9.9,2.3.5,1.6,2.6,2.8.5,2,2.8,3.8,1.3,1.6-1.9,3.1-.4.9,1.6,1.2-.8.5-3.2,2-.1.8,1.5,4.5,2,.5,1.8,2-.9,1.9-1-7.7-4.6,1.1-1.9,2.7-2.8,1.3-.5-.8-2.2-5.1,3.4-.9-2.2-2-.4-3.8.9-1.2-2,1.2-2.2,2.6.1,5.8,1.5,2.8-1.6,4.9-2.2,2.6.3,2.3.4,1.1-1.5,1.5.9,2.2-4.7.7,3.4,1.2,2,2.2.1,1.6-1.8,2.4-.1,1.1-1.5h2.2l2,.7,4.3-1.3v1.8l2.1.1,4,1.6,1.6-.9,2.6,1.3-.9,1.8,2.8,1.8v2.2s4.9-3,4.7-2.6,3.8-2.2,3.8-2.2l2.1-2.4,3.4-.3,5.1,2.7,2.7,3.2,3.1,3,1.4,1.1,2.2-.1,1.2,2.3,1.5,2.3.8,3.1-.5,3-.9,2.7.1,2.6,1.4,1.8.9-.9V291l1.6.3.9,1.5-.5,2.4-1.3,1.4.7,1.6L425,300l1.3,2.3,1.1,1.5h1.4l1.8.1v2.3l1.8,2,1.8,1.9,1.1,2.4V314l3.4.8,2.3,1.8,1.5,2.2,1.2,1.5,2.1.3v2.2l4-1.3,2.7-2-.7-4.3,2.2-2.8-1.2-3.9,1.2-4.2-2-4-3.6-5.2-1.9-5.7-2.3-1.5-.7-3.4.4-3.1-3.4-4.7-2.5-1.1-.7-2.3-2.2-2.6-2.3-3,.1-3.9-1.9-2.2-.4-2.7-1.1-1.6-.7-4.8-.5-4.7,1.5-4.9,1.6-3.4,1.6-2.4.8-2.7,2.6-3.6,3.1-2.6,4.9-3.5,1.1-2.8,1.8-2,1.6-4.3,2.4-3.9,2.8-2.1,4.2-.8,1.3-1.4,1.1-4,2.6-3.4,2.7-3.1,1.8-.9,3-1.1,2.2-1.6v-1.6s-1.9,1.1-2.3,1.3c-1.1.3-2.3.5-3.5.7l-1.2-1.8,2.2-.1,1.5-1.1.8-2.1-1.2-1.6a4,4,0,0,1,.3-1.5c.3-.4,1.6-.7,1.6-.7l.7,1.2,1.2.4,1.9-.9,1.6-2V179l-1.3.5-.9,1.5-1.8-2-1.9.8-2.3.7-.9-1.3,1.9-1.2,2.7-1.6,2.4-1.2v-1.9l-1.5-2.2-.3-2.3-1.4-1.2-2-.1-1.8.8-1.9-.5-.3-2.1,1.8-.1-.9-1.1v-1.3l1.4-1.2-1.6-2.3.1-2.4-.7-2-2.3-1-1.8-.3-1.6-1.3,1.2-1.1h2.4a2.44,2.44,0,0,0,0-1.2c-.1-.4-.8-2.2-.8-2.2l-1.2-3.1v-6.5l1.4-2.1,1.6-1.8,1.2.1-.1,2.7-1.5,3.1,1.1,2.7.7,3.2.5,3,2.3.7h1.6l.1,3,2.7-.5-.1,2.4-.9,3.1v3.6l1.9-3.5.8-3.1.5-3,1.5-2.4v-6.5l-2-2.6-2-1.1-1.4-2.3-1.3-2.2-1.4-1.9.8-2.4,1.5,2.3L473,135l2.7,1.3.9,1.6,1.9-1.9,1.9-3.8,1.6-3.6v-9.2l-1.1-.9-1.9.3.9-2,3.1-.4,2.8-1.6,2.6-1.6,4.7-2,2.3-3.4h-2.2a9,9,0,0,0-2.4,1.2,24.3,24.3,0,0,1-3.5,2l-2.7,1.1-2,1.4-1.2-.9,1.5-1.8,2.4-2.6,2.7-2,3.1-1.3,5-1.2,3.2-1.6,1.6-1.2v-3l1.6-.7.5,1.3.9,1.1,2.6-3.5,2.4-.9.5,1.4,1.6-1.4,2.4-.8V92l-1.6-3.2-1.5,1.5.8,1.5v1.8s-1.6.3-2,.4-1.9-1.1-1.9-1.1l-2-2.7-3.4-.7,1.1-3.5a14.17,14.17,0,0,0,.8-1.8c-.3.4-1.3-2.7-1.3-2.7l.4-2.6,1.2-4.3,1-3.1-.7-2.3,2.2-2.3,1.5.7,1.1-1.9,2.7-.5,1.1-1.9.7-2.3.9-2,1.9-.4,1.6-1.9,1.3-1.8,2,.8,1.6-1.9,2.8-2,1.9-2.8,1.8-.5s-.9-1.6-1.3-1.5-.8-2.1-.8-2.1l-2-.5-1.9-.5-1.2-3s-2.4-1.6-2.8-1.5-2.6-7.1-2.6-7.1l-2.5-8.4-5.1-3.2-5.8,3.6-1.9-1.4.3-1.9-1.5.5-3.6,12.4.8,1.8-.9,2.4c.3,1.8.5,3.6.7,5.4-.1.4-.7,2.7-.7,2.7l-1.5,1.9.5,2.3-1.5,1.9-1.3-.8-2.3,1.2-1.2,2.4.3,2.3L460.5,63l-7,7.4-1.1,3.2s-3.2,3.2-3.5,3.6.5,1.5.5,1.5l1.4,1.1.4,3-1.2,2a20,20,0,0,0-2.2,1.9,20.28,20.28,0,0,1-2.3,1.8l-5.9,2.4-2.3-1.6-4.5.8-4.9,1.2-.8,3.4,2.2,2.7-.7,2.7-2.6,3-5.5,4.9-1.6.4-2,2.3-2.8,1.9-3.1,1.9-2.3.7-3.8,4.6-2-.9-3.8,2.7-4.5-.7-4.3-1.9-2,.4-.1-2.4,1.2-2.2,1.1-1.4V111l1.3-1.3s1.1-4.4.8-4,1.9-.1,1.9-.1l.8-5.5L392,89.7l-3.6-.9-5,6.3L381,94l-.4-3.1,2.7-2.3s1.5-2,1.2-2.4-.3-5.7-.3-5.7l-1.1-2.4-.1-2.3,1.1-1.4-3.4-2.1-4.3-.8-.8-1.5-4.8-1.3-3.1,3.6.5,1.8-2.1,2.3v3.1l-2.6,2.4s-1.6-1.2-1.5-1.6-1.8,1.2-1.8,1.2l-1.5,2.7s.3,3.6,0,4.1a23.39,23.39,0,0,0-.9,3.8l.4,3.4,1.5,4.9,2.1,4.9-.4,5.8-.8,5.4-3.2,5-3.9,2.4-3.4-1.5-1.6-4.4-1.9-1.5s.1-3.6,0-4-2-10.2-2-10.2,1.6-3.6,1.3-3.6-.4-4.3-.4-4.7a19.82,19.82,0,0,1,1.9-3.1l.1-4.2,1.4-2.3,1.5-3.6.7-3.1-1.6,1.9-1.6,2.7-2.4,1.8-2,3-1.2-.4.8-3.1,2.1-2.7,1.4-2,1.4-3.8,1.5-2.6.4-3.4,1.5-.1.3,1.9,1.4-1.8h1.5l.1,1.8,1.4-.5.7-2.2s4-.4,3.8-.3a12.09,12.09,0,0,1,1.6-1.6l2.3-1.2,4.6.4,1.4,1.5,1.2-1.9h2.8l2.6.1,3.4-1.5L376,62.1l-3.4-1.4-4.4.4-.8-2.3V56.6a25.94,25.94,0,0,1-4,1.5c-.4-.1-4.5,1-4.9.8s-3.1,1.6-3.1,1.6a13,13,0,0,1-2.3,1.8c-.5.1-2.8,0-3-.3s-3,.1-3,.1l-3.5-2.8-3-1.1h-2.7l-1.5.5.8-3.2,1-2.4,3.1-2.3-3.9-.4-1.9,3-2.3,1.4-2.4,2.4L328,58.7l-2.9.9-1.6,1.6a11.87,11.87,0,0,1-2.3,1.6c-.4,0-3.4-.7-3.4-.7l-3.1,1.1-.1-2.7,1.1-1.2-1.8-.4-3.4,1.8-3,1.6L304,61.1l5.1-5.4s5.1-4,4.9-4,4-2.6,4-2.6l2.7-1.9,4.6-2.8a19.16,19.16,0,0,0-3.2-.9c-.4,0-5.1.8-5.1.8l-2.7-1.5L308.4,45l-3.2-1.1-1.9-1.8-1.5.4a38.76,38.76,0,0,0-2.6-3.1,60,60,0,0,0-6.3-1.1s-3.8,1.2-3.8.9-4.4-2.2-4.4-2.2l-2,.8-1.2-1.5.1-2-.7-4.4-2.6-.5-.8,3.8-16.9.8-44-1.4-14.9-1.3-32.5-3.6-54.7-8.3L86.4,13.1,64.3,8,46.5,3.2Z"/><text class="cls-5" transform="translate(453.7 259.2)">2004
    </text>
</svg>