<svg id="Swingstates" data-name="Layer 1" xmlns="http://www.w3.org/2000/svg" viewBox="0 0 528.04 334.42">
    <defs>
        <style>.swingStates-1{fill:#afafaf;}.swingStates-1,.swingStates-2,.swingStates-3{stroke:#fff;stroke-miterlimit:10;stroke-width:0.25px;}.swingStates-2{fill:#0d2436;}.swingStates-2,.swingStates-3{opacity:0.9;isolation:isolate;}.swingStates-3{fill:#5f1a16;}
        </style>
    </defs>
    <polygon id="wisconsin" class="swingStates-1" points="319.65 112.47 345.15 111.27 345.05 110.07 343.05 99.87 344.45 96.17 343.95 91.47 345.85 88.37 346.05 84.17 347.15 82.17 348.85 78.27 349.55 75.17 347.95 77.07 346.25 79.77 343.85 81.47 341.85 84.47 340.65 84.07 341.45 80.97 344.95 76.27 346.25 72.47 347.75 69.97 348.15 66.57 349.65 66.47 349.95 68.27 351.25 66.57 352.75 66.57 352.85 68.27 354.25 67.77 354.95 65.67 358.65 65.37 359.95 64.07 362.55 62.47 367.15 62.97 368.55 64.37 369.75 62.47 375.15 62.67 378.45 61.17 370.75 58.17 366.25 58.57 365.45 56.37 365.45 54.17 361.35 55.67 356.55 56.47 353.45 58.07 351.15 59.87 348.15 59.57 345.25 59.67 341.65 56.87 338.75 55.77 336.05 55.77 334.55 56.37 335.35 53.07 336.35 50.67 339.45 48.37 335.45 47.97 333.65 50.97 331.35 52.27 328.95 54.67 323.25 57.27 319.35 60.47 315.95 59.87 312.85 60.87 312.75 58.17 313.85 56.97 312.05 56.57 305.75 59.97 302.25 58.77 301.55 67.07 296.95 70.57 296.85 73.27 298.65 75.37 298.05 77.27 298.35 85.57 302.25 86.47 302.05 88.07 306.05 88.97 307.05 91.87 312.85 96.07 312.85 101.87 314.55 103.57 313.65 106.47 315.25 109.87 318.75 111.07 319.65 112.47"/>
    <polygon id="pennsylvania" class="swingStates-2" points="416.95 125.27 419.65 136.77 463.55 129.27 464.55 126.57 467.25 127.57 469.55 125.27 470.35 123.27 472.95 121.27 470.45 118.27 468.95 118.27 468.85 116.97 466.65 116.97 467.45 112.47 466.25 110.77 468.35 109.37 469.15 105.57 467.05 105.07 462.35 99.57 420.65 107.27 420.65 104.37 419.05 105.77 417.45 106.17 415.75 108.07 414.05 109.37 416.95 125.27"/>
    <polygon id="michigan" class="swingStates-2" points="374.85 116.97 386.75 115.27 386.75 114.17 387.95 112.47 388.95 111.17 388.95 108.87 390.35 107.47 391.15 103.47 393.05 103.37 393.85 97.77 390.35 87.47 386.65 86.47 381.95 92.57 379.45 91.77 379.05 88.67 381.75 86.37 382.95 83.97 382.65 78.27 381.55 75.97 381.45 73.67 382.55 72.37 379.15 70.17 374.85 69.37 374.05 67.87 369.15 66.57 366.05 70.17 366.65 71.97 364.45 74.27 364.45 77.37 361.95 79.77 360.45 78.17 358.65 79.37 357.15 82.07 357.25 85.67 356.25 89.87 356.65 93.27 358.15 98.07 360.25 102.97 359.05 114.07 356.25 118.47 355.85 119.07 374.85 116.97"/>
    <polygon id="maine" class="swingStates-1" points="489.95 48.87 497.45 70.17 497.45 72.87 500.85 76.07 502.95 68.67 502.35 66.47 504.45 64.17 505.95 64.77 507.05 62.97 509.75 62.37 510.75 60.47 512.45 56.17 514.25 55.77 517.25 52.17 519.25 52.97 520.85 51.07 523.75 49.07 525.65 46.17 527.35 45.67 526.05 44.17 525.25 42.07 521.25 40.97 520.05 37.97 517.25 36.57 512.25 21.07 507.15 17.77 501.35 21.37 499.45 19.97 499.75 18.07 498.25 18.57 494.65 30.97 495.45 32.77 494.45 35.17 495.15 40.57 494.45 43.27 492.95 45.17 493.55 47.37 492.05 49.37 490.75 48.47 489.95 48.87"/>
    <polygon id="iowa" class="swingStates-3" points="312.85 99.87 312.85 101.87 314.55 103.57 313.65 106.47 315.25 109.87 318.75 111.07 321.45 114.97 324.25 117.67 323.55 121.27 320.35 125.27 316.05 126.57 315.25 129.27 316.75 132.17 315.25 135.87 312.85 138.17 312.85 140.47 309.95 138.17 271.55 138.17 270.85 135.27 270.85 133.07 269.45 131.47 269.45 128.67 268.25 123.97 264.55 116.57 263.75 109.87 265.45 106.97 263.45 104.47 263.45 101.07 312.85 99.87"/>
    <polygon id="texas" class="swingStates-3" points="286.65 228.67 288.55 227.77 289.85 228.67 289.85 248.17 292.35 252.47 294.95 258.47 294.95 263.07 293.85 268.47 293.85 272.07 292.55 276.97 285.15 278.87 283.35 278.67 283.35 276.47 280.45 277.57 280.15 279.17 281.25 281.07 278.55 283.17 277.55 285.67 270.05 289.77 266.75 291.17 265.95 289.77 262.45 291.27 263.95 293.27 260.15 294.27 259.65 296.97 258.35 296.17 256.85 296.77 256.85 298.57 255.65 300.27 253.85 300.17 252.75 301.57 253.55 303.37 252.75 306.07 251.15 307.77 252.25 309.47 251.05 312.97 253.55 321.87 255.65 323.87 255.65 325.67 253.85 324.47 252.55 325.67 249.45 323.37 243.25 322.17 233.95 317.97 230.55 311.27 229.45 307.47 229.45 304.87 228.65 302.47 226.65 302.47 225.05 300.07 225.05 298.87 220.95 293.97 218.15 287.37 216.95 283.07 211.05 278.07 211.05 276.37 208.35 274.57 204.15 274.57 201.05 273.87 199.65 272.27 198.25 274.17 194.85 274.27 192.15 280.47 189.75 283.07 187.85 283.07 175.45 274.27 173.45 271.07 174.05 267.47 172.35 265.17 172.35 263.67 157.55 248.17 157.55 246.27 154.85 244.57 154.15 241.97 192.45 246.97 197.85 188.47 228.65 191.27 227.45 213.87 229.85 217.97 235.85 218.57 242.85 221.97 244.55 221.17 249.55 225.77 251.25 223.17 253.55 224.87 255.65 223.47 257.05 227.77 259.35 223.17 263.75 224.07 265.45 227.77 267.45 225.47 272.45 224.07 275.75 224.87 278.25 223.77 286.65 228.67"/>
    <polygon id="ohio" class="swingStates-1" points="414.05 109.37 416.95 125.27 415.55 126.97 415.55 128.47 414.05 129.97 416.95 131.87 415.55 136.87 415.55 138.87 412.55 142.77 410.05 142.77 408.25 146.67 408.25 148.97 404.95 148.97 404.95 152.47 402.15 156.97 396.95 152.67 394.65 154.87 390.75 154.87 389.15 155.97 387.45 154.17 384.85 154.17 382.05 150.27 378.35 150.97 374.85 116.97 386.75 115.27 386.85 117.07 388.85 116.67 393.15 118.57 397.65 119.27 401.35 116.57 403.45 117.47 407.15 112.87 409.45 112.27 414.05 109.37"/>
    <polygon id="northcarolina" class="swingStates-3" points="387.55 202.97 401.65 200.97 406.35 199.37 408.75 197.37 423.05 196.07 423.85 196.97 425.95 197.27 426.75 199.87 438.55 198.07 451.25 207.57 452.15 206.77 456.05 206.07 457.65 204.67 458.75 200.67 464.05 194.17 468.75 192.17 470.95 190.47 470.95 188.87 468.65 190.27 465.15 190.87 463.95 189.17 466.05 189.07 467.55 187.97 468.35 185.77 467.15 184.17 467.45 182.67 469.05 182.07 469.65 183.27 470.95 183.67 472.75 182.67 474.45 180.67 474.45 176.27 473.05 176.77 472.15 178.27 470.35 176.27 466.15 177.67 465.25 176.37 472.25 172.37 472.25 170.47 470.75 168.27 447.05 173.47 411.55 178.77 410.95 178.67 410.95 182.87 409.25 184.07 407.45 186.37 405.55 186.37 403.95 187.87 401.65 187.87 398.05 192.47 394.55 195.07 389.85 196.37 386.95 200.97 386.95 203.07 387.55 202.97"/>
    <polygon id="georgia" class="swingStates-3" points="388.95 254.47 390.75 257.07 418.85 255.77 421.95 258.97 421.95 251.27 427.35 252.27 426.45 245.07 427.95 240.27 430.65 235.07 427.45 234.87 427.25 229.07 424.35 227.77 424.35 224.77 416.95 220.67 416.95 216.87 409.25 213.27 406.85 208.37 400.05 205.47 401.65 200.97 386.95 203.07 376.45 203.97 385.05 234.87 386.95 236.57 386.95 238.57 385.75 244.27 387.85 248.17 386.95 251.27 388.95 254.47"/>
    <polygon id="florida" class="swingStates-1" points="362.95 263.97 361.35 260.37 361.55 257.07 388.95 254.47 390.75 257.07 418.85 255.77 421.95 258.97 421.95 251.27 427.35 252.27 427.65 254.67 428.75 256.27 429.15 258.97 431.05 261.27 430.85 265.17 435.45 270.67 436.15 272.97 438.75 274.07 442.05 278.77 441.65 281.87 442.35 285.27 444.65 286.77 446.55 292.37 450.15 297.67 452.15 301.67 450.95 305.87 452.15 309.77 450.05 312.57 450.65 316.87 447.95 318.87 443.95 320.27 443.95 318.07 441.85 317.87 439.15 314.17 436.85 312.47 433.45 311.67 433.25 309.67 432.35 307.77 428.85 303.87 428.85 301.57 425.75 301.37 423.55 297.97 421.45 295.87 420.75 294.27 422.15 292.87 422.65 290.47 421.75 288.97 420.15 288.77 420.15 290.37 419.15 291.27 417.85 289.57 417.65 286.97 418.65 284.27 419.15 281.37 418.35 278.27 415.65 273.67 413.55 273.77 407.85 268.37 406.75 266.97 401.25 263.77 397.55 264.47 395.75 266.47 391.95 268.67 387.25 271.27 387.25 269.07 384.45 267.27 385.35 265.57 382.75 264.27 381.15 265.17 377.15 263.57 374.95 263.37 374.95 261.67 370.75 263.57 368.65 262.37 366.45 262.37 365.45 263.77 362.95 263.97"/>
    <polygon id="colorado" class="swingStates-1" points="192.35 130.27 210.85 132.17 208.45 183.27 198.35 183.07 137.75 175.47 144.65 123.97 192.35 130.27"/>
    <polygon id="arizona" class="swingStates-3" points="137.75 175.47 127.55 246.97 106.45 244.27 70.25 221.47 70.25 219.77 73.15 218.67 73.15 216.77 71.65 214.27 71.15 211.27 72.95 211.27 74.55 209.47 76.25 204.47 78.55 201.97 80.45 202.57 80.45 200.47 78.75 199.87 78.75 198.67 77.75 197.67 77.15 194.97 77.15 191.27 78.55 186.97 77.65 186.37 78.65 181.07 78.05 178.47 78.75 177.17 82.15 177.17 82.85 178.97 84.55 179.67 87.75 167.77 137.75 175.47"/>
</svg>