<svg id="Layer_1" data-name="Layer 1" xmlns="http://www.w3.org/2000/svg" viewBox="0 0 528.04 334.42"><defs><style>.cls-1{fill:#afafaf;}.cls-1,.cls-2,.cls-3,.cls-4{stroke:#fff;stroke-miterlimit:10;stroke-width:0.25px;}.cls-2{fill:#2b3990;}.cls-3{fill:#d33945;}.cls-4{fill:none;}.cls-5{font-size:20px;font-family:Numans-Regular, Numans;}</style></defs><polygon id="wisconsin" class="cls-1" points="319.65 112.47 345.15 111.27 345.05 110.07 343.05 99.87 344.45 96.17 343.95 91.47 345.85 88.37 346.05 84.17 347.15 82.17 348.85 78.27 349.55 75.17 347.95 77.07 346.25 79.77 343.85 81.47 341.85 84.47 340.65 84.07 341.45 80.97 344.95 76.27 346.25 72.47 347.75 69.97 348.15 66.57 349.65 66.47 349.95 68.27 351.25 66.57 352.75 66.57 352.85 68.27 354.25 67.77 354.95 65.67 358.65 65.37 359.95 64.07 362.55 62.47 367.15 62.97 368.55 64.37 369.75 62.47 375.15 62.67 378.45 61.17 370.75 58.17 366.25 58.57 365.45 56.37 365.45 54.17 361.35 55.67 356.55 56.47 353.45 58.07 351.15 59.87 348.15 59.57 345.25 59.67 341.65 56.87 338.75 55.77 336.05 55.77 334.55 56.37 335.35 53.07 336.35 50.67 339.45 48.37 335.45 47.97 333.65 50.97 331.35 52.27 328.95 54.67 323.25 57.27 319.35 60.47 315.95 59.87 312.85 60.87 312.75 58.17 313.85 56.97 312.05 56.57 305.75 59.97 302.25 58.77 301.55 67.07 296.95 70.57 296.85 73.27 298.65 75.37 298.05 77.27 298.35 85.57 302.25 86.47 302.05 88.07 306.05 88.97 307.05 91.87 312.85 96.07 312.85 101.87 314.55 103.57 313.65 106.47 315.25 109.87 318.75 111.07 319.65 112.47"/><polygon id="washington" class="cls-2" points="84.55 49.57 84.55 51.87 86.85 51.87 86.85 55.27 83.15 60.47 82.25 63.27 78.95 64.67 77.25 70.77 79.55 72.27 78.55 73.97 77.25 76.27 75.25 85.27 72.35 99.07 7.05 82.07 7.05 77.47 8.05 74.77 7.05 70.97 9.45 68.77 10.05 65.97 11.65 64.77 13.65 61.87 24.15 34.57 24.95 30.47 31.55 34.27 32.75 40.37 36.25 43.27 43.75 43.27 47.85 45.17 66.25 45.17 84.55 49.57"/><polygon id="vermont" class="cls-1" points="485.85 84.27 479.05 85.57 477.15 81.77 477.15 78.17 475.75 74.97 474.45 74.97 474.45 71.87 472.85 69.97 472.85 67.67 473.85 65.97 470.95 58.17 487.45 54.47 487.45 57.47 488.45 59.47 487.45 62.57 484.95 64.37 484.95 66.57 486.15 68.57 485.95 70.97 484.95 73.17 484.95 80.07 485.85 84.27"/><polygon id="rhodeisland" class="cls-2" points="494.55 91.27 496.75 99.57 498.85 98.07 498.85 95.07 500.45 94.47 500.95 95.77 501.95 96.87 502.85 95.57 501.45 92.87 499.55 92.87 498.05 92.07 498.05 90.67 494.55 91.27"/><polygon id="pennsylvania" class="cls-2" points="416.95 125.27 419.65 136.77 463.55 129.27 464.55 126.57 467.25 127.57 469.55 125.27 470.35 123.27 472.95 121.27 470.45 118.27 468.95 118.27 468.85 116.97 466.65 116.97 467.45 112.47 466.25 110.77 468.35 109.37 469.15 105.57 467.05 105.07 462.35 99.57 420.65 107.27 420.65 104.37 419.05 105.77 417.45 106.17 415.75 108.07 414.05 109.37 416.95 125.27"/><polygon id="oregon" class="cls-2" points="24.95 30.47 31.55 34.27 32.75 40.37 36.25 43.27 43.75 43.27 47.85 45.17 51.55 45.17 59.25 45.17 66.25 45.17 76.75 47.67 84.55 49.57 84.55 45.17 85.95 38.97 87.45 32.27 89.15 24.47 91.35 16.17 91.35 12.27 63.45 6.07 44.95 0.17 45.15 3.87 46.45 3.87 45.15 7.67 46.45 14.37 42.15 21.57 40.35 21.57 41.15 17.87 42.35 15.37 41.75 11.27 39.65 11.27 37.65 8.77 36.45 9.67 27.05 3.47 26.15 6.57 27.05 11.27 26.15 15.47 27.35 17.47 26.15 20.87 27.65 21.57 28.75 22.77 26.85 22.77 26.15 24.67 27.75 25.87 26.15 29.07 24.95 29.07 24.95 30.47"/><polygon id="newyork" class="cls-2" points="491.15 105.07 488.65 106.27 484.95 108.37 482.45 109.37 480.45 110.77 479.25 109.77 480.75 108.07 479.65 106.67 481.05 105.17 481.75 103.47 480.35 102.67 479.65 94.67 479.05 94.87 479.05 85.57 477.15 81.77 477.15 78.17 475.75 74.97 474.45 74.97 474.45 71.87 472.85 69.97 472.85 67.67 473.85 65.97 470.95 58.17 458.95 60.87 451.95 68.27 450.85 71.57 447.35 75.17 447.85 76.67 449.25 77.77 449.65 80.67 448.45 82.77 446.25 84.67 443.95 86.37 438.05 88.77 435.75 87.17 426.45 89.17 425.65 92.57 427.75 95.27 426.95 98.17 424.55 100.97 420.65 104.37 420.65 107.27 462.35 99.57 467.05 105.07 470.35 105.77 476.95 108.77 478.25 110.77 477.75 114.07 480.85 113.67 484.95 111.27 486.25 110.47 490.95 108.47 493.25 105.07 491.15 105.07"/><polygon id="newmexico" class="cls-2" points="198.35 183.07 192.45 246.97 154.15 241.97 154.85 244.57 137.55 242.67 136.75 248.17 127.55 246.97 137.75 175.47 198.35 183.07"/><polygon id="newjersey" class="cls-2" points="469.15 105.57 476.95 108.77 478.25 110.77 477.75 114.07 476.85 116.17 478.75 115.87 479.85 116.77 479.85 125.97 476.35 133.37 474.45 135.27 473.45 133.67 470.75 132.27 468.75 130.57 467.25 128.37 467.25 127.57 469.55 125.27 470.35 123.27 472.95 121.27 470.45 118.27 468.95 118.27 468.85 116.97 466.65 116.97 467.45 112.47 466.25 110.77 468.35 109.37 469.15 105.57"/><polygon id="minnesota" class="cls-2" points="265.45 101.07 312.85 99.87 312.85 96.07 307.05 91.87 306.05 88.97 302.05 88.07 302.25 86.47 298.35 85.57 298.05 77.27 298.65 75.37 296.85 73.27 296.95 70.57 301.55 67.07 302.25 58.77 306.75 53.97 312.15 49.37 316.25 46.77 323.55 42.07 320.25 41.07 315.15 41.87 312.45 40.37 306.55 42.57 303.15 41.47 301.25 39.77 299.85 40.17 297.25 37.07 290.95 35.97 287.15 36.87 282.65 34.77 280.65 35.57 279.45 34.07 279.45 31.27 278.95 27.67 276.35 27.07 275.55 30.87 258.75 31.67 259.85 34.97 258.65 36.07 259.35 45.37 261.05 46.67 261.95 61.67 263.75 67.07 263.75 70.57 261.45 74.57 261.45 76.17 265.45 79.17 265.45 101.07"/><polygon id="michigan" class="cls-2" points="374.85 116.97 386.75 115.27 386.75 114.17 387.95 112.47 388.95 111.17 388.95 108.87 390.35 107.47 391.15 103.47 393.05 103.37 393.85 97.77 390.35 87.47 386.65 86.47 381.95 92.57 379.45 91.77 379.05 88.67 381.75 86.37 382.95 83.97 382.65 78.27 381.55 75.97 381.45 73.67 382.55 72.37 379.15 70.17 374.85 69.37 374.05 67.87 369.15 66.57 366.05 70.17 366.65 71.97 364.45 74.27 364.45 77.37 361.95 79.77 360.45 78.17 358.65 79.37 357.15 82.07 357.25 85.67 356.25 89.87 356.65 93.27 358.15 98.07 360.25 102.97 359.05 114.07 356.25 118.47 355.85 119.07 374.85 116.97"/><polygon id="massachusets" class="cls-2" points="479.05 85.57 479.05 94.87 494.55 91.27 498.05 90.67 498.05 92.07 499.55 92.87 501.45 92.87 502.85 95.57 504.45 93.37 506.85 92.47 507.45 93.77 509.05 92.47 511.45 91.67 511.45 89.17 509.85 85.97 508.35 87.47 509.15 88.97 509.15 90.67 507.15 91.07 505.25 89.97 503.25 87.27 499.85 86.67 501.75 81.37 500.45 78.67 498.45 79.27 497.05 81.57 479.05 85.57"/><polygon id="maryland" class="cls-2" points="430.25 141.97 436.35 135.77 438.45 136.77 440.35 135.17 444.85 134.27 447.05 137.47 448.55 137.47 450.45 138.97 450.45 140.37 452.55 140.37 454.95 142.47 453.25 146.27 452.95 148.87 454.95 148.87 456.05 148.27 457.55 149.67 458.75 148.67 461.25 148.67 461.25 147.37 459.15 142.17 459.15 135.67 462.15 131.77 463.35 131.87 463.25 134.57 461.75 137.67 462.85 140.37 464.05 146.57 466.35 147.27 467.95 147.27 468.05 150.27 470.75 149.67 470.65 152.07 469.65 155.17 469.65 158.97 471.55 155.47 472.95 149.47 474.45 146.97 474.45 142.77 468.15 143.97 463.55 129.27 428.55 135.17 430.25 141.97"/><polygon id="maine" class="cls-1" points="489.95 48.87 497.45 70.17 497.45 72.87 500.85 76.07 502.95 68.67 502.35 66.47 504.45 64.17 505.95 64.77 507.05 62.97 509.75 62.37 510.75 60.47 512.45 56.17 514.25 55.77 517.25 52.17 519.25 52.97 520.85 51.07 523.75 49.07 525.65 46.17 527.35 45.67 526.05 44.17 525.25 42.07 521.25 40.97 520.05 37.97 517.25 36.57 512.25 21.07 507.15 17.77 501.35 21.37 499.45 19.97 499.75 18.07 498.25 18.57 494.65 30.97 495.45 32.77 494.45 35.17 495.15 40.57 494.45 43.27 492.95 45.17 493.55 47.37 492.05 49.37 490.75 48.47 489.95 48.87"/><polygon id="iowa" class="cls-3" points="312.85 99.87 312.85 101.87 314.55 103.57 313.65 106.47 315.25 109.87 318.75 111.07 321.45 114.97 324.25 117.67 323.55 121.27 320.35 125.27 316.05 126.57 315.25 129.27 316.75 132.17 315.25 135.87 312.85 138.17 312.85 140.47 309.95 138.17 271.55 138.17 270.85 135.27 270.85 133.07 269.45 131.47 269.45 128.67 268.25 123.97 264.55 116.57 263.75 109.87 265.45 106.97 263.45 104.47 263.45 101.07 312.85 99.87"/><polygon id="indiana" class="cls-2" points="337.65 182.17 338.45 179.17 341.25 177.87 343.35 180.07 344.95 180.07 344.95 175.77 348.35 173.97 348.35 171.67 348.35 166.67 351.25 161.47 352.65 158.97 352.65 155.77 350.45 154.17 351.55 151.67 348.85 120.17 346.95 115.57 345.05 114.07 345.15 111.27 319.65 112.47 321.45 114.97 324.25 117.67 323.55 121.27 320.35 125.27 316.05 126.57 315.25 129.27 316.75 132.17 315.25 135.87 312.85 138.17 312.85 145.47 315.25 149.47 319.75 153.47 321.45 158.97 324.35 157.67 326.55 159.87 326.55 163.07 324.55 166.67 332.95 173.27 334.45 176.17 334.45 179.07 337.65 182.17"/><polygon id="delaware" class="cls-2" points="466.35 130.57 467.25 127.57 464.55 126.57 463.55 129.27 468.15 143.97 474.45 142.77 474.45 140.57 472.35 137.97 470.35 136.87 466.35 130.57"/><polygon id="connecticut" class="cls-2" points="494.55 91.27 496.75 99.57 493.95 100.97 488.95 102.17 485.85 103.47 483.15 105.47 480.75 108.07 479.65 106.67 481.05 105.17 481.75 103.47 480.35 102.67 479.65 94.67 494.55 91.27"/><path id="california" class="cls-2" d="M45.35,92l-9.6,38.4,41.4,60.9v3.8l.6,2.7,1.1,1V200l1.7.6v2.1l-1.9-.6-2.3,2.5-1.8,5-1.6,1.8h-1.8l.2,1.4.2,1.6s1.3,2,1.6,2.5a6.05,6.05,0,0,1,0,1.9l-3,1.1-25.1-2.7-.7-9.8-6.3-8.8h-2.5l.4-1.9-.7-2.2-4.8-1.3-1.3-1.2-.9-2.8-6.5-3.1-3-.5-3.2-2.6,2-5.4-2-2.7.8-.9.1-2-1.8-1.2-2.8-6.3-.5-2.8-3-2.6,1.2-3.8,1.9-1.6v-2.2L7,146.77V141l1.8.1,2.2,1.3-1.5-7.5-2,2.4-3-3.6.4-5-4.7-7,1.3-1.8L.15,118l1.2-3.6,1.8-2.2-3-9.2v-3l4.4-7L7,89v-7.1L45.35,92Z"/><polygon id="whyoming" class="cls-3" points="127.85 109.87 125.75 121.47 192.35 130.27 196.35 79.17 133.85 71.87 127.85 109.87"/><polygon id="westvirginia" class="cls-1" points="428.55 135.17 430.25 141.97 436.35 135.77 438.45 136.77 440.35 135.17 444.85 134.27 447.05 137.47 447.05 140.07 445.25 140.37 441.45 137.37 440.35 139.77 440.55 141.37 439.45 141.97 439.35 144.07 437.05 146.67 435.05 146.07 433.95 151.77 432.45 152.47 429.45 150.07 427.95 158.27 426.05 164.27 423.65 165.77 420.65 166.57 420.65 169.07 416.95 170.07 415.35 169.07 414.05 171.27 409.25 169.07 409.25 167.07 405.35 165.77 401.65 160.87 402.15 156.97 404.95 152.47 404.95 148.97 408.25 148.97 408.25 146.67 410.05 142.77 412.55 142.77 415.55 138.87 415.55 136.87 416.95 131.87 414.05 129.97 415.55 128.47 415.55 126.97 416.95 125.27 419.65 136.77 428.55 135.17"/><path id="virginia" class="cls-2" d="M447.05,137.47h1.5l1.9,1.5v1.4h2.1l2.4,2.1-1.7,3.8-.2,2.6h2l1.1-.6,1.5,1.4,1.6,1.3,4,1.2.7,2-.1,2.4,1.6,2.3-1.4,1.2v1.4l1,1.1-1.8.1.3,2.2,1.9.5,1.8-.8,2,.1,1.4,1.2.3,2.3-25,5.7s-34.8,5.1-34.8,4.8-16.4,1.7-16.4,1.7l5.8-3.2.8-2.4,1.4-.5,6.8-5.3,4.9,2.2,1.2-2.2,1.6,1.1L421,169v-2.4l3-.9,2.4-1.5,1.9-6,1.5-8.1,3,2.4,1.5-.8,1.1-5.6,2,.6,2.2-2.6.1-2.1,1.1-.6-.2-1.6,1.1-2.4,3.8,3,1.9-.2-.3-2.7Z"/><polygon id="utah" class="cls-3" points="99.85 104.47 87.75 167.77 137.75 175.47 144.65 123.97 125.75 121.47 127.85 109.87 99.85 104.47"/><polygon id="texas" class="cls-3" points="286.65 228.67 288.55 227.77 289.85 228.67 289.85 248.17 292.35 252.47 294.95 258.47 294.95 263.07 293.85 268.47 293.85 272.07 292.55 276.97 285.15 278.87 283.35 278.67 283.35 276.47 280.45 277.57 280.15 279.17 281.25 281.07 278.55 283.17 277.55 285.67 270.05 289.77 266.75 291.17 265.95 289.77 262.45 291.27 263.95 293.27 260.15 294.27 259.65 296.97 258.35 296.17 256.85 296.77 256.85 298.57 255.65 300.27 253.85 300.17 252.75 301.57 253.55 303.37 252.75 306.07 251.15 307.77 252.25 309.47 251.05 312.97 253.55 321.87 255.65 323.87 255.65 325.67 253.85 324.47 252.55 325.67 249.45 323.37 243.25 322.17 233.95 317.97 230.55 311.27 229.45 307.47 229.45 304.87 228.65 302.47 226.65 302.47 225.05 300.07 225.05 298.87 220.95 293.97 218.15 287.37 216.95 283.07 211.05 278.07 211.05 276.37 208.35 274.57 204.15 274.57 201.05 273.87 199.65 272.27 198.25 274.17 194.85 274.27 192.15 280.47 189.75 283.07 187.85 283.07 175.45 274.27 173.45 271.07 174.05 267.47 172.35 265.17 172.35 263.67 157.55 248.17 157.55 246.27 154.85 244.57 154.15 241.97 192.45 246.97 197.85 188.47 228.65 191.27 227.45 213.87 229.85 217.97 235.85 218.57 242.85 221.97 244.55 221.17 249.55 225.77 251.25 223.17 253.55 224.87 255.65 223.47 257.05 227.77 259.35 223.17 263.75 224.07 265.45 227.77 267.45 225.47 272.45 224.07 275.75 224.87 278.25 223.77 286.65 228.67"/><polygon id="tennessee" class="cls-3" points="410.95 178.67 410.95 182.87 409.25 184.07 407.45 186.37 405.55 186.37 403.95 187.87 401.65 187.87 399.65 190.47 398.05 192.47 394.55 195.07 389.85 196.37 388.95 197.87 386.95 200.97 386.95 203.07 328.85 208.37 329.95 207.17 331.15 199.87 333.25 195.07 335.45 188.47 349.35 186.57 349.35 184.27 352.05 184.87 406.25 179.07 410.95 178.67"/><polygon id="southdakota" class="cls-3" points="263.75 70.57 261.45 74.57 261.45 76.17 265.45 79.17 265.45 101.07 263.45 101.07 263.45 104.47 265.45 106.97 263.75 109.87 264.55 114.97 257.75 109.87 255.25 109.87 252.45 111.67 250.55 108.87 247.25 109.87 246.05 106.77 194.35 104.47 197.35 67.07 263.75 70.57"/><polygon id="southcarolina" class="cls-3" points="430.65 235.07 431.95 231.77 434.55 228.07 442.45 222.07 443.55 219.17 445.35 217.17 446.95 212.87 449.35 208.97 451.25 207.57 438.55 198.07 426.75 199.87 425.95 197.27 423.85 196.97 423.05 196.07 408.75 197.37 406.35 199.37 401.65 200.97 400.05 205.47 406.85 208.37 409.25 213.27 416.95 216.87 416.95 220.67 424.35 224.77 424.35 227.77 427.25 229.07 427.45 234.87 430.65 235.07"/><polygon id="oklahoma" class="cls-3" points="283.15 184.87 283.15 193.57 284.65 203.17 284.65 227.77 278.25 223.77 275.75 224.87 272.45 224.07 267.45 225.47 265.45 227.77 263.75 224.07 259.35 223.17 257.05 227.77 255.65 223.47 253.55 224.87 251.25 223.17 249.55 225.77 244.55 221.17 242.85 221.97 235.85 218.57 229.85 217.97 227.45 213.87 228.65 191.27 197.85 188.47 198.35 183.07 283.15 184.87"/><polygon id="ohio" class="cls-1" points="414.05 109.37 416.95 125.27 415.55 126.97 415.55 128.47 414.05 129.97 416.95 131.87 415.55 136.87 415.55 138.87 412.55 142.77 410.05 142.77 408.25 146.67 408.25 148.97 404.95 148.97 404.95 152.47 402.15 156.97 396.95 152.67 394.65 154.87 390.75 154.87 389.15 155.97 387.45 154.17 384.85 154.17 382.05 150.27 378.35 150.97 374.85 116.97 386.75 115.27 386.85 117.07 388.85 116.67 393.15 118.57 397.65 119.27 401.35 116.57 403.45 117.47 407.15 112.87 409.45 112.27 414.05 109.37"/><polygon id="northdakota" class="cls-1" points="197.35 67.07 263.75 70.57 263.75 67.07 261.75 61.07 261.05 46.67 259.35 45.37 258.65 36.07 259.85 34.97 258.75 31.67 214.65 30.37 200.65 29.07 197.35 67.07"/><polygon id="northcarolina" class="cls-3" points="387.55 202.97 401.65 200.97 406.35 199.37 408.75 197.37 423.05 196.07 423.85 196.97 425.95 197.27 426.75 199.87 438.55 198.07 451.25 207.57 452.15 206.77 456.05 206.07 457.65 204.67 458.75 200.67 464.05 194.17 468.75 192.17 470.95 190.47 470.95 188.87 468.65 190.27 465.15 190.87 463.95 189.17 466.05 189.07 467.55 187.97 468.35 185.77 467.15 184.17 467.45 182.67 469.05 182.07 469.65 183.27 470.95 183.67 472.75 182.67 474.45 180.67 474.45 176.27 473.05 176.77 472.15 178.27 470.35 176.27 466.15 177.67 465.25 176.37 472.25 172.37 472.25 170.47 470.75 168.27 447.05 173.47 411.55 178.77 410.95 178.67 410.95 182.87 409.25 184.07 407.45 186.37 405.55 186.37 403.95 187.87 401.65 187.87 398.05 192.47 394.55 195.07 389.85 196.37 386.95 200.97 386.95 203.07 387.55 202.97"/><polygon id="newhampshire" class="cls-2" points="487.45 54.47 487.45 57.47 488.45 59.47 487.45 62.57 484.95 64.37 484.95 66.57 486.15 68.57 485.95 70.97 484.95 73.17 484.95 80.07 485.85 84.27 497.05 81.57 498.45 79.27 500.45 78.67 500.85 76.07 497.45 72.87 497.45 70.17 489.95 48.87 488.45 49.67 487.25 52.17 487.45 54.47"/><polygon id="nevada" class="cls-1" points="99.85 104.47 72.25 98.97 45.35 91.97 35.75 130.37 77.15 191.27 78.55 186.97 77.65 186.37 78.65 181.07 78.05 178.47 78.75 177.17 82.15 177.17 82.85 178.97 84.55 179.67 87.75 167.77 99.85 104.47"/><polygon id="nebraska" class="cls-3" points="264.35 114.87 264.55 116.57 265.55 118.67 268.25 123.97 269.45 128.67 269.45 131.47 270.85 133.07 270.85 135.27 271.75 138.97 273.85 142.47 275.75 146.17 210.35 144.07 210.85 132.17 192.35 130.27 194.35 104.47 246.05 106.77 247.25 109.87 250.55 108.87 252.45 111.67 255.25 109.87 257.75 109.87 264.35 114.87"/><polygon id="montana" class="cls-1" points="196.35 79.17 200.65 29.07 167.85 25.37 112.65 17.07 99.35 14.07 97.55 26.27 99.35 31.37 98.45 33.87 101.65 38.47 104.15 44.17 108.35 46.47 106.15 53.77 106.15 55.67 104.15 59.27 106.45 60.67 109.35 58.37 111.05 59.67 111.05 64.77 112.55 67.67 111.45 69.77 114.15 70.97 115.05 76.27 118.15 76.27 121.75 75.37 125.95 76.27 129.05 76.27 130.55 74.17 132.75 78.67 133.85 71.87 196.35 79.17"/><polygon id="missouri" class="cls-3" points="271.55 138.17 309.95 138.17 312.85 140.47 312.85 145.47 315.25 149.47 319.75 153.47 321.45 158.97 324.35 157.67 326.55 159.87 326.55 163.27 324.55 166.67 333.25 173.47 334.45 176.17 334.45 179.07 337.65 182.17 338.45 186.57 335.45 188.47 333.25 195.07 326.55 195.07 329.65 191.87 328.25 188.47 283.15 190.37 283.15 158.97 277.55 153.47 279.35 148.97 275.75 146.17 271.55 138.17"/><polygon id="mississippi" class="cls-3" points="350.85 206.37 350.85 248.17 352.65 265.47 347.75 264.77 339.25 268.37 336.55 263.07 337.35 259.47 317.35 259.47 317.25 257.07 321.45 244.87 323.45 243.87 320.45 234.87 321.15 231.17 318.45 227.27 320.85 225.37 321.85 220.77 323.35 217.57 326.05 214.67 326.45 210.87 328.85 208.37 350.85 206.37"/><polygon id="louisiana" class="cls-3" points="289.85 234.87 320.45 234.87 321.95 239.37 323.45 243.87 321.45 244.87 319.95 249.57 317.25 257.07 317.35 259.47 337.35 259.47 336.55 263.07 339.25 268.37 334.25 267.07 331.75 266.87 330.55 269.07 331.75 271.07 335.45 270.17 337.55 270.57 338.45 272.67 343.55 269.37 344.45 271.47 343.05 271.97 340.15 275.17 339.25 276.77 346.95 281.37 343.05 283.17 342.55 281.47 338.05 279.47 337.35 278.17 335.25 278.07 334.65 281.37 333.45 282.17 332.55 280.47 329.45 280.87 327.85 282.77 324.05 281.47 322.05 278.67 319.25 278.07 317.55 275.47 315.25 274.97 314.35 274.07 312.15 275.07 312.15 277.77 300.65 275.17 292.55 276.97 293.85 272.07 293.85 268.47 294.95 263.07 294.95 258.47 292.35 252.47 289.85 248.17 289.85 234.87"/><polygon id="kentucky" class="cls-3" points="394.55 180.47 351.95 184.87 349.35 184.27 349.35 186.57 335.45 188.47 338.45 186.57 337.65 182.17 338.45 179.17 341.25 177.87 343.35 180.07 344.95 180.07 344.95 175.77 348.35 173.97 348.35 171.27 350.05 169.07 354.85 169.07 356.35 170.07 358.15 170.07 358.35 167.77 360.15 167.37 362.05 168.67 363.05 168.07 363.15 166.07 364.75 164.87 366.05 166.07 368.65 166.07 369.25 164.07 373.25 158.97 373.85 156.47 375.75 156.87 377.95 155.67 378.65 154.27 378.35 150.97 382.05 150.27 384.85 154.17 387.45 154.17 389.15 155.97 390.75 154.87 394.65 154.87 396.95 152.67 402.15 156.97 401.65 160.87 405.35 165.77 409.25 167.07 409.25 169.07 402.45 174.37 401.05 174.87 400.35 177.27 394.55 180.47"/><polygon id="kanasas" class="cls-3" points="275.75 146.17 279.35 148.97 277.55 153.47 279.75 155.37 283.15 158.97 283.15 184.87 208.45 183.27 210.35 144.07 275.75 146.17"/><polygon id="illinois" class="cls-1" points="355.85 119.07 374.85 116.97 378.65 154.27 377.95 155.67 375.75 156.87 373.85 156.47 373.25 158.97 369.25 164.07 368.65 166.07 366.05 166.07 364.75 164.87 363.15 166.07 363.05 168.07 362.05 168.67 360.15 167.37 358.35 167.77 358.15 170.07 356.35 170.07 354.85 169.07 350.05 169.07 348.35 171.27 348.35 166.67 352.65 158.97 352.65 155.77 350.45 154.17 351.55 151.67 348.85 120.17 351.95 121.57 355.85 119.07"/><polygon id="idaho" class="cls-3" points="99.35 14.07 97.55 26.27 99.35 31.37 98.45 33.87 101.65 38.47 104.15 44.17 108.35 46.47 106.15 53.77 106.15 55.67 104.15 59.27 106.45 60.67 109.35 58.37 111.05 59.67 111.05 64.77 112.55 67.67 111.45 69.77 114.15 70.97 115.05 76.27 118.15 76.27 121.75 75.37 125.95 76.27 129.05 76.27 130.55 74.17 132.75 78.67 127.85 109.87 72.25 98.97 77.25 76.27 79.55 72.27 77.25 70.77 78.95 64.67 82.25 63.27 83.15 60.47 86.85 55.27 86.85 51.87 84.55 51.87 84.55 49.57 84.55 45.17 87.85 30.47 89.35 23.17 91.35 16.17 91.35 12.27 99.35 14.07"/><g id="hawaii"><path class="cls-2" d="M131.85,292.47v2.6h4.9l.8-2.6-1.8-1.5c-.4-.3-3.9,1.5-3.9,1.5Z"/><path class="cls-2" d="M151,298.87c-.3.2,2.1-1.5,2.1-1.5l3.6,3.3v2.8h-4.8l-.9-4.6Z"/><polygon class="cls-2" points="161.95 304.27 161.95 306.37 164.05 306.37 166.35 306.37 167.55 308.27 168.85 305.47 161.95 304.27"/><polygon class="cls-2" points="164.05 309.37 165.35 311.67 165.35 312.87 167.85 311.07 165.35 308.27 164.05 309.37"/><path class="cls-2" d="M169.55,306.27v2.8h2l.8,2.6,3-1.1,1.5-1.6-2-1.4-2.8.6-2.5-1.9Z"/><polygon class="cls-2" points="178.85 316.27 178.85 318.57 176.75 321.87 177.85 327.07 178.85 331.07 181.35 331.87 183.45 329.07 188.45 327.27 191.35 326.67 191.35 324.87 189.05 324.07 187.95 321.37 184.05 318.07 181.15 317.27 178.85 316.27"/></g><polygon id="georgia" class="cls-3" points="388.95 254.47 390.75 257.07 418.85 255.77 421.95 258.97 421.95 251.27 427.35 252.27 426.45 245.07 427.95 240.27 430.65 235.07 427.45 234.87 427.25 229.07 424.35 227.77 424.35 224.77 416.95 220.67 416.95 216.87 409.25 213.27 406.85 208.37 400.05 205.47 401.65 200.97 386.95 203.07 376.45 203.97 385.05 234.87 386.95 236.57 386.95 238.57 385.75 244.27 387.85 248.17 386.95 251.27 388.95 254.47"/><polygon id="florida" class="cls-1" points="362.95 263.97 361.35 260.37 361.55 257.07 388.95 254.47 390.75 257.07 418.85 255.77 421.95 258.97 421.95 251.27 427.35 252.27 427.65 254.67 428.75 256.27 429.15 258.97 431.05 261.27 430.85 265.17 435.45 270.67 436.15 272.97 438.75 274.07 442.05 278.77 441.65 281.87 442.35 285.27 444.65 286.77 446.55 292.37 450.15 297.67 452.15 301.67 450.95 305.87 452.15 309.77 450.05 312.57 450.65 316.87 447.95 318.87 443.95 320.27 443.95 318.07 441.85 317.87 439.15 314.17 436.85 312.47 433.45 311.67 433.25 309.67 432.35 307.77 428.85 303.87 428.85 301.57 425.75 301.37 423.55 297.97 421.45 295.87 420.75 294.27 422.15 292.87 422.65 290.47 421.75 288.97 420.15 288.77 420.15 290.37 419.15 291.27 417.85 289.57 417.65 286.97 418.65 284.27 419.15 281.37 418.35 278.27 415.65 273.67 413.55 273.77 407.85 268.37 406.75 266.97 401.25 263.77 397.55 264.47 395.75 266.47 391.95 268.67 387.25 271.27 387.25 269.07 384.45 267.27 385.35 265.57 382.75 264.27 381.15 265.17 377.15 263.57 374.95 263.37 374.95 261.67 370.75 263.57 368.65 262.37 366.45 262.37 365.45 263.77 362.95 263.97"/><polygon id="colorado" class="cls-1" points="192.35 130.27 210.85 132.17 208.45 183.27 198.35 183.07 137.75 175.47 144.65 123.97 192.35 130.27"/><polygon id="arkanasas" class="cls-3" points="283.15 190.37 328.25 188.47 329.65 191.87 326.55 195.07 333.25 195.07 331.15 199.87 329.95 207.17 326.45 210.87 326.05 214.67 323.35 217.57 321.85 220.77 320.85 225.37 318.45 227.27 321.15 231.17 320.45 234.87 289.85 234.87 289.85 228.67 288.55 227.77 286.65 228.67 284.65 227.57 284.65 203.17 283.15 193.57 283.15 190.37"/><polygon id="arizona" class="cls-3" points="137.75 175.47 127.55 246.97 106.45 244.27 70.25 221.47 70.25 219.77 73.15 218.67 73.15 216.77 71.65 214.27 71.15 211.27 72.95 211.27 74.55 209.47 76.25 204.47 78.55 201.97 80.45 202.57 80.45 200.47 78.75 199.87 78.75 198.67 77.75 197.67 77.15 194.97 77.15 191.27 78.55 186.97 77.65 186.37 78.65 181.07 78.05 178.47 78.75 177.17 82.15 177.17 82.85 178.97 84.55 179.67 87.75 167.77 137.75 175.47"/><path id="alaska" class="cls-3" d="M76.05,254.37l4.8,5.7v46.2h5.7l4.8,5.7,5.2-3,9.6,13.1,7.8,3.7v5.9l-6.1,2.6-7.4-6.5-5.4-6.1-3.3-7.4-7-3.5-5.9-2.2-5-.6-4.8-4.5-6.2-.3v2.2l-1.7,2.3-7,2v-3l2.7-3.6,1.1-1.8-4.8,2.6-4,3.5-3.3,2.8,1.7.8-10,8.3-6.2,2.1-6.6,2-5.9,1.8-5.5.5h-2.6l2.8-2.1h2.9l4-1.4,2.8.1,2.8-1.9,8.8-4.3,1.5-3.7c.9-1.3,1.8-2.6,2.6-4-.4.2-5.4,1.6-5.4,1.6L31,306s-4,.5-3.9.4a7.72,7.72,0,0,0-.2-1.5l1.4-1.6-1.1-3.2c-1.6-.4-3.2-.7-4.8-1-.2.1-1.9-3.2-1.9-3.2l1.2-2.5-1.4-4.7,5.4-3.4,1.8-2.1,2.7,2.7,2.7-2.7h3l.9-6.6-3.5,2.1S28.15,277,28,277a35.84,35.84,0,0,1-2.9-2.6l.9-2.5-1.8-4.1,9.3-1.4-.5,4.1,4.3.7s1.4-5.5,1.1-5.6-3.2-1.5-3.2-1.5l-.7-4.9-2.2-2.7,1.5-2.2,3.8,1,2.3-1,1.6-3.2,7.3-3.4,3.8,1.2,1.2-1.2,6.9,2.7-.7,2.2,2.4.7,3.7-.7,7.3,3.5,2.7-1.7Z"/><polygon id="alabama" class="cls-1" points="350.85 206.37 376.45 203.97 385.05 234.87 386.95 236.57 386.95 238.57 385.75 244.27 387.85 248.17 386.95 251.27 388.95 254.47 361.55 257.07 361.35 260.37 362.95 263.97 361.35 265.67 359.25 265.57 357.95 263.57 357.35 260.17 355.15 264.87 353.65 263.97 352.65 265.47 350.85 248.17 350.85 206.37"/><path id="outline" class="cls-4" d="M45.15,1V4h1.3l-1.3,3.8,1.3,6.7-4.3,7.1h-1.9l.8-3.6,1.2-2.6-.5-4.1h-2.2l-2-1.7-1.1.1-9.3-6.2-.9,3.1.9,4.6-.9,4.2,1.2,2-1.3,3.5,1.5.7,1.1,1.2h-1.9l-.7,1.9,1.6,1.2-.6,1.8-1.1,1.5h-1.2v1.4l-.8,4-2.3,6.3L20,45.77l-1.8,4.7-2,4.6-1.4,3.8-1.1,2.8-2,3-1.6,1.2-.6,2.8-2.4,2.2.9,3.8-.9,2.7v11.7s-2.6,3.5-2.4,4-4.5,7-4.5,7v3l3,9.2-1.8,2.1L.15,118l1.3,1.9-1.3,1.8,1.9,3.2,2.8,3.8-.4,5,1.3,1.9,1.5,1.8,2-2.4.7,3.9.8,3.6-2.2-1.4-1.8-.1v5.8l2.4,2.2,2,2.4v2.2l-1.9,1.6L8.05,159l3,2.6.5,2.7,1.2,3,1.6,3.4,1.8,1.2-.1,2-.8.9,2,2.7-2,5.4,3.2,2.6,3,.5,6.5,3.1,1,2.8,1.3,1.2,4.8,1.3,1,2.7-.5,1.4h2.6l3.2,3.8,3.1,5,.7,9.8,25,2.3v2.1l36.2,22.8,30.3,3.9.8-5.5,17.2,1.9,2.7,1.8v1.9l14.8,15.5v1.5l1.8,2.3-.7,3.6,1.6,2.8,12.8,9.2h1.9l2.4-2.6,2.7-6.2,3.4-.1,1.5-1.9L201,274l3.1.7h4.2l2.7,1.8v1.8l2.4,2.4,3.5,2.6,1.2,4.3,2.8,6.6,4,4.9v1.2l1.6,2.4h2l.8,2.4v2.6l1.1,3.8,3.4,6.7,9.3,4.2,6.2,1.2,3.1,2.3,1.3-1.2,1.7,1.2v-2l-2-2-2.5-8.9,1.2-3.5-1.1-1.8,1.6-1.6.8-2.7-.8-1.9,1.1-1.3,1.7.1,1.2-1.8v-1.6l1.5-.7,1.4.8.5-2.7,1.6-.3,2.2-.7-1.5-2,3.5-1.5.8,1.3,3.2-1.3,4.7-2.6,2.8-1.6.9-2.4,2.7-2.2-1.1-1.9.3-1.6,1.9-.8,1.1-.3v2.2l1.8.3,5-1.3,10.4-2.4,11.8,2.7v-2.7l2.2-1.1.9.9,2.3.5,1.6,2.6,2.8.5,2,2.8,3.8,1.3,1.6-1.9,3.1-.4.9,1.6,1.2-.8.5-3.2,2-.1.8,1.5,4.5,2,.5,1.8,2-.9,1.9-1-7.7-4.6,1.1-1.9,2.7-2.8,1.3-.5-.8-2.2-5.1,3.4-.9-2.2-2-.4-3.8.9-1.2-2,1.2-2.2,2.6.1,5.8,1.5,2.8-1.6,4.9-2.2,2.6.3,2.3.4,1.1-1.5,1.5.9,2.2-4.7.7,3.4,1.2,2,2.2.1,1.6-1.8,2.4-.1,1.1-1.5h2.2l2,.7,4.3-1.3v1.8l2.1.1,4,1.6,1.6-.9,2.6,1.3-.9,1.8,2.8,1.8v2.2s4.9-3,4.7-2.6,3.8-2.2,3.8-2.2l2.1-2.4,3.4-.3,5.1,2.7,2.7,3.2,3.1,3,1.4,1.1,2.2-.1,1.2,2.3,1.5,2.3.8,3.1-.5,3-.9,2.7.1,2.6,1.4,1.8.9-.9v-1.6l1.6.3.9,1.5-.5,2.4-1.3,1.4.7,1.6,1.9,1.8,1.3,2.3,1.1,1.5h1.4l1.8.1v2.3l1.8,2,1.8,1.9,1.1,2.4v1.5l3.4.8,2.3,1.8,1.5,2.2,1.2,1.5,2.1.3v2.2l4-1.3,2.7-2-.7-4.3,2.2-2.8-1.2-3.9,1.2-4.2-2-4-3.6-5.2-1.9-5.7-2.3-1.5-.7-3.4.4-3.1-3.4-4.7-2.5-1.1-.7-2.3-2.2-2.6-2.3-3,.1-3.9-1.9-2.2-.4-2.7-1.1-1.6-.7-4.8-.5-4.7,1.5-4.9,1.6-3.4,1.6-2.4.8-2.7,2.6-3.6,3.1-2.6,4.9-3.5,1.1-2.8,1.8-2,1.6-4.3,2.4-3.9,2.8-2.1,4.2-.8,1.3-1.4,1.1-4,2.6-3.4,2.7-3.1,1.8-.9,3-1.1,2.2-1.6v-1.6s-1.9,1.1-2.3,1.3c-1.1.3-2.3.5-3.5.7l-1.2-1.8,2.2-.1,1.5-1.1.8-2.1-1.2-1.6a4,4,0,0,1,.3-1.5c.3-.4,1.6-.7,1.6-.7l.7,1.2,1.2.4,1.9-.9,1.6-2v-4.5l-1.3.5-.9,1.5-1.8-2-1.9.8-2.3.7-.9-1.3,1.9-1.2,2.7-1.6,2.4-1.2v-1.9l-1.5-2.2-.3-2.3-1.4-1.2-2-.1-1.8.8-1.9-.5-.3-2.1,1.8-.1-.9-1.1v-1.3l1.4-1.2-1.6-2.3.1-2.4-.7-2-2.3-1-1.8-.3-1.6-1.3,1.2-1.1h2.4a2.44,2.44,0,0,0,0-1.2c-.1-.4-.8-2.2-.8-2.2l-1.2-3.1v-6.5l1.4-2.1,1.6-1.8,1.2.1-.1,2.7-1.5,3.1,1.1,2.7.7,3.2.5,3,2.3.7h1.6l.1,3,2.7-.5-.1,2.4-.9,3.1v3.6l1.9-3.5.8-3.1.5-3,1.5-2.4v-6.5l-2-2.6-2-1.1-1.4-2.3-1.3-2.2-1.4-1.9.8-2.4,1.5,2.3,2.2,1.9,2.7,1.3.9,1.6,1.9-1.9,1.9-3.8,1.6-3.6v-9.2l-1.1-.9-1.9.3.9-2,3.1-.4,2.8-1.6,2.6-1.6,4.7-2,2.3-3.4h-2.2a9,9,0,0,0-2.4,1.2,24.3,24.3,0,0,1-3.5,2l-2.7,1.1-2,1.4-1.2-.9,1.5-1.8,2.4-2.6,2.7-2,3.1-1.3,5-1.2,3.2-1.6,1.6-1.2v-3l1.6-.7.5,1.3.9,1.1L505,94l2.4-.9.5,1.4,1.6-1.4,2.4-.8v-2.4l-1.6-3.2-1.5,1.5.8,1.5v1.8s-1.6.3-2,.4-1.9-1.1-1.9-1.1l-2-2.7-3.4-.7,1.1-3.5a14.17,14.17,0,0,0,.8-1.8c-.3.4-1.3-2.7-1.3-2.7l.4-2.6,1.2-4.3,1-3.1-.7-2.3,2.2-2.3,1.5.7,1.1-1.9,2.7-.5,1.1-1.9.7-2.3.9-2,1.9-.4,1.6-1.9,1.3-1.8,2,.8,1.6-1.9,2.8-2,1.9-2.8,1.8-.5s-.9-1.6-1.3-1.5-.8-2.1-.8-2.1l-2-.5-1.9-.5-1.2-3s-2.4-1.6-2.8-1.5-2.6-7.1-2.6-7.1l-2.5-8.4-5.1-3.2-5.8,3.6-1.9-1.4.3-1.9-1.5.5-3.6,12.4.8,1.8-.9,2.4c.3,1.8.5,3.6.7,5.4-.1.4-.7,2.7-.7,2.7l-1.5,1.9.5,2.3-1.5,1.9-1.3-.8-2.3,1.2-1.2,2.4.3,2.3L459,60.87l-7,7.4-1.1,3.2s-3.2,3.2-3.5,3.6.5,1.5.5,1.5l1.4,1.1.4,3-1.2,2a20,20,0,0,0-2.2,1.9,20.28,20.28,0,0,1-2.3,1.8l-5.9,2.4-2.3-1.6-4.5.8-4.9,1.2-.8,3.4,2.2,2.7-.7,2.7-2.6,3-5.5,4.9-1.6.4-2,2.3-2.8,1.9-3.1,1.9-2.3.7-3.8,4.6-2-.9-3.8,2.7-4.5-.7-4.3-1.9-2,.4-.1-2.4,1.2-2.2,1.1-1.4v-2.4l1.3-1.3s1.1-4.4.8-4,1.9-.1,1.9-.1l.8-5.5-3.3-10.4-3.6-.9-5,6.3-2.4-1.1-.4-3.1,2.7-2.3s1.5-2,1.2-2.4-.3-5.7-.3-5.7l-1.1-2.4-.1-2.3,1.1-1.4-3.4-2.1-4.3-.8-.8-1.5-4.8-1.3-3.1,3.6.5,1.8-2.1,2.3v3.1l-2.6,2.4s-1.6-1.2-1.5-1.6-1.8,1.2-1.8,1.2l-1.5,2.7s.3,3.6,0,4.1a23.39,23.39,0,0,0-.9,3.8l.4,3.4,1.5,4.9,2.1,4.9-.4,5.8-.8,5.4-3.2,5-3.9,2.4-3.4-1.5-1.6-4.4-1.9-1.5s.1-3.6,0-4-2-10.2-2-10.2,1.6-3.6,1.3-3.6-.4-4.3-.4-4.7a19.82,19.82,0,0,1,1.9-3.1l.1-4.2,1.4-2.3,1.5-3.6.7-3.1-1.6,1.9-1.6,2.7L344,82l-2,3-1.2-.4.8-3.1,2.1-2.7,1.4-2,1.4-3.8,1.5-2.6.4-3.4,1.5-.1.3,1.9,1.4-1.8h1.5l.1,1.8,1.4-.5.7-2.2s4-.4,3.8-.3a12.09,12.09,0,0,1,1.6-1.6L363,63l4.6.4,1.4,1.5,1.2-1.9H373l2.6.1,3.4-1.5-4.5-1.6-3.4-1.4-4.4.4-.8-2.3v-2.2a25.94,25.94,0,0,1-4,1.5c-.4-.1-4.5,1-4.9.8s-3.1,1.6-3.1,1.6a13,13,0,0,1-2.3,1.8c-.5.1-2.8,0-3-.3s-3,.1-3,.1l-3.5-2.8-3-1.1h-2.7l-1.5.5.8-3.2,1-2.4,3.1-2.3-3.9-.4-1.9,3-2.3,1.4-2.4,2.4-2.8,1.5-2.9.9-1.6,1.6a11.87,11.87,0,0,1-2.3,1.6c-.4,0-3.4-.7-3.4-.7l-3.1,1.1-.1-2.7,1.1-1.2-1.8-.4-3.4,1.8-3,1.6-3.5-1.2,5.1-5.4s5.1-4,4.9-4,4-2.6,4-2.6l2.7-1.9,4.6-2.8a19.16,19.16,0,0,0-3.2-.9c-.4,0-5.1.8-5.1.8l-2.7-1.5-5.9,2.2-3.2-1.1-1.9-1.8-1.5.4a38.76,38.76,0,0,0-2.6-3.1,60,60,0,0,0-6.3-1.1s-3.8,1.2-3.8.9-4.4-2.2-4.4-2.2l-2,.8-1.2-1.5.1-2-.7-4.4-2.6-.5-.8,3.8-16.9.8-44-1.4-14.9-1.3-32.5-3.6L113,17.27,84.85,11l-22.1-5.1L45,1.07Z"/><text class="cls-5" transform="translate(452.15 257.07)">115th</text></svg>