<svg xmlns="http://www.w3.org/2000/svg" id="graphic" width="1035" height="540.5333404541016"><g id="facets"><g class="facet" transform="translate(45,10)" opacity="1"><rect class="facet-title-bg" height="0" fill="#eeeeee" x="0" y="0" clip-path="url(#facet-clip-0)"/><text class="facet-title" y="0" font-size="17.5px" font-weight="bold" dx="0" x="0" fill="#333333" clip-path="url(#facet-clip-0)" opacity="0"/><g class="plot"><clipPath class="facet-clip" id="facet-clip-0"><rect width="994" height="527.5333404541016" transform="translate(-7,-21)"/></clipPath><g class="bg"><rect fill="none" style="fill: none;" width="980" height="485.53334045410156"/></g><g class="interaction"><g class="series"/><g class="series"/><g class="series"/><g class="series"/><g class="series"/><g class="series"/><g class="series"/><g class="series"/><g class="series"/><g class="series"/><g class="series"/><g class="series"/><g class="series"/><g class="series"/><g class="series"/><g class="series"/><g class="series"/><g class="series"/><g class="series"/><g class="series"/><g class="series"/></g><g class="axes"><g class="y axis" fill="none" font-size="10" font-family="sans-serif" text-anchor="end" style="font-family: Source Sans Pro;"><path class="domain" stroke="#eeeeee" d="M0.5,486.03334045410156V0.5" stroke-dasharray="0" style="visibility: hidden;"/><g class="tick" opacity="1" transform="translate(0, 486.0333251953125)" style="visibility: visible;"><line stroke="#eeeeee" x2="980" stroke-dasharray="0"/><text fill="rgb(153, 153, 153)" x="-3" dy="0.33em" opacity="1" text-anchor="end" font-size="12">0</text></g><g class="tick" opacity="1" transform="translate(0, 441.8939514160156)" style="visibility: visible;"><line stroke="#eeeeee" x2="980" stroke-dasharray="0"/><text fill="rgb(153, 153, 153)" x="-3" dy="0.33em" opacity="1" text-anchor="end" font-size="12">10</text></g><g class="tick" opacity="1" transform="translate(0, 397.7545471191406)" style="visibility: visible;"><line stroke="#eeeeee" x2="980" stroke-dasharray="0"/><text fill="rgb(153, 153, 153)" x="-3" dy="0.33em" opacity="1" text-anchor="end" font-size="12">20</text></g><g class="tick" opacity="1" transform="translate(0, 353.6151428222656)" style="visibility: visible;"><line stroke="#eeeeee" x2="980" stroke-dasharray="0"/><text fill="rgb(153, 153, 153)" x="-3" dy="0.33em" opacity="1" text-anchor="end" font-size="12">30</text></g><g class="tick" opacity="1" transform="translate(0, 309.47576904296875)" style="visibility: visible;"><line stroke="#eeeeee" x2="980" stroke-dasharray="0"/><text fill="rgb(153, 153, 153)" x="-3" dy="0.33em" opacity="1" text-anchor="end" font-size="12">40</text></g><g class="tick" opacity="1" transform="translate(0, 265.33636474609375)" style="visibility: visible;"><line stroke="#eeeeee" x2="980" stroke-dasharray="0"/><text fill="rgb(153, 153, 153)" x="-3" dy="0.33em" opacity="1" text-anchor="end" font-size="12">50</text></g><g class="tick" opacity="1" transform="translate(0, 221.1969757080078)" style="visibility: visible;"><line stroke="#eeeeee" x2="980" stroke-dasharray="0"/><text fill="rgb(153, 153, 153)" x="-3" dy="0.33em" opacity="1" text-anchor="end" font-size="12">60</text></g><g class="tick" opacity="1" transform="translate(0, 177.0575714111328)" style="visibility: visible;"><line stroke="#eeeeee" x2="980" stroke-dasharray="0"/><text fill="rgb(153, 153, 153)" x="-3" dy="0.33em" opacity="1" text-anchor="end" font-size="12">70</text></g><g class="tick" opacity="1" transform="translate(0, 132.91818237304688)" style="visibility: visible;"><line stroke="#eeeeee" x2="980" stroke-dasharray="0"/><text fill="rgb(153, 153, 153)" x="-3" dy="0.33em" opacity="1" text-anchor="end" font-size="12">80</text></g><g class="tick" opacity="1" transform="translate(0, 88.7787857055664)" style="visibility: visible;"><line stroke="#eeeeee" x2="980" stroke-dasharray="0"/><text fill="rgb(153, 153, 153)" x="-3" dy="0.33em" opacity="1" text-anchor="end" font-size="12">90</text></g><g class="tick" opacity="1" transform="translate(0, 44.6393928527832)" style="visibility: visible;"><line stroke="#eeeeee" x2="980" stroke-dasharray="0"/><text fill="rgb(153, 153, 153)" x="-3" dy="0.33em" opacity="1" text-anchor="end" font-size="12">100</text></g><g class="tick" opacity="1" transform="translate(0, 0.5)" style="visibility: visible;"><line stroke="#eeeeee" x2="980" stroke-dasharray="0"/><text fill="rgb(153, 153, 153)" x="-3" dy="0.33em" opacity="1" text-anchor="end" font-size="12">110</text></g></g><g class="x axis" transform="translate(0, 485.5333251953125)" fill="none" font-size="10" font-family="sans-serif" text-anchor="middle" style="font-family: Source Sans Pro;"><path class="domain" stroke="#eeeeee" d="M0.5,0.5H980.5" stroke-dasharray="0"/><g class="tick" opacity="1" transform="translate(41.145038167938914,0)"><line stroke="#eeeeee" y2="6" stroke-dasharray="0"/><text fill="rgb(153, 153, 153)" y="9" dy="-9" opacity="1" dominant-baseline="central" style="text-anchor: end; visibility: visible;" font-size="12" transform="translate(0, 15) rotate(-45) scale(0.999999982885729,0.999999982885729)" dx="5">united states</text></g><g class="tick" opacity="1" transform="translate(115.95419847328242,0)"><line stroke="#eeeeee" y2="6" stroke-dasharray="0"/><text fill="rgb(153, 153, 153)" y="9" dy="-9" opacity="1" dominant-baseline="central" style="text-anchor: end; visibility: visible;" font-size="12" transform="translate(0, 15) rotate(-45) scale(0.999999982885729,0.999999982885729)" dx="5">Arizona</text></g><g class="tick" opacity="1" transform="translate(190.76335877862593,0)"><line stroke="#eeeeee" y2="6" stroke-dasharray="0"/><text fill="rgb(153, 153, 153)" y="9" dy="-9" opacity="1" dominant-baseline="central" style="text-anchor: end; visibility: visible;" font-size="12" transform="translate(0, 15) rotate(-45) scale(0.999999982885729,0.999999982885729)" dx="5">Colorado</text></g><g class="tick" opacity="1" transform="translate(265.57251908396944,0)"><line stroke="#eeeeee" y2="6" stroke-dasharray="0"/><text fill="rgb(153, 153, 153)" y="9" dy="-9" opacity="1" dominant-baseline="central" style="text-anchor: end; visibility: visible;" font-size="12" transform="translate(0, 15) rotate(-45) scale(0.999999982885729,0.999999982885729)" dx="5">Florida</text></g><g class="tick" opacity="1" transform="translate(340.381679389313,0)"><line stroke="#eeeeee" y2="6" stroke-dasharray="0"/><text fill="rgb(153, 153, 153)" y="9" dy="-9" opacity="1" dominant-baseline="central" style="text-anchor: end; visibility: visible;" font-size="12" transform="translate(0, 15) rotate(-45) scale(0.999999982885729,0.999999982885729)" dx="5">Georgia</text></g><g class="tick" opacity="1" transform="translate(415.1908396946565,0)"><line stroke="#eeeeee" y2="6" stroke-dasharray="0"/><text fill="rgb(153, 153, 153)" y="9" dy="-9" opacity="1" dominant-baseline="central" style="text-anchor: end; visibility: visible;" font-size="12" transform="translate(0, 15) rotate(-45) scale(0.999999982885729,0.999999982885729)" dx="5">Iowa</text></g><g class="tick" opacity="1" transform="translate(490,0)"><line stroke="#eeeeee" y2="6" stroke-dasharray="0"/><text fill="rgb(153, 153, 153)" y="9" dy="-9" opacity="1" dominant-baseline="central" style="text-anchor: end; visibility: visible;" font-size="12" transform="translate(0, 15) rotate(-45) scale(0.999999982885729,0.999999982885729)" dx="5">Maine</text></g><g class="tick" opacity="1" transform="translate(564.8091603053434,0)"><line stroke="#eeeeee" y2="6" stroke-dasharray="0"/><text fill="rgb(153, 153, 153)" y="9" dy="-9" opacity="1" dominant-baseline="central" style="text-anchor: end; visibility: visible;" font-size="12" transform="translate(0, 15) rotate(-45) scale(0.999999982885729,0.999999982885729)" dx="5">Michigan</text></g><g class="tick" opacity="1" transform="translate(639.618320610687,0)"><line stroke="#eeeeee" y2="6" stroke-dasharray="0"/><text fill="rgb(153, 153, 153)" y="9" dy="-9" opacity="1" dominant-baseline="central" style="text-anchor: end; visibility: visible;" font-size="12" transform="translate(0, 15) rotate(-45) scale(0.999999982885729,0.999999982885729)" dx="5">North Carolina</text></g><g class="tick" opacity="1" transform="translate(714.4274809160305,0)"><line stroke="#eeeeee" y2="6" stroke-dasharray="0"/><text fill="rgb(153, 153, 153)" y="9" dy="-9" opacity="1" dominant-baseline="central" style="text-anchor: end; visibility: visible;" font-size="12" transform="translate(0, 15) rotate(-45) scale(0.999999982885729,0.999999982885729)" dx="5">Ohio</text></g><g class="tick" opacity="1" transform="translate(789.236641221374,0)"><line stroke="#eeeeee" y2="6" stroke-dasharray="0"/><text fill="rgb(153, 153, 153)" y="9" dy="-9" opacity="1" dominant-baseline="central" style="text-anchor: end; visibility: visible;" font-size="12" transform="translate(0, 15) rotate(-45) scale(0.999999982885729,0.999999982885729)" dx="5">Pennsylvania</text></g><g class="tick" opacity="1" transform="translate(864.0458015267175,0)"><line stroke="#eeeeee" y2="6" stroke-dasharray="0"/><text fill="rgb(153, 153, 153)" y="9" dy="-9" opacity="1" dominant-baseline="central" style="text-anchor: end; visibility: visible;" font-size="12" transform="translate(0, 15) rotate(-45) scale(0.999999982885729,0.999999982885729)" dx="5">Texas</text></g><g class="tick" opacity="1" transform="translate(938.854961832061,0)"><line stroke="#eeeeee" y2="6" stroke-dasharray="0"/><text fill="rgb(153, 153, 153)" y="9" dy="-9" opacity="1" dominant-baseline="central" style="text-anchor: end; visibility: visible;" font-size="12" transform="translate(0, 15) rotate(-45) scale(0.999999982885729,0.999999982885729)" dx="5">Wisconsin</text></g></g></g></g></g></g><g class="annotations below"><g class="axis-highlights" transform="translate(45, 10)" style="opacity: 1;"/></g><g id="areas"/><g id="lines"/><g id="data-points"><g class="series" transform="translate(45,10)"><path class="data-point" data-type="column" opacity="0.9" fill="rgb(102, 30, 23)" d="M7.480916030534331,166.846911537864L74.8091603053435,166.846911537864L74.8091603053435,485.53334045410156L7.480916030534331,485.53334045410156Z" transform="translate(0, 0)" id="point-0-0"/><path class="data-point" data-type="column" opacity="0.9" fill="rgb(102, 30, 23)" d="M82.29007633587784,141.24606267755678L149.61832061068702,141.24606267755678L149.61832061068702,485.53334045410156L82.29007633587784,485.53334045410156Z" transform="translate(0, 0)" id="point-0-1"/><path class="data-point" data-type="column" opacity="0.9" fill="rgb(102, 30, 23)" d="M157.09923664122135,114.32103197964756L224.4274809160305,114.32103197964756L224.4274809160305,485.53334045410156L157.09923664122135,485.53334045410156Z" transform="translate(0, 0)" id="point-0-2"/><path class="data-point" data-type="column" opacity="0.9" fill="rgb(102, 30, 23)" d="M231.90839694656486,156.25345683704722L299.23664122137404,156.25345683704722L299.23664122137404,485.53334045410156L231.90839694656486,485.53334045410156Z" transform="translate(0, 0)" id="point-0-3"/><path class="data-point" data-type="column" opacity="0.9" fill="rgb(102, 30, 23)" d="M306.7175572519084,228.20067001342773L374.0458015267175,228.20067001342773L374.0458015267175,485.53334045410156L306.7175572519084,485.53334045410156Z" transform="translate(0, 0)" id="point-0-4"/><path class="data-point" data-type="column" opacity="0.9" fill="rgb(102, 30, 23)" d="M381.5267175572519,87.39600128173822L448.85496183206106,87.39600128173822L448.85496183206106,485.53334045410156L381.5267175572519,485.53334045410156Z" transform="translate(0, 0)" id="point-0-5"/><path class="data-point" data-type="column" opacity="0.9" fill="rgb(102, 30, 23)" d="M456.3358778625954,69.29884950117628L523.6641221374045,69.29884950117628L523.6641221374045,485.53334045410156L456.3358778625954,485.53334045410156Z" transform="translate(0, 0)" id="point-0-6"/><path class="data-point" data-type="column" opacity="0.9" fill="rgb(102, 30, 23)" d="M531.1450381679389,139.92188083995472L598.4732824427481,139.92188083995472L598.4732824427481,485.53334045410156L531.1450381679389,485.53334045410156Z" transform="translate(0, 0)" id="point-0-7"/><path class="data-point" data-type="column" opacity="0.9" fill="rgb(102, 30, 23)" d="M605.9541984732824,183.6198814808239L673.2824427480916,183.6198814808239L673.2824427480916,485.53334045410156L605.9541984732824,485.53334045410156Z" transform="translate(0, 0)" id="point-0-8"/><path class="data-point" data-type="column" opacity="0.9" fill="rgb(102, 30, 23)" d="M680.763358778626,128.0042443015359L748.0916030534352,128.0042443015359L748.0916030534352,485.53334045410156L680.763358778626,485.53334045410156Z" transform="translate(0, 0)" id="point-0-9"/><path class="data-point" data-type="column" opacity="0.9" fill="rgb(102, 30, 23)" d="M755.5725190839695,131.97678981434217L822.9007633587787,131.97678981434217L822.9007633587787,485.53334045410156L755.5725190839695,485.53334045410156Z" transform="translate(0, 0)" id="point-0-10"/><path class="data-point" data-type="column" opacity="0.9" fill="rgb(102, 30, 23)" d="M830.3816793893129,161.10879024158822L897.7099236641221,161.10879024158822L897.7099236641221,485.53334045410156L830.3816793893129,485.53334045410156Z" transform="translate(0, 0)" id="point-0-11"/><path class="data-point" data-type="column" opacity="0.9" fill="rgb(102, 30, 23)" d="M905.1908396946565,109.02430462923917L972.5190839694657,109.02430462923917L972.5190839694657,485.53334045410156L905.1908396946565,485.53334045410156Z" transform="translate(0, 0)" id="point-0-12"/></g><g class="series" transform="translate(45,10)"><path class="data-point" data-type="column" opacity="0.9" fill="rgb(177, 73, 28)" d="M7.480916030534331,110.78988041270861L74.8091603053435,110.78988041270861L74.8091603053435,166.84691153786397L7.480916030534331,166.84691153786397Z" transform="translate(0, 0)" id="point-1-0"/><path class="data-point" data-type="column" opacity="0.9" fill="rgb(177, 73, 28)" d="M82.29007633587784,120.50054722179065L149.61832061068702,120.50054722179065L149.61832061068702,141.2460626775568L82.29007633587784,141.2460626775568Z" transform="translate(0, 0)" id="point-1-1"/><path class="data-point" data-type="column" opacity="0.9" fill="rgb(177, 73, 28)" d="M157.09923664122135,95.78248625321821L224.4274809160305,95.78248625321821L224.4274809160305,114.32103197964756L157.09923664122135,114.32103197964756Z" transform="translate(0, 0)" id="point-1-2"/><path class="data-point" data-type="column" opacity="0.9" fill="rgb(177, 73, 28)" d="M231.90839694656486,85.63042549826883L299.23664122137404,85.63042549826883L299.23664122137404,156.25345683704725L231.90839694656486,156.25345683704725Z" transform="translate(0, 0)" id="point-1-3"/><path class="data-point" data-type="column" opacity="0.9" fill="rgb(177, 73, 28)" d="M306.7175572519084,88.72018311934033L374.0458015267175,88.72018311934033L374.0458015267175,228.20067001342773L306.7175572519084,228.20067001342773Z" transform="translate(0, 0)" id="point-1-4"/><path class="data-point" data-type="column" opacity="0.9" fill="rgb(177, 73, 28)" d="M381.5267175572519,71.50581923051317L448.85496183206106,71.50581923051317L448.85496183206106,87.39600128173825L381.5267175572519,87.39600128173825Z" transform="translate(0, 0)" id="point-1-5"/><path class="data-point" data-type="column" opacity="0.9" fill="rgb(177, 73, 28)" d="M456.3358778625954,63.1193342590332L523.6641221374045,63.1193342590332L523.6641221374045,69.2988495011763L456.3358778625954,69.2988495011763Z" transform="translate(0, 0)" id="point-1-6"/><path class="data-point" data-type="column" opacity="0.9" fill="rgb(177, 73, 28)" d="M531.1450381679389,79.00951631025839L598.4732824427481,79.00951631025839L598.4732824427481,139.92188083995472L531.1450381679389,139.92188083995472Z" transform="translate(0, 0)" id="point-1-7"/><path class="data-point" data-type="column" opacity="0.9" fill="rgb(177, 73, 28)" d="M605.9541984732824,89.16157706520767L673.2824427480916,89.16157706520767L673.2824427480916,183.61988148082386L605.9541984732824,183.61988148082386Z" transform="translate(0, 0)" id="point-1-8"/><path class="data-point" data-type="column" opacity="0.9" fill="rgb(177, 73, 28)" d="M680.763358778626,73.27139501398258L748.0916030534352,73.27139501398258L748.0916030534352,128.0042443015359L680.763358778626,128.0042443015359Z" transform="translate(0, 0)" id="point-1-9"/><path class="data-point" data-type="column" opacity="0.9" fill="rgb(177, 73, 28)" d="M755.5725190839695,82.54066787719728L822.9007633587787,82.54066787719728L822.9007633587787,131.97678981434217L755.5725190839695,131.97678981434217Z" transform="translate(0, 0)" id="point-1-10"/><path class="data-point" data-type="column" opacity="0.9" fill="rgb(177, 73, 28)" d="M830.3816793893129,106.81733489990233L897.7099236641221,106.81733489990233L897.7099236641221,161.10879024158822L830.3816793893129,161.10879024158822Z" transform="translate(0, 0)" id="point-1-11"/><path class="data-point" data-type="column" opacity="0.9" fill="rgb(177, 73, 28)" d="M905.1908396946565,80.7750920937278L972.5190839694657,80.7750920937278L972.5190839694657,109.0243046292392L905.1908396946565,109.0243046292392Z" transform="translate(0, 0)" id="point-1-12"/></g><g class="series" transform="translate(45,10)"><path class="data-point" data-type="column" opacity="0.9" fill="rgb(133, 47, 25)" d="M7.480916030534331,106.81733489990228L74.8091603053435,106.81733489990228L74.8091603053435,110.78988041270861L7.480916030534331,110.78988041270861Z" transform="translate(0, 0)" id="point-2-0"/><path class="data-point" data-type="column" opacity="0.9" fill="rgb(133, 47, 25)" d="M82.29007633587784,100.19642571189189L149.61832061068702,100.19642571189189L149.61832061068702,120.50054722179065L82.29007633587784,120.50054722179065Z" transform="translate(0, 0)" id="point-2-1"/><path class="data-point" data-type="column" opacity="0.9" fill="rgb(133, 47, 25)" d="M157.09923664122135,91.36854679454459L224.4274809160305,91.36854679454459L224.4274809160305,95.78248625321821L157.09923664122135,95.78248625321821Z" transform="translate(0, 0)" id="point-2-2"/><path class="data-point" data-type="column" opacity="0.9" fill="rgb(133, 47, 25)" d="M231.90839694656486,84.30624366066675L299.23664122137404,84.30624366066675L299.23664122137404,85.63042549826883L231.90839694656486,85.63042549826883Z" transform="translate(0, 0)" id="point-2-3"/><path class="data-point" data-type="column" opacity="0.9" fill="rgb(133, 47, 25)" d="M306.7175572519084,87.39600128173825L374.0458015267175,87.39600128173825L374.0458015267175,88.72018311934033L306.7175572519084,88.72018311934033Z" transform="translate(0, 0)" id="point-2-4"/><path class="data-point" data-type="column" opacity="0.9" fill="rgb(133, 47, 25)" d="M381.5267175572519,69.74024344704364L448.85496183206106,69.74024344704364L448.85496183206106,71.50581923051317L381.5267175572519,71.50581923051317Z" transform="translate(0, 0)" id="point-2-5"/><path class="data-point" data-type="column" opacity="0.9" fill="rgb(133, 47, 25)" d="M456.3358778625954,60.47097058382905L523.6641221374045,60.47097058382905L523.6641221374045,63.1193342590332L456.3358778625954,63.1193342590332Z" transform="translate(0, 0)" id="point-2-6"/><path class="data-point" data-type="column" opacity="0.9" fill="rgb(133, 47, 25)" d="M531.1450381679389,76.80254658092153L598.4732824427481,76.80254658092153L598.4732824427481,79.00951631025839L531.1450381679389,79.00951631025839Z" transform="translate(0, 0)" id="point-2-7"/><path class="data-point" data-type="column" opacity="0.9" fill="rgb(133, 47, 25)" d="M605.9541984732824,83.8648497147993L673.2824427480916,83.8648497147993L673.2824427480916,89.16157706520767L605.9541984732824,89.16157706520767Z" transform="translate(0, 0)" id="point-2-8"/><path class="data-point" data-type="column" opacity="0.9" fill="rgb(133, 47, 25)" d="M680.763358778626,72.38860712224785L748.0916030534352,72.38860712224785L748.0916030534352,73.27139501398258L680.763358778626,73.27139501398258Z" transform="translate(0, 0)" id="point-2-9"/><path class="data-point" data-type="column" opacity="0.9" fill="rgb(133, 47, 25)" d="M755.5725190839695,81.65787998546254L822.9007633587787,81.65787998546254L822.9007633587787,82.54066787719728L755.5725190839695,82.54066787719728Z" transform="translate(0, 0)" id="point-2-10"/><path class="data-point" data-type="column" opacity="0.9" fill="rgb(133, 47, 25)" d="M830.3816793893129,104.61036517056552L897.7099236641221,104.61036517056552L897.7099236641221,106.81733489990233L830.3816793893129,106.81733489990233Z" transform="translate(0, 0)" id="point-2-11"/><path class="data-point" data-type="column" opacity="0.9" fill="rgb(133, 47, 25)" d="M905.1908396946565,76.80254658092147L972.5190839694657,76.80254658092147L972.5190839694657,80.7750920937278L905.1908396946565,80.7750920937278Z" transform="translate(0, 0)" id="point-2-12"/></g><g class="series" transform="translate(45,10)"><path class="data-point" data-type="column" opacity="0.9" fill="rgb(147, 56, 26)" d="M7.480916030534331,106.37594095403493L74.8091603053435,106.37594095403493L74.8091603053435,106.81733489990228L7.480916030534331,106.81733489990228Z" transform="translate(0, 0)" id="point-3-0"/><path class="data-point" data-type="column" opacity="0.9" fill="rgb(147, 56, 26)" d="M82.29007633587784,99.75503176602456L149.61832061068702,99.75503176602456L149.61832061068702,100.19642571189189L82.29007633587784,100.19642571189189Z" transform="translate(0, 0)" id="point-3-1"/><path class="data-point" data-type="column" opacity="0.9" fill="rgb(147, 56, 26)" d="M157.09923664122135,90.92715284867725L224.4274809160305,90.92715284867725L224.4274809160305,91.36854679454459L157.09923664122135,91.36854679454459Z" transform="translate(0, 0)" id="point-3-2"/><path class="data-point" data-type="column" opacity="0.9" fill="rgb(147, 56, 26)" d="M231.90839694656486,84.30624366066675L299.23664122137404,84.30624366066675L299.23664122137404,84.30624366066675L231.90839694656486,84.30624366066675Z" transform="translate(0, 0)" id="point-3-3"/><path class="data-point" data-type="column" opacity="0.9" fill="rgb(147, 56, 26)" d="M306.7175572519084,86.9546073358709L374.0458015267175,86.9546073358709L374.0458015267175,87.39600128173825L306.7175572519084,87.39600128173825Z" transform="translate(0, 0)" id="point-3-4"/><path class="data-point" data-type="column" opacity="0.9" fill="rgb(147, 56, 26)" d="M381.5267175572519,69.74024344704364L448.85496183206106,69.74024344704364L448.85496183206106,69.74024344704364L381.5267175572519,69.74024344704364Z" transform="translate(0, 0)" id="point-3-5"/><path class="data-point" data-type="column" opacity="0.9" fill="rgb(147, 56, 26)" d="M456.3358778625954,60.47097058382905L523.6641221374045,60.47097058382905L523.6641221374045,60.47097058382905L456.3358778625954,60.47097058382905Z" transform="translate(0, 0)" id="point-3-6"/><path class="data-point" data-type="column" opacity="0.9" fill="rgb(147, 56, 26)" d="M531.1450381679389,76.80254658092153L598.4732824427481,76.80254658092153L598.4732824427481,76.80254658092153L531.1450381679389,76.80254658092153Z" transform="translate(0, 0)" id="point-3-7"/><path class="data-point" data-type="column" opacity="0.9" fill="rgb(147, 56, 26)" d="M605.9541984732824,83.42345576893197L673.2824427480916,83.42345576893197L673.2824427480916,83.8648497147993L605.9541984732824,83.8648497147993Z" transform="translate(0, 0)" id="point-3-8"/><path class="data-point" data-type="column" opacity="0.9" fill="rgb(147, 56, 26)" d="M680.763358778626,71.94721317638052L748.0916030534352,71.94721317638052L748.0916030534352,72.38860712224785L680.763358778626,72.38860712224785Z" transform="translate(0, 0)" id="point-3-9"/><path class="data-point" data-type="column" opacity="0.9" fill="rgb(147, 56, 26)" d="M755.5725190839695,81.65787998546254L822.9007633587787,81.65787998546254L822.9007633587787,81.65787998546254L755.5725190839695,81.65787998546254Z" transform="translate(0, 0)" id="point-3-10"/><path class="data-point" data-type="column" opacity="0.9" fill="rgb(147, 56, 26)" d="M830.3816793893129,104.16897122469818L897.7099236641221,104.16897122469818L897.7099236641221,104.61036517056552L830.3816793893129,104.61036517056552Z" transform="translate(0, 0)" id="point-3-11"/><path class="data-point" data-type="column" opacity="0.9" fill="rgb(147, 56, 26)" d="M905.1908396946565,76.80254658092147L972.5190839694657,76.80254658092147L972.5190839694657,76.80254658092147L905.1908396946565,76.80254658092147Z" transform="translate(0, 0)" id="point-3-12"/></g><g class="series" transform="translate(45,10)"><path class="data-point" data-type="column" opacity="0.9" fill="rgb(192, 81, 29)" d="M7.480916030534331,106.37594095403493L74.8091603053435,106.37594095403493L74.8091603053435,106.37594095403493L7.480916030534331,106.37594095403493Z" transform="translate(0, 0)" id="point-4-0"/><path class="data-point" data-type="column" opacity="0.9" fill="rgb(192, 81, 29)" d="M82.29007633587784,99.75503176602456L149.61832061068702,99.75503176602456L149.61832061068702,99.75503176602456L82.29007633587784,99.75503176602456Z" transform="translate(0, 0)" id="point-4-1"/><path class="data-point" data-type="column" opacity="0.9" fill="rgb(192, 81, 29)" d="M157.09923664122135,90.92715284867725L224.4274809160305,90.92715284867725L224.4274809160305,90.92715284867725L157.09923664122135,90.92715284867725Z" transform="translate(0, 0)" id="point-4-2"/><path class="data-point" data-type="column" opacity="0.9" fill="rgb(192, 81, 29)" d="M231.90839694656486,84.30624366066675L299.23664122137404,84.30624366066675L299.23664122137404,84.30624366066675L231.90839694656486,84.30624366066675Z" transform="translate(0, 0)" id="point-4-3"/><path class="data-point" data-type="column" opacity="0.9" fill="rgb(192, 81, 29)" d="M306.7175572519084,86.9546073358709L374.0458015267175,86.9546073358709L374.0458015267175,86.9546073358709L306.7175572519084,86.9546073358709Z" transform="translate(0, 0)" id="point-4-4"/><path class="data-point" data-type="column" opacity="0.9" fill="rgb(192, 81, 29)" d="M381.5267175572519,69.74024344704364L448.85496183206106,69.74024344704364L448.85496183206106,69.74024344704364L381.5267175572519,69.74024344704364Z" transform="translate(0, 0)" id="point-4-5"/><path class="data-point" data-type="column" opacity="0.9" fill="rgb(192, 81, 29)" d="M456.3358778625954,60.47097058382905L523.6641221374045,60.47097058382905L523.6641221374045,60.47097058382905L456.3358778625954,60.47097058382905Z" transform="translate(0, 0)" id="point-4-6"/><path class="data-point" data-type="column" opacity="0.9" fill="rgb(192, 81, 29)" d="M531.1450381679389,75.47836474331945L598.4732824427481,75.47836474331945L598.4732824427481,76.80254658092153L531.1450381679389,76.80254658092153Z" transform="translate(0, 0)" id="point-4-7"/><path class="data-point" data-type="column" opacity="0.9" fill="rgb(192, 81, 29)" d="M605.9541984732824,83.42345576893197L673.2824427480916,83.42345576893197L673.2824427480916,83.42345576893197L605.9541984732824,83.42345576893197Z" transform="translate(0, 0)" id="point-4-8"/><path class="data-point" data-type="column" opacity="0.9" fill="rgb(192, 81, 29)" d="M680.763358778626,71.94721317638052L748.0916030534352,71.94721317638052L748.0916030534352,71.94721317638052L680.763358778626,71.94721317638052Z" transform="translate(0, 0)" id="point-4-9"/><path class="data-point" data-type="column" opacity="0.9" fill="rgb(192, 81, 29)" d="M755.5725190839695,81.65787998546254L822.9007633587787,81.65787998546254L822.9007633587787,81.65787998546254L755.5725190839695,81.65787998546254Z" transform="translate(0, 0)" id="point-4-10"/><path class="data-point" data-type="column" opacity="0.9" fill="rgb(192, 81, 29)" d="M830.3816793893129,104.16897122469818L897.7099236641221,104.16897122469818L897.7099236641221,104.16897122469818L830.3816793893129,104.16897122469818Z" transform="translate(0, 0)" id="point-4-11"/><path class="data-point" data-type="column" opacity="0.9" fill="rgb(192, 81, 29)" d="M905.1908396946565,75.4783647433194L972.5190839694657,75.4783647433194L972.5190839694657,76.80254658092147L905.1908396946565,76.80254658092147Z" transform="translate(0, 0)" id="point-4-12"/></g><g class="series" transform="translate(45,10)"><path class="data-point" data-type="column" opacity="0.9" fill="rgb(237, 107, 33)" d="M7.480916030534331,105.9345470081676L74.8091603053435,105.9345470081676L74.8091603053435,106.37594095403493L7.480916030534331,106.37594095403493Z" transform="translate(0, 0)" id="point-5-0"/><path class="data-point" data-type="column" opacity="0.9" fill="rgb(237, 107, 33)" d="M82.29007633587784,90.4857589028099L149.61832061068702,90.4857589028099L149.61832061068702,99.75503176602456L82.29007633587784,99.75503176602456Z" transform="translate(0, 0)" id="point-5-1"/><path class="data-point" data-type="column" opacity="0.9" fill="rgb(237, 107, 33)" d="M157.09923664122135,90.4857589028099L224.4274809160305,90.4857589028099L224.4274809160305,90.92715284867725L157.09923664122135,90.92715284867725Z" transform="translate(0, 0)" id="point-5-2"/><path class="data-point" data-type="column" opacity="0.9" fill="rgb(237, 107, 33)" d="M231.90839694656486,84.30624366066675L299.23664122137404,84.30624366066675L299.23664122137404,84.30624366066675L231.90839694656486,84.30624366066675Z" transform="translate(0, 0)" id="point-5-3"/><path class="data-point" data-type="column" opacity="0.9" fill="rgb(237, 107, 33)" d="M306.7175572519084,86.9546073358709L374.0458015267175,86.9546073358709L374.0458015267175,86.9546073358709L306.7175572519084,86.9546073358709Z" transform="translate(0, 0)" id="point-5-4"/><path class="data-point" data-type="column" opacity="0.9" fill="rgb(237, 107, 33)" d="M381.5267175572519,69.74024344704364L448.85496183206106,69.74024344704364L448.85496183206106,69.74024344704364L381.5267175572519,69.74024344704364Z" transform="translate(0, 0)" id="point-5-5"/><path class="data-point" data-type="column" opacity="0.9" fill="rgb(237, 107, 33)" d="M456.3358778625954,60.47097058382905L523.6641221374045,60.47097058382905L523.6641221374045,60.47097058382905L456.3358778625954,60.47097058382905Z" transform="translate(0, 0)" id="point-5-6"/><path class="data-point" data-type="column" opacity="0.9" fill="rgb(237, 107, 33)" d="M531.1450381679389,75.47836474331945L598.4732824427481,75.47836474331945L598.4732824427481,75.47836474331945L531.1450381679389,75.47836474331945Z" transform="translate(0, 0)" id="point-5-7"/><path class="data-point" data-type="column" opacity="0.9" fill="rgb(237, 107, 33)" d="M605.9541984732824,83.42345576893197L673.2824427480916,83.42345576893197L673.2824427480916,83.42345576893197L605.9541984732824,83.42345576893197Z" transform="translate(0, 0)" id="point-5-8"/><path class="data-point" data-type="column" opacity="0.9" fill="rgb(237, 107, 33)" d="M680.763358778626,71.94721317638052L748.0916030534352,71.94721317638052L748.0916030534352,71.94721317638052L680.763358778626,71.94721317638052Z" transform="translate(0, 0)" id="point-5-9"/><path class="data-point" data-type="column" opacity="0.9" fill="rgb(237, 107, 33)" d="M755.5725190839695,81.65787998546254L822.9007633587787,81.65787998546254L822.9007633587787,81.65787998546254L755.5725190839695,81.65787998546254Z" transform="translate(0, 0)" id="point-5-10"/><path class="data-point" data-type="column" opacity="0.9" fill="rgb(237, 107, 33)" d="M830.3816793893129,104.16897122469818L897.7099236641221,104.16897122469818L897.7099236641221,104.16897122469818L830.3816793893129,104.16897122469818Z" transform="translate(0, 0)" id="point-5-11"/><path class="data-point" data-type="column" opacity="0.9" fill="rgb(237, 107, 33)" d="M905.1908396946565,75.4783647433194L972.5190839694657,75.4783647433194L972.5190839694657,75.4783647433194L905.1908396946565,75.4783647433194Z" transform="translate(0, 0)" id="point-5-12"/></g><g class="series" transform="translate(45,10)"><path class="data-point" data-type="column" opacity="0.9" fill="rgb(163, 65, 27)" d="M7.480916030534331,105.9345470081676L74.8091603053435,105.9345470081676L74.8091603053435,105.9345470081676L7.480916030534331,105.9345470081676Z" transform="translate(0, 0)" id="point-6-0"/><path class="data-point" data-type="column" opacity="0.9" fill="rgb(163, 65, 27)" d="M82.29007633587784,90.4857589028099L149.61832061068702,90.4857589028099L149.61832061068702,90.4857589028099L82.29007633587784,90.4857589028099Z" transform="translate(0, 0)" id="point-6-1"/><path class="data-point" data-type="column" opacity="0.9" fill="rgb(163, 65, 27)" d="M157.09923664122135,90.04436495694257L224.4274809160305,90.04436495694257L224.4274809160305,90.4857589028099L157.09923664122135,90.4857589028099Z" transform="translate(0, 0)" id="point-6-2"/><path class="data-point" data-type="column" opacity="0.9" fill="rgb(163, 65, 27)" d="M231.90839694656486,84.30624366066675L299.23664122137404,84.30624366066675L299.23664122137404,84.30624366066675L231.90839694656486,84.30624366066675Z" transform="translate(0, 0)" id="point-6-3"/><path class="data-point" data-type="column" opacity="0.9" fill="rgb(163, 65, 27)" d="M306.7175572519084,86.9546073358709L374.0458015267175,86.9546073358709L374.0458015267175,86.9546073358709L306.7175572519084,86.9546073358709Z" transform="translate(0, 0)" id="point-6-4"/><path class="data-point" data-type="column" opacity="0.9" fill="rgb(163, 65, 27)" d="M381.5267175572519,69.2988495011763L448.85496183206106,69.2988495011763L448.85496183206106,69.74024344704364L381.5267175572519,69.74024344704364Z" transform="translate(0, 0)" id="point-6-5"/><path class="data-point" data-type="column" opacity="0.9" fill="rgb(163, 65, 27)" d="M456.3358778625954,60.47097058382905L523.6641221374045,60.47097058382905L523.6641221374045,60.47097058382905L456.3358778625954,60.47097058382905Z" transform="translate(0, 0)" id="point-6-6"/><path class="data-point" data-type="column" opacity="0.9" fill="rgb(163, 65, 27)" d="M531.1450381679389,75.47836474331945L598.4732824427481,75.47836474331945L598.4732824427481,75.47836474331945L531.1450381679389,75.47836474331945Z" transform="translate(0, 0)" id="point-6-7"/><path class="data-point" data-type="column" opacity="0.9" fill="rgb(163, 65, 27)" d="M605.9541984732824,83.42345576893197L673.2824427480916,83.42345576893197L673.2824427480916,83.42345576893197L605.9541984732824,83.42345576893197Z" transform="translate(0, 0)" id="point-6-8"/><path class="data-point" data-type="column" opacity="0.9" fill="rgb(163, 65, 27)" d="M680.763358778626,71.94721317638052L748.0916030534352,71.94721317638052L748.0916030534352,71.94721317638052L680.763358778626,71.94721317638052Z" transform="translate(0, 0)" id="point-6-9"/><path class="data-point" data-type="column" opacity="0.9" fill="rgb(163, 65, 27)" d="M755.5725190839695,81.65787998546254L822.9007633587787,81.65787998546254L822.9007633587787,81.65787998546254L755.5725190839695,81.65787998546254Z" transform="translate(0, 0)" id="point-6-10"/><path class="data-point" data-type="column" opacity="0.9" fill="rgb(163, 65, 27)" d="M830.3816793893129,104.16897122469818L897.7099236641221,104.16897122469818L897.7099236641221,104.16897122469818L830.3816793893129,104.16897122469818Z" transform="translate(0, 0)" id="point-6-11"/><path class="data-point" data-type="column" opacity="0.9" fill="rgb(163, 65, 27)" d="M905.1908396946565,75.4783647433194L972.5190839694657,75.4783647433194L972.5190839694657,75.4783647433194L905.1908396946565,75.4783647433194Z" transform="translate(0, 0)" id="point-6-12"/></g><g class="series" transform="translate(45,10)"><path class="data-point" data-type="column" opacity="0.9" fill="rgb(12, 41, 57)" d="M7.480916030534331,81.21648603959521L74.8091603053435,81.21648603959521L74.8091603053435,105.9345470081676L7.480916030534331,105.9345470081676Z" transform="translate(0, 0)" id="point-7-0"/><path class="data-point" data-type="column" opacity="0.9" fill="rgb(12, 41, 57)" d="M82.29007633587784,75.91975868918685L149.61832061068702,75.91975868918685L149.61832061068702,90.4857589028099L82.29007633587784,90.4857589028099Z" transform="translate(0, 0)" id="point-7-1"/><path class="data-point" data-type="column" opacity="0.9" fill="rgb(12, 41, 57)" d="M157.09923664122135,75.91975868918685L224.4274809160305,75.91975868918685L224.4274809160305,90.04436495694257L157.09923664122135,90.04436495694257Z" transform="translate(0, 0)" id="point-7-2"/><path class="data-point" data-type="column" opacity="0.9" fill="rgb(12, 41, 57)" d="M231.90839694656486,71.94721317638056L299.23664122137404,71.94721317638056L299.23664122137404,84.30624366066675L231.90839694656486,84.30624366066675Z" transform="translate(0, 0)" id="point-7-3"/><path class="data-point" data-type="column" opacity="0.9" fill="rgb(12, 41, 57)" d="M306.7175572519084,68.85745555530896L374.0458015267175,68.85745555530896L374.0458015267175,86.9546073358709L306.7175572519084,86.9546073358709Z" transform="translate(0, 0)" id="point-7-4"/><path class="data-point" data-type="column" opacity="0.9" fill="rgb(12, 41, 57)" d="M381.5267175572519,58.26400085449219L448.85496183206106,58.26400085449219L448.85496183206106,69.2988495011763L381.5267175572519,69.2988495011763Z" transform="translate(0, 0)" id="point-7-5"/><path class="data-point" data-type="column" opacity="0.9" fill="rgb(12, 41, 57)" d="M456.3358778625954,55.17424323342064L523.6641221374045,55.17424323342064L523.6641221374045,60.47097058382905L456.3358778625954,60.47097058382905Z" transform="translate(0, 0)" id="point-7-6"/><path class="data-point" data-type="column" opacity="0.9" fill="rgb(12, 41, 57)" d="M531.1450381679389,60.91236452969645L598.4732824427481,60.91236452969645L598.4732824427481,75.47836474331945L531.1450381679389,75.47836474331945Z" transform="translate(0, 0)" id="point-7-7"/><path class="data-point" data-type="column" opacity="0.9" fill="rgb(12, 41, 57)" d="M605.9541984732824,70.18163739291099L673.2824427480916,70.18163739291099L673.2824427480916,83.42345576893197L605.9541984732824,83.42345576893197Z" transform="translate(0, 0)" id="point-7-8"/><path class="data-point" data-type="column" opacity="0.9" fill="rgb(12, 41, 57)" d="M680.763358778626,61.795152421431126L748.0916030534352,61.795152421431126L748.0916030534352,71.94721317638052L680.763358778626,71.94721317638052Z" transform="translate(0, 0)" id="point-7-9"/><path class="data-point" data-type="column" opacity="0.9" fill="rgb(12, 41, 57)" d="M755.5725190839695,65.76769793423742L822.9007633587787,65.76769793423742L822.9007633587787,81.65787998546254L755.5725190839695,81.65787998546254Z" transform="translate(0, 0)" id="point-7-10"/><path class="data-point" data-type="column" opacity="0.9" fill="rgb(12, 41, 57)" d="M830.3816793893129,82.09927393132995L897.7099236641221,82.09927393132995L897.7099236641221,104.16897122469818L830.3816793893129,104.16897122469818Z" transform="translate(0, 0)" id="point-7-11"/><path class="data-point" data-type="column" opacity="0.9" fill="rgb(12, 41, 57)" d="M905.1908396946565,63.1193342590332L972.5190839694657,63.1193342590332L972.5190839694657,75.4783647433194L905.1908396946565,75.4783647433194Z" transform="translate(0, 0)" id="point-7-12"/></g><g class="series" transform="translate(45,10)"><path class="data-point" data-type="column" opacity="0.9" fill="rgb(10, 66, 74)" d="M7.480916030534331,75.47836474331945L74.8091603053435,75.47836474331945L74.8091603053435,81.21648603959521L7.480916030534331,81.21648603959521Z" transform="translate(0, 0)" id="point-8-0"/><path class="data-point" data-type="column" opacity="0.9" fill="rgb(10, 66, 74)" d="M82.29007633587784,72.38860712224796L149.61832061068702,72.38860712224796L149.61832061068702,75.91975868918685L82.29007633587784,75.91975868918685Z" transform="translate(0, 0)" id="point-8-1"/><path class="data-point" data-type="column" opacity="0.9" fill="rgb(10, 66, 74)" d="M157.09923664122135,73.2713950139827L224.4274809160305,73.2713950139827L224.4274809160305,75.91975868918685L157.09923664122135,75.91975868918685Z" transform="translate(0, 0)" id="point-8-2"/><path class="data-point" data-type="column" opacity="0.9" fill="rgb(10, 66, 74)" d="M231.90839694656486,68.41606160944163L299.23664122137404,68.41606160944163L299.23664122137404,71.94721317638056L231.90839694656486,71.94721317638056Z" transform="translate(0, 0)" id="point-8-3"/><path class="data-point" data-type="column" opacity="0.9" fill="rgb(10, 66, 74)" d="M306.7175572519084,63.11933425903326L374.0458015267175,63.11933425903326L374.0458015267175,68.85745555530896L306.7175572519084,68.85745555530896Z" transform="translate(0, 0)" id="point-8-4"/><path class="data-point" data-type="column" opacity="0.9" fill="rgb(10, 66, 74)" d="M381.5267175572519,56.498425071022716L448.85496183206106,56.498425071022716L448.85496183206106,58.26400085449219L381.5267175572519,58.26400085449219Z" transform="translate(0, 0)" id="point-8-5"/><path class="data-point" data-type="column" opacity="0.9" fill="rgb(10, 66, 74)" d="M456.3358778625954,54.291455341685904L523.6641221374045,54.291455341685904L523.6641221374045,55.17424323342064L456.3358778625954,55.17424323342064Z" transform="translate(0, 0)" id="point-8-6"/><path class="data-point" data-type="column" opacity="0.9" fill="rgb(10, 66, 74)" d="M531.1450381679389,55.61563717928803L598.4732824427481,55.61563717928803L598.4732824427481,60.91236452969645L531.1450381679389,60.91236452969645Z" transform="translate(0, 0)" id="point-8-7"/><path class="data-point" data-type="column" opacity="0.9" fill="rgb(10, 66, 74)" d="M605.9541984732824,65.76769793423736L673.2824427480916,65.76769793423736L673.2824427480916,70.18163739291099L605.9541984732824,70.18163739291099Z" transform="translate(0, 0)" id="point-8-8"/><path class="data-point" data-type="column" opacity="0.9" fill="rgb(10, 66, 74)" d="M680.763358778626,58.26400085449219L748.0916030534352,58.26400085449219L748.0916030534352,61.795152421431126L680.763358778626,61.795152421431126Z" transform="translate(0, 0)" id="point-8-9"/><path class="data-point" data-type="column" opacity="0.9" fill="rgb(10, 66, 74)" d="M755.5725190839695,60.91236452969645L822.9007633587787,60.91236452969645L822.9007633587787,65.76769793423742L755.5725190839695,65.76769793423742Z" transform="translate(0, 0)" id="point-8-10"/><path class="data-point" data-type="column" opacity="0.9" fill="rgb(10, 66, 74)" d="M830.3816793893129,75.03697079745211L897.7099236641221,75.03697079745211L897.7099236641221,82.09927393132995L830.3816793893129,82.09927393132995Z" transform="translate(0, 0)" id="point-8-11"/><path class="data-point" data-type="column" opacity="0.9" fill="rgb(10, 66, 74)" d="M905.1908396946565,60.47097058382905L972.5190839694657,60.47097058382905L972.5190839694657,63.1193342590332L905.1908396946565,63.1193342590332Z" transform="translate(0, 0)" id="point-8-12"/></g><g class="series" transform="translate(45,10)"><path class="data-point" data-type="column" opacity="0.9" fill="rgb(222, 98, 31)" d="M7.480916030534331,69.74024344704375L74.8091603053435,69.74024344704375L74.8091603053435,75.47836474331945L7.480916030534331,75.47836474331945Z" transform="translate(0, 0)" id="point-9-0"/><path class="data-point" data-type="column" opacity="0.9" fill="rgb(222, 98, 31)" d="M82.29007633587784,69.2988495011764L149.61832061068702,69.2988495011764L149.61832061068702,72.38860712224796L82.29007633587784,72.38860712224796Z" transform="translate(0, 0)" id="point-9-1"/><path class="data-point" data-type="column" opacity="0.9" fill="rgb(222, 98, 31)" d="M157.09923664122135,70.62303133877855L224.4274809160305,70.62303133877855L224.4274809160305,73.2713950139827L157.09923664122135,73.2713950139827Z" transform="translate(0, 0)" id="point-9-2"/><path class="data-point" data-type="column" opacity="0.9" fill="rgb(222, 98, 31)" d="M231.90839694656486,66.20909188010481L299.23664122137404,66.20909188010481L299.23664122137404,68.41606160944163L231.90839694656486,68.41606160944163Z" transform="translate(0, 0)" id="point-9-3"/><path class="data-point" data-type="column" opacity="0.9" fill="rgb(222, 98, 31)" d="M306.7175572519084,60.02957663796171L374.0458015267175,60.02957663796171L374.0458015267175,63.11933425903326L306.7175572519084,63.11933425903326Z" transform="translate(0, 0)" id="point-9-4"/><path class="data-point" data-type="column" opacity="0.9" fill="rgb(222, 98, 31)" d="M381.5267175572519,54.73284928755324L448.85496183206106,54.73284928755324L448.85496183206106,56.498425071022716L381.5267175572519,56.498425071022716Z" transform="translate(0, 0)" id="point-9-5"/><path class="data-point" data-type="column" opacity="0.9" fill="rgb(222, 98, 31)" d="M456.3358778625954,53.40866744995117L523.6641221374045,53.40866744995117L523.6641221374045,54.291455341685904L456.3358778625954,54.291455341685904Z" transform="translate(0, 0)" id="point-9-6"/><path class="data-point" data-type="column" opacity="0.9" fill="rgb(222, 98, 31)" d="M531.1450381679389,52.96727350408388L598.4732824427481,52.96727350408388L598.4732824427481,55.61563717928803L531.1450381679389,55.61563717928803Z" transform="translate(0, 0)" id="point-9-7"/><path class="data-point" data-type="column" opacity="0.9" fill="rgb(222, 98, 31)" d="M605.9541984732824,63.56072820490055L673.2824427480916,63.56072820490055L673.2824427480916,65.76769793423736L605.9541984732824,65.76769793423736Z" transform="translate(0, 0)" id="point-9-8"/><path class="data-point" data-type="column" opacity="0.9" fill="rgb(222, 98, 31)" d="M680.763358778626,56.057031125155376L748.0916030534352,56.057031125155376L748.0916030534352,58.26400085449219L680.763358778626,58.26400085449219Z" transform="translate(0, 0)" id="point-9-9"/><path class="data-point" data-type="column" opacity="0.9" fill="rgb(222, 98, 31)" d="M755.5725190839695,56.939819016890105L822.9007633587787,56.939819016890105L822.9007633587787,60.91236452969645L755.5725190839695,60.91236452969645Z" transform="translate(0, 0)" id="point-9-10"/><path class="data-point" data-type="column" opacity="0.9" fill="rgb(222, 98, 31)" d="M830.3816793893129,71.50581923051323L897.7099236641221,71.50581923051323L897.7099236641221,75.03697079745211L830.3816793893129,75.03697079745211Z" transform="translate(0, 0)" id="point-9-11"/><path class="data-point" data-type="column" opacity="0.9" fill="rgb(222, 98, 31)" d="M905.1908396946565,58.26400085449219L972.5190839694657,58.26400085449219L972.5190839694657,60.47097058382905L905.1908396946565,60.47097058382905Z" transform="translate(0, 0)" id="point-9-12"/></g><g class="series" transform="translate(45,10)"><path class="data-point" data-type="column" opacity="0.9" fill="rgb(8, 78, 82)" d="M7.480916030534331,65.76769793423742L74.8091603053435,65.76769793423742L74.8091603053435,69.74024344704375L7.480916030534331,69.74024344704375Z" transform="translate(0, 0)" id="point-10-0"/><path class="data-point" data-type="column" opacity="0.9" fill="rgb(8, 78, 82)" d="M82.29007633587784,66.6504858259722L149.61832061068702,66.6504858259722L149.61832061068702,69.2988495011764L82.29007633587784,69.2988495011764Z" transform="translate(0, 0)" id="point-10-1"/><path class="data-point" data-type="column" opacity="0.9" fill="rgb(8, 78, 82)" d="M157.09923664122135,69.29884950117646L224.4274809160305,69.29884950117646L224.4274809160305,70.62303133877855L157.09923664122135,70.62303133877855Z" transform="translate(0, 0)" id="point-10-2"/><path class="data-point" data-type="column" opacity="0.9" fill="rgb(8, 78, 82)" d="M231.90839694656486,64.00212215076799L299.23664122137404,64.00212215076799L299.23664122137404,66.20909188010481L231.90839694656486,66.20909188010481Z" transform="translate(0, 0)" id="point-10-3"/><path class="data-point" data-type="column" opacity="0.9" fill="rgb(8, 78, 82)" d="M306.7175572519084,59.146788746226925L374.0458015267175,59.146788746226925L374.0458015267175,60.02957663796171L306.7175572519084,60.02957663796171Z" transform="translate(0, 0)" id="point-10-4"/><path class="data-point" data-type="column" opacity="0.9" fill="rgb(8, 78, 82)" d="M381.5267175572519,53.85006139581851L448.85496183206106,53.85006139581851L448.85496183206106,54.73284928755324L381.5267175572519,54.73284928755324Z" transform="translate(0, 0)" id="point-10-5"/><path class="data-point" data-type="column" opacity="0.9" fill="rgb(8, 78, 82)" d="M456.3358778625954,52.52587955821643L523.6641221374045,52.52587955821643L523.6641221374045,53.40866744995117L456.3358778625954,53.40866744995117Z" transform="translate(0, 0)" id="point-10-6"/><path class="data-point" data-type="column" opacity="0.9" fill="rgb(8, 78, 82)" d="M531.1450381679389,51.6430916664818L598.4732824427481,51.6430916664818L598.4732824427481,52.96727350408388L531.1450381679389,52.96727350408388Z" transform="translate(0, 0)" id="point-10-7"/><path class="data-point" data-type="column" opacity="0.9" fill="rgb(8, 78, 82)" d="M605.9541984732824,62.67794031316581L673.2824427480916,62.67794031316581L673.2824427480916,63.56072820490055L605.9541984732824,63.56072820490055Z" transform="translate(0, 0)" id="point-10-8"/><path class="data-point" data-type="column" opacity="0.9" fill="rgb(8, 78, 82)" d="M680.763358778626,55.17424323342064L748.0916030534352,55.17424323342064L748.0916030534352,56.057031125155376L680.763358778626,56.057031125155376Z" transform="translate(0, 0)" id="point-10-9"/><path class="data-point" data-type="column" opacity="0.9" fill="rgb(8, 78, 82)" d="M755.5725190839695,56.057031125155376L822.9007633587787,56.057031125155376L822.9007633587787,56.939819016890105L755.5725190839695,56.939819016890105Z" transform="translate(0, 0)" id="point-10-10"/><path class="data-point" data-type="column" opacity="0.9" fill="rgb(8, 78, 82)" d="M830.3816793893129,69.2988495011764L897.7099236641221,69.2988495011764L897.7099236641221,71.50581923051323L830.3816793893129,71.50581923051323Z" transform="translate(0, 0)" id="point-10-11"/><path class="data-point" data-type="column" opacity="0.9" fill="rgb(8, 78, 82)" d="M905.1908396946565,57.38121296275745L972.5190839694657,57.38121296275745L972.5190839694657,58.26400085449219L905.1908396946565,58.26400085449219Z" transform="translate(0, 0)" id="point-10-12"/></g><g class="series" transform="translate(45,10)"><path class="data-point" data-type="column" opacity="0.9" fill="rgb(7, 90, 90)" d="M7.480916030534331,64.88491004250268L74.8091603053435,64.88491004250268L74.8091603053435,65.76769793423742L7.480916030534331,65.76769793423742Z" transform="translate(0, 0)" id="point-11-0"/><path class="data-point" data-type="column" opacity="0.9" fill="rgb(7, 90, 90)" d="M82.29007633587784,65.76769793423746L149.61832061068702,65.76769793423746L149.61832061068702,66.6504858259722L82.29007633587784,66.6504858259722Z" transform="translate(0, 0)" id="point-11-1"/><path class="data-point" data-type="column" opacity="0.9" fill="rgb(7, 90, 90)" d="M157.09923664122135,68.41606160944173L224.4274809160305,68.41606160944173L224.4274809160305,69.29884950117646L157.09923664122135,69.29884950117646Z" transform="translate(0, 0)" id="point-11-2"/><path class="data-point" data-type="column" opacity="0.9" fill="rgb(7, 90, 90)" d="M231.90839694656486,63.560728204900656L299.23664122137404,63.560728204900656L299.23664122137404,64.00212215076799L231.90839694656486,64.00212215076799Z" transform="translate(0, 0)" id="point-11-3"/><path class="data-point" data-type="column" opacity="0.9" fill="rgb(7, 90, 90)" d="M306.7175572519084,58.70539480035958L374.0458015267175,58.70539480035958L374.0458015267175,59.146788746226925L306.7175572519084,59.146788746226925Z" transform="translate(0, 0)" id="point-11-4"/><path class="data-point" data-type="column" opacity="0.9" fill="rgb(7, 90, 90)" d="M381.5267175572519,53.85006139581851L448.85496183206106,53.85006139581851L448.85496183206106,53.85006139581851L381.5267175572519,53.85006139581851Z" transform="translate(0, 0)" id="point-11-5"/><path class="data-point" data-type="column" opacity="0.9" fill="rgb(7, 90, 90)" d="M456.3358778625954,52.08448561234909L523.6641221374045,52.08448561234909L523.6641221374045,52.52587955821643L456.3358778625954,52.52587955821643Z" transform="translate(0, 0)" id="point-11-6"/><path class="data-point" data-type="column" opacity="0.9" fill="rgb(7, 90, 90)" d="M531.1450381679389,51.20169772061446L598.4732824427481,51.20169772061446L598.4732824427481,51.6430916664818L531.1450381679389,51.6430916664818Z" transform="translate(0, 0)" id="point-11-7"/><path class="data-point" data-type="column" opacity="0.9" fill="rgb(7, 90, 90)" d="M605.9541984732824,62.236546367298466L673.2824427480916,62.236546367298466L673.2824427480916,62.67794031316581L605.9541984732824,62.67794031316581Z" transform="translate(0, 0)" id="point-11-8"/><path class="data-point" data-type="column" opacity="0.9" fill="rgb(7, 90, 90)" d="M680.763358778626,54.73284928755329L748.0916030534352,54.73284928755329L748.0916030534352,55.17424323342064L680.763358778626,55.17424323342064Z" transform="translate(0, 0)" id="point-11-9"/><path class="data-point" data-type="column" opacity="0.9" fill="rgb(7, 90, 90)" d="M755.5725190839695,56.057031125155376L822.9007633587787,56.057031125155376L822.9007633587787,56.057031125155376L755.5725190839695,56.057031125155376Z" transform="translate(0, 0)" id="point-11-10"/><path class="data-point" data-type="column" opacity="0.9" fill="rgb(7, 90, 90)" d="M830.3816793893129,68.85745555530907L897.7099236641221,68.85745555530907L897.7099236641221,69.2988495011764L830.3816793893129,69.2988495011764Z" transform="translate(0, 0)" id="point-11-11"/><path class="data-point" data-type="column" opacity="0.9" fill="rgb(7, 90, 90)" d="M905.1908396946565,56.939819016890105L972.5190839694657,56.939819016890105L972.5190839694657,57.38121296275745L905.1908396946565,57.38121296275745Z" transform="translate(0, 0)" id="point-11-12"/></g><g class="series" transform="translate(45,10)"><path class="data-point" data-type="column" opacity="0.9" fill="rgb(5, 113, 106)" d="M7.480916030534331,63.1193342590332L74.8091603053435,63.1193342590332L74.8091603053435,64.88491004250268L7.480916030534331,64.88491004250268Z" transform="translate(0, 0)" id="point-12-0"/><path class="data-point" data-type="column" opacity="0.9" fill="rgb(5, 113, 106)" d="M82.29007633587784,64.88491004250272L149.61832061068702,64.88491004250272L149.61832061068702,65.76769793423746L82.29007633587784,65.76769793423746Z" transform="translate(0, 0)" id="point-12-1"/><path class="data-point" data-type="column" opacity="0.9" fill="rgb(5, 113, 106)" d="M157.09923664122135,66.6504858259722L224.4274809160305,66.6504858259722L224.4274809160305,68.41606160944173L157.09923664122135,68.41606160944173Z" transform="translate(0, 0)" id="point-12-2"/><path class="data-point" data-type="column" opacity="0.9" fill="rgb(5, 113, 106)" d="M231.90839694656486,63.119334259033316L299.23664122137404,63.119334259033316L299.23664122137404,63.560728204900656L231.90839694656486,63.560728204900656Z" transform="translate(0, 0)" id="point-12-3"/><path class="data-point" data-type="column" opacity="0.9" fill="rgb(5, 113, 106)" d="M306.7175572519084,56.498425071022766L374.0458015267175,56.498425071022766L374.0458015267175,58.70539480035958L306.7175572519084,58.70539480035958Z" transform="translate(0, 0)" id="point-12-4"/><path class="data-point" data-type="column" opacity="0.9" fill="rgb(5, 113, 106)" d="M381.5267175572519,52.96727350408377L448.85496183206106,52.96727350408377L448.85496183206106,53.85006139581851L381.5267175572519,53.85006139581851Z" transform="translate(0, 0)" id="point-12-5"/><path class="data-point" data-type="column" opacity="0.9" fill="rgb(5, 113, 106)" d="M456.3358778625954,51.643091666481745L523.6641221374045,51.643091666481745L523.6641221374045,52.08448561234909L456.3358778625954,52.08448561234909Z" transform="translate(0, 0)" id="point-12-6"/><path class="data-point" data-type="column" opacity="0.9" fill="rgb(5, 113, 106)" d="M531.1450381679389,49.877515883012386L598.4732824427481,49.877515883012386L598.4732824427481,51.20169772061446L531.1450381679389,51.20169772061446Z" transform="translate(0, 0)" id="point-12-7"/><path class="data-point" data-type="column" opacity="0.9" fill="rgb(5, 113, 106)" d="M605.9541984732824,61.35375847556368L673.2824427480916,61.35375847556368L673.2824427480916,62.236546367298466L605.9541984732824,62.236546367298466Z" transform="translate(0, 0)" id="point-12-8"/><path class="data-point" data-type="column" opacity="0.9" fill="rgb(5, 113, 106)" d="M680.763358778626,53.85006139581856L748.0916030534352,53.85006139581856L748.0916030534352,54.73284928755329L680.763358778626,54.73284928755329Z" transform="translate(0, 0)" id="point-12-9"/><path class="data-point" data-type="column" opacity="0.9" fill="rgb(5, 113, 106)" d="M755.5725190839695,54.73284928755329L822.9007633587787,54.73284928755329L822.9007633587787,56.057031125155376L755.5725190839695,56.057031125155376Z" transform="translate(0, 0)" id="point-12-10"/><path class="data-point" data-type="column" opacity="0.9" fill="rgb(5, 113, 106)" d="M830.3816793893129,67.53327371770699L897.7099236641221,67.53327371770699L897.7099236641221,68.85745555530907L830.3816793893129,68.85745555530907Z" transform="translate(0, 0)" id="point-12-11"/><path class="data-point" data-type="column" opacity="0.9" fill="rgb(5, 113, 106)" d="M905.1908396946565,56.057031125155376L972.5190839694657,56.057031125155376L972.5190839694657,56.939819016890105L905.1908396946565,56.939819016890105Z" transform="translate(0, 0)" id="point-12-12"/></g><g class="series" transform="translate(45,10)"><path class="data-point" data-type="column" opacity="0.9" fill="rgb(3, 125, 114)" d="M7.480916030534331,60.47097058382905L74.8091603053435,60.47097058382905L74.8091603053435,63.1193342590332L7.480916030534331,63.1193342590332Z" transform="translate(0, 0)" id="point-13-0"/><path class="data-point" data-type="column" opacity="0.9" fill="rgb(3, 125, 114)" d="M82.29007633587784,63.11933425903326L149.61832061068702,63.11933425903326L149.61832061068702,64.88491004250272L82.29007633587784,64.88491004250272Z" transform="translate(0, 0)" id="point-13-1"/><path class="data-point" data-type="column" opacity="0.9" fill="rgb(3, 125, 114)" d="M157.09923664122135,64.88491004250272L224.4274809160305,64.88491004250272L224.4274809160305,66.6504858259722L157.09923664122135,66.6504858259722Z" transform="translate(0, 0)" id="point-13-2"/><path class="data-point" data-type="column" opacity="0.9" fill="rgb(3, 125, 114)" d="M231.90839694656486,61.79515242143123L299.23664122137404,61.79515242143123L299.23664122137404,63.119334259033316L231.90839694656486,63.119334259033316Z" transform="translate(0, 0)" id="point-13-3"/><path class="data-point" data-type="column" opacity="0.9" fill="rgb(3, 125, 114)" d="M306.7175572519084,53.850061395818614L374.0458015267175,53.850061395818614L374.0458015267175,56.498425071022766L306.7175572519084,56.498425071022766Z" transform="translate(0, 0)" id="point-13-4"/><path class="data-point" data-type="column" opacity="0.9" fill="rgb(3, 125, 114)" d="M381.5267175572519,51.20169772061425L448.85496183206106,51.20169772061425L448.85496183206106,52.96727350408377L381.5267175572519,52.96727350408377Z" transform="translate(0, 0)" id="point-13-5"/><path class="data-point" data-type="column" opacity="0.9" fill="rgb(3, 125, 114)" d="M456.3358778625954,51.201697720614405L523.6641221374045,51.201697720614405L523.6641221374045,51.643091666481745L456.3358778625954,51.643091666481745Z" transform="translate(0, 0)" id="point-13-6"/><path class="data-point" data-type="column" opacity="0.9" fill="rgb(3, 125, 114)" d="M531.1450381679389,48.99472799127765L598.4732824427481,48.99472799127765L598.4732824427481,49.877515883012386L531.1450381679389,49.877515883012386Z" transform="translate(0, 0)" id="point-13-7"/><path class="data-point" data-type="column" opacity="0.9" fill="rgb(3, 125, 114)" d="M605.9541984732824,60.029576637961604L673.2824427480916,60.029576637961604L673.2824427480916,61.35375847556368L605.9541984732824,61.35375847556368Z" transform="translate(0, 0)" id="point-13-8"/><path class="data-point" data-type="column" opacity="0.9" fill="rgb(3, 125, 114)" d="M680.763358778626,52.96727350408383L748.0916030534352,52.96727350408383L748.0916030534352,53.85006139581856L680.763358778626,53.85006139581856Z" transform="translate(0, 0)" id="point-13-9"/><path class="data-point" data-type="column" opacity="0.9" fill="rgb(3, 125, 114)" d="M755.5725190839695,53.40866744995122L822.9007633587787,53.40866744995122L822.9007633587787,54.73284928755329L755.5725190839695,54.73284928755329Z" transform="translate(0, 0)" id="point-13-10"/><path class="data-point" data-type="column" opacity="0.9" fill="rgb(3, 125, 114)" d="M830.3816793893129,63.560728204900656L897.7099236641221,63.560728204900656L897.7099236641221,67.53327371770699L830.3816793893129,67.53327371770699Z" transform="translate(0, 0)" id="point-13-11"/><path class="data-point" data-type="column" opacity="0.9" fill="rgb(3, 125, 114)" d="M905.1908396946565,55.61563717928803L972.5190839694657,55.61563717928803L972.5190839694657,56.057031125155376L905.1908396946565,56.057031125155376Z" transform="translate(0, 0)" id="point-13-12"/></g><g class="series" transform="translate(45,10)"><path class="data-point" data-type="column" opacity="0.9" fill="rgb(2, 138, 122)" d="M7.480916030534331,56.498425071022716L74.8091603053435,56.498425071022716L74.8091603053435,60.47097058382905L7.480916030534331,60.47097058382905Z" transform="translate(0, 0)" id="point-14-0"/><path class="data-point" data-type="column" opacity="0.9" fill="rgb(2, 138, 122)" d="M82.29007633587784,60.91236452969645L149.61832061068702,60.91236452969645L149.61832061068702,63.11933425903326L82.29007633587784,63.11933425903326Z" transform="translate(0, 0)" id="point-14-1"/><path class="data-point" data-type="column" opacity="0.9" fill="rgb(2, 138, 122)" d="M157.09923664122135,62.23654636729858L224.4274809160305,62.23654636729858L224.4274809160305,64.88491004250272L157.09923664122135,64.88491004250272Z" transform="translate(0, 0)" id="point-14-2"/><path class="data-point" data-type="column" opacity="0.9" fill="rgb(2, 138, 122)" d="M231.90839694656486,60.02957663796177L299.23664122137404,60.02957663796177L299.23664122137404,61.79515242143123L231.90839694656486,61.79515242143123Z" transform="translate(0, 0)" id="point-14-3"/><path class="data-point" data-type="column" opacity="0.9" fill="rgb(2, 138, 122)" d="M306.7175572519084,50.760303774747065L374.0458015267175,50.760303774747065L374.0458015267175,53.850061395818614L306.7175572519084,53.850061395818614Z" transform="translate(0, 0)" id="point-14-4"/><path class="data-point" data-type="column" opacity="0.9" fill="rgb(2, 138, 122)" d="M381.5267175572519,47.229152207807964L448.85496183206106,47.229152207807964L448.85496183206106,51.20169772061425L381.5267175572519,51.20169772061425Z" transform="translate(0, 0)" id="point-14-5"/><path class="data-point" data-type="column" opacity="0.9" fill="rgb(2, 138, 122)" d="M456.3358778625954,50.31890982887962L523.6641221374045,50.31890982887962L523.6641221374045,51.201697720614405L456.3358778625954,51.201697720614405Z" transform="translate(0, 0)" id="point-14-6"/><path class="data-point" data-type="column" opacity="0.9" fill="rgb(2, 138, 122)" d="M531.1450381679389,46.34636431607344L598.4732824427481,46.34636431607344L598.4732824427481,48.99472799127765L531.1450381679389,48.99472799127765Z" transform="translate(0, 0)" id="point-14-7"/><path class="data-point" data-type="column" opacity="0.9" fill="rgb(2, 138, 122)" d="M605.9541984732824,56.939819016890056L673.2824427480916,56.939819016890056L673.2824427480916,60.029576637961604L605.9541984732824,60.029576637961604Z" transform="translate(0, 0)" id="point-14-8"/><path class="data-point" data-type="column" opacity="0.9" fill="rgb(2, 138, 122)" d="M680.763358778626,51.2016977206143L748.0916030534352,51.2016977206143L748.0916030534352,52.96727350408383L680.763358778626,52.96727350408383Z" transform="translate(0, 0)" id="point-14-9"/><path class="data-point" data-type="column" opacity="0.9" fill="rgb(2, 138, 122)" d="M755.5725190839695,50.760303774747065L822.9007633587787,50.760303774747065L822.9007633587787,53.40866744995122L755.5725190839695,53.40866744995122Z" transform="translate(0, 0)" id="point-14-10"/><path class="data-point" data-type="column" opacity="0.9" fill="rgb(2, 138, 122)" d="M830.3816793893129,60.02957663796177L897.7099236641221,60.02957663796177L897.7099236641221,63.560728204900656L830.3816793893129,63.560728204900656Z" transform="translate(0, 0)" id="point-14-11"/><path class="data-point" data-type="column" opacity="0.9" fill="rgb(2, 138, 122)" d="M905.1908396946565,49.87751588301228L972.5190839694657,49.87751588301228L972.5190839694657,55.61563717928803L905.1908396946565,55.61563717928803Z" transform="translate(0, 0)" id="point-14-12"/></g><g class="series" transform="translate(45,10)"><path class="data-point" data-type="column" opacity="0.9" fill="rgb(11, 54, 66)" d="M7.480916030534331,55.61563717928798L74.8091603053435,55.61563717928798L74.8091603053435,56.498425071022716L7.480916030534331,56.498425071022716Z" transform="translate(0, 0)" id="point-15-0"/><path class="data-point" data-type="column" opacity="0.9" fill="rgb(11, 54, 66)" d="M82.29007633587784,60.02957663796171L149.61832061068702,60.02957663796171L149.61832061068702,60.91236452969645L82.29007633587784,60.91236452969645Z" transform="translate(0, 0)" id="point-15-1"/><path class="data-point" data-type="column" opacity="0.9" fill="rgb(11, 54, 66)" d="M157.09923664122135,61.79515242143123L224.4274809160305,61.79515242143123L224.4274809160305,62.23654636729858L157.09923664122135,62.23654636729858Z" transform="translate(0, 0)" id="point-15-2"/><path class="data-point" data-type="column" opacity="0.9" fill="rgb(11, 54, 66)" d="M231.90839694656486,59.58818269209442L299.23664122137404,59.58818269209442L299.23664122137404,60.02957663796177L231.90839694656486,60.02957663796177Z" transform="translate(0, 0)" id="point-15-3"/><path class="data-point" data-type="column" opacity="0.9" fill="rgb(11, 54, 66)" d="M306.7175572519084,50.318909828879725L374.0458015267175,50.318909828879725L374.0458015267175,50.760303774747065L306.7175572519084,50.760303774747065Z" transform="translate(0, 0)" id="point-15-4"/><path class="data-point" data-type="column" opacity="0.9" fill="rgb(11, 54, 66)" d="M381.5267175572519,46.78775826194062L448.85496183206106,46.78775826194062L448.85496183206106,47.229152207807964L381.5267175572519,47.229152207807964Z" transform="translate(0, 0)" id="point-15-5"/><path class="data-point" data-type="column" opacity="0.9" fill="rgb(11, 54, 66)" d="M456.3358778625954,50.31890982887962L523.6641221374045,50.31890982887962L523.6641221374045,50.31890982887962L456.3358778625954,50.31890982887962Z" transform="translate(0, 0)" id="point-15-6"/><path class="data-point" data-type="column" opacity="0.9" fill="rgb(11, 54, 66)" d="M531.1450381679389,46.34636431607344L598.4732824427481,46.34636431607344L598.4732824427481,46.34636431607344L531.1450381679389,46.34636431607344Z" transform="translate(0, 0)" id="point-15-7"/><path class="data-point" data-type="column" opacity="0.9" fill="rgb(11, 54, 66)" d="M605.9541984732824,56.498425071022716L673.2824427480916,56.498425071022716L673.2824427480916,56.939819016890056L605.9541984732824,56.939819016890056Z" transform="translate(0, 0)" id="point-15-8"/><path class="data-point" data-type="column" opacity="0.9" fill="rgb(11, 54, 66)" d="M680.763358778626,51.2016977206143L748.0916030534352,51.2016977206143L748.0916030534352,51.2016977206143L680.763358778626,51.2016977206143Z" transform="translate(0, 0)" id="point-15-9"/><path class="data-point" data-type="column" opacity="0.9" fill="rgb(11, 54, 66)" d="M755.5725190839695,50.760303774747065L822.9007633587787,50.760303774747065L822.9007633587787,50.760303774747065L755.5725190839695,50.760303774747065Z" transform="translate(0, 0)" id="point-15-10"/><path class="data-point" data-type="column" opacity="0.9" fill="rgb(11, 54, 66)" d="M830.3816793893129,59.58818269209442L897.7099236641221,59.58818269209442L897.7099236641221,60.02957663796177L830.3816793893129,60.02957663796177Z" transform="translate(0, 0)" id="point-15-11"/><path class="data-point" data-type="column" opacity="0.9" fill="rgb(11, 54, 66)" d="M905.1908396946565,49.87751588301228L972.5190839694657,49.87751588301228L972.5190839694657,49.87751588301228L905.1908396946565,49.87751588301228Z" transform="translate(0, 0)" id="point-15-12"/></g><g class="series" transform="translate(45,10)"><path class="data-point" data-type="column" opacity="0.9" fill="rgb(11, 54, 66)" d="M7.480916030534331,55.17424323342064L74.8091603053435,55.17424323342064L74.8091603053435,55.61563717928798L7.480916030534331,55.61563717928798Z" transform="translate(0, 0)" id="point-16-0"/><path class="data-point" data-type="column" opacity="0.9" fill="rgb(11, 54, 66)" d="M82.29007633587784,59.58818269209437L149.61832061068702,59.58818269209437L149.61832061068702,60.02957663796171L82.29007633587784,60.02957663796171Z" transform="translate(0, 0)" id="point-16-1"/><path class="data-point" data-type="column" opacity="0.9" fill="rgb(11, 54, 66)" d="M157.09923664122135,61.79515242143123L224.4274809160305,61.79515242143123L224.4274809160305,61.79515242143123L157.09923664122135,61.79515242143123Z" transform="translate(0, 0)" id="point-16-2"/><path class="data-point" data-type="column" opacity="0.9" fill="rgb(11, 54, 66)" d="M231.90839694656486,59.58818269209442L299.23664122137404,59.58818269209442L299.23664122137404,59.58818269209442L231.90839694656486,59.58818269209442Z" transform="translate(0, 0)" id="point-16-3"/><path class="data-point" data-type="column" opacity="0.9" fill="rgb(11, 54, 66)" d="M306.7175572519084,50.318909828879725L374.0458015267175,50.318909828879725L374.0458015267175,50.318909828879725L306.7175572519084,50.318909828879725Z" transform="translate(0, 0)" id="point-16-4"/><path class="data-point" data-type="column" opacity="0.9" fill="rgb(11, 54, 66)" d="M381.5267175572519,46.78775826194062L448.85496183206106,46.78775826194062L448.85496183206106,46.78775826194062L381.5267175572519,46.78775826194062Z" transform="translate(0, 0)" id="point-16-5"/><path class="data-point" data-type="column" opacity="0.9" fill="rgb(11, 54, 66)" d="M456.3358778625954,50.31890982887962L523.6641221374045,50.31890982887962L523.6641221374045,50.31890982887962L456.3358778625954,50.31890982887962Z" transform="translate(0, 0)" id="point-16-6"/><path class="data-point" data-type="column" opacity="0.9" fill="rgb(11, 54, 66)" d="M531.1450381679389,46.34636431607344L598.4732824427481,46.34636431607344L598.4732824427481,46.34636431607344L531.1450381679389,46.34636431607344Z" transform="translate(0, 0)" id="point-16-7"/><path class="data-point" data-type="column" opacity="0.9" fill="rgb(11, 54, 66)" d="M605.9541984732824,56.498425071022716L673.2824427480916,56.498425071022716L673.2824427480916,56.498425071022716L605.9541984732824,56.498425071022716Z" transform="translate(0, 0)" id="point-16-8"/><path class="data-point" data-type="column" opacity="0.9" fill="rgb(11, 54, 66)" d="M680.763358778626,51.2016977206143L748.0916030534352,51.2016977206143L748.0916030534352,51.2016977206143L680.763358778626,51.2016977206143Z" transform="translate(0, 0)" id="point-16-9"/><path class="data-point" data-type="column" opacity="0.9" fill="rgb(11, 54, 66)" d="M755.5725190839695,50.760303774747065L822.9007633587787,50.760303774747065L822.9007633587787,50.760303774747065L755.5725190839695,50.760303774747065Z" transform="translate(0, 0)" id="point-16-10"/><path class="data-point" data-type="column" opacity="0.9" fill="rgb(11, 54, 66)" d="M830.3816793893129,59.58818269209442L897.7099236641221,59.58818269209442L897.7099236641221,59.58818269209442L830.3816793893129,59.58818269209442Z" transform="translate(0, 0)" id="point-16-11"/><path class="data-point" data-type="column" opacity="0.9" fill="rgb(11, 54, 66)" d="M905.1908396946565,49.87751588301228L972.5190839694657,49.87751588301228L972.5190839694657,49.87751588301228L905.1908396946565,49.87751588301228Z" transform="translate(0, 0)" id="point-16-12"/></g><g class="series" transform="translate(45,10)"><path class="data-point" data-type="column" opacity="0.9" fill="rgb(6, 102, 98)" d="M7.480916030534331,55.17424323342064L74.8091603053435,55.17424323342064L74.8091603053435,55.17424323342064L7.480916030534331,55.17424323342064Z" transform="translate(0, 0)" id="point-17-0"/><path class="data-point" data-type="column" opacity="0.9" fill="rgb(6, 102, 98)" d="M82.29007633587784,59.58818269209437L149.61832061068702,59.58818269209437L149.61832061068702,59.58818269209437L82.29007633587784,59.58818269209437Z" transform="translate(0, 0)" id="point-17-1"/><path class="data-point" data-type="column" opacity="0.9" fill="rgb(6, 102, 98)" d="M157.09923664122135,61.35375847556389L224.4274809160305,61.35375847556389L224.4274809160305,61.79515242143123L157.09923664122135,61.79515242143123Z" transform="translate(0, 0)" id="point-17-2"/><path class="data-point" data-type="column" opacity="0.9" fill="rgb(6, 102, 98)" d="M231.90839694656486,59.58818269209442L299.23664122137404,59.58818269209442L299.23664122137404,59.58818269209442L231.90839694656486,59.58818269209442Z" transform="translate(0, 0)" id="point-17-3"/><path class="data-point" data-type="column" opacity="0.9" fill="rgb(6, 102, 98)" d="M306.7175572519084,50.318909828879725L374.0458015267175,50.318909828879725L374.0458015267175,50.318909828879725L306.7175572519084,50.318909828879725Z" transform="translate(0, 0)" id="point-17-4"/><path class="data-point" data-type="column" opacity="0.9" fill="rgb(6, 102, 98)" d="M381.5267175572519,46.78775826194062L448.85496183206106,46.78775826194062L448.85496183206106,46.78775826194062L381.5267175572519,46.78775826194062Z" transform="translate(0, 0)" id="point-17-5"/><path class="data-point" data-type="column" opacity="0.9" fill="rgb(6, 102, 98)" d="M456.3358778625954,50.31890982887962L523.6641221374045,50.31890982887962L523.6641221374045,50.31890982887962L456.3358778625954,50.31890982887962Z" transform="translate(0, 0)" id="point-17-6"/><path class="data-point" data-type="column" opacity="0.9" fill="rgb(6, 102, 98)" d="M531.1450381679389,46.34636431607344L598.4732824427481,46.34636431607344L598.4732824427481,46.34636431607344L531.1450381679389,46.34636431607344Z" transform="translate(0, 0)" id="point-17-7"/><path class="data-point" data-type="column" opacity="0.9" fill="rgb(6, 102, 98)" d="M605.9541984732824,56.498425071022716L673.2824427480916,56.498425071022716L673.2824427480916,56.498425071022716L605.9541984732824,56.498425071022716Z" transform="translate(0, 0)" id="point-17-8"/><path class="data-point" data-type="column" opacity="0.9" fill="rgb(6, 102, 98)" d="M680.763358778626,51.2016977206143L748.0916030534352,51.2016977206143L748.0916030534352,51.2016977206143L680.763358778626,51.2016977206143Z" transform="translate(0, 0)" id="point-17-9"/><path class="data-point" data-type="column" opacity="0.9" fill="rgb(6, 102, 98)" d="M755.5725190839695,50.760303774747065L822.9007633587787,50.760303774747065L822.9007633587787,50.760303774747065L755.5725190839695,50.760303774747065Z" transform="translate(0, 0)" id="point-17-10"/><path class="data-point" data-type="column" opacity="0.9" fill="rgb(6, 102, 98)" d="M830.3816793893129,59.58818269209442L897.7099236641221,59.58818269209442L897.7099236641221,59.58818269209442L830.3816793893129,59.58818269209442Z" transform="translate(0, 0)" id="point-17-11"/><path class="data-point" data-type="column" opacity="0.9" fill="rgb(6, 102, 98)" d="M905.1908396946565,49.87751588301228L972.5190839694657,49.87751588301228L972.5190839694657,49.87751588301228L905.1908396946565,49.87751588301228Z" transform="translate(0, 0)" id="point-17-12"/></g><g class="series" transform="translate(45,10)"><path class="data-point" data-type="column" opacity="0.9" fill="rgb(207, 90, 30)" d="M7.480916030534331,55.17424323342064L74.8091603053435,55.17424323342064L74.8091603053435,55.17424323342064L7.480916030534331,55.17424323342064Z" transform="translate(0, 0)" id="point-18-0"/><path class="data-point" data-type="column" opacity="0.9" fill="rgb(207, 90, 30)" d="M82.29007633587784,59.58818269209437L149.61832061068702,59.58818269209437L149.61832061068702,59.58818269209437L82.29007633587784,59.58818269209437Z" transform="translate(0, 0)" id="point-18-1"/><path class="data-point" data-type="column" opacity="0.9" fill="rgb(207, 90, 30)" d="M157.09923664122135,61.35375847556389L224.4274809160305,61.35375847556389L224.4274809160305,61.35375847556389L157.09923664122135,61.35375847556389Z" transform="translate(0, 0)" id="point-18-2"/><path class="data-point" data-type="column" opacity="0.9" fill="rgb(207, 90, 30)" d="M231.90839694656486,59.58818269209442L299.23664122137404,59.58818269209442L299.23664122137404,59.58818269209442L231.90839694656486,59.58818269209442Z" transform="translate(0, 0)" id="point-18-3"/><path class="data-point" data-type="column" opacity="0.9" fill="rgb(207, 90, 30)" d="M306.7175572519084,50.318909828879725L374.0458015267175,50.318909828879725L374.0458015267175,50.318909828879725L306.7175572519084,50.318909828879725Z" transform="translate(0, 0)" id="point-18-4"/><path class="data-point" data-type="column" opacity="0.9" fill="rgb(207, 90, 30)" d="M381.5267175572519,46.78775826194062L448.85496183206106,46.78775826194062L448.85496183206106,46.78775826194062L381.5267175572519,46.78775826194062Z" transform="translate(0, 0)" id="point-18-5"/><path class="data-point" data-type="column" opacity="0.9" fill="rgb(207, 90, 30)" d="M456.3358778625954,50.31890982887962L523.6641221374045,50.31890982887962L523.6641221374045,50.31890982887962L456.3358778625954,50.31890982887962Z" transform="translate(0, 0)" id="point-18-6"/><path class="data-point" data-type="column" opacity="0.9" fill="rgb(207, 90, 30)" d="M531.1450381679389,46.34636431607344L598.4732824427481,46.34636431607344L598.4732824427481,46.34636431607344L531.1450381679389,46.34636431607344Z" transform="translate(0, 0)" id="point-18-7"/><path class="data-point" data-type="column" opacity="0.9" fill="rgb(207, 90, 30)" d="M605.9541984732824,56.498425071022716L673.2824427480916,56.498425071022716L673.2824427480916,56.498425071022716L605.9541984732824,56.498425071022716Z" transform="translate(0, 0)" id="point-18-8"/><path class="data-point" data-type="column" opacity="0.9" fill="rgb(207, 90, 30)" d="M680.763358778626,51.2016977206143L748.0916030534352,51.2016977206143L748.0916030534352,51.2016977206143L680.763358778626,51.2016977206143Z" transform="translate(0, 0)" id="point-18-9"/><path class="data-point" data-type="column" opacity="0.9" fill="rgb(207, 90, 30)" d="M755.5725190839695,50.760303774747065L822.9007633587787,50.760303774747065L822.9007633587787,50.760303774747065L755.5725190839695,50.760303774747065Z" transform="translate(0, 0)" id="point-18-10"/><path class="data-point" data-type="column" opacity="0.9" fill="rgb(207, 90, 30)" d="M830.3816793893129,59.58818269209442L897.7099236641221,59.58818269209442L897.7099236641221,59.58818269209442L830.3816793893129,59.58818269209442Z" transform="translate(0, 0)" id="point-18-11"/><path class="data-point" data-type="column" opacity="0.9" fill="rgb(207, 90, 30)" d="M905.1908396946565,49.87751588301228L972.5190839694657,49.87751588301228L972.5190839694657,49.87751588301228L905.1908396946565,49.87751588301228Z" transform="translate(0, 0)" id="point-18-12"/></g><g class="series" transform="translate(45,10)"><path class="data-point" data-type="column" opacity="0.9" fill="rgb(118, 39, 24)" d="M7.480916030534331,54.73284928755329L74.8091603053435,54.73284928755329L74.8091603053435,55.17424323342064L7.480916030534331,55.17424323342064Z" transform="translate(0, 0)" id="point-19-0"/><path class="data-point" data-type="column" opacity="0.9" fill="rgb(118, 39, 24)" d="M82.29007633587784,59.14678874622703L149.61832061068702,59.14678874622703L149.61832061068702,59.58818269209437L82.29007633587784,59.58818269209437Z" transform="translate(0, 0)" id="point-19-1"/><path class="data-point" data-type="column" opacity="0.9" fill="rgb(118, 39, 24)" d="M157.09923664122135,61.35375847556389L224.4274809160305,61.35375847556389L224.4274809160305,61.35375847556389L157.09923664122135,61.35375847556389Z" transform="translate(0, 0)" id="point-19-2"/><path class="data-point" data-type="column" opacity="0.9" fill="rgb(118, 39, 24)" d="M231.90839694656486,59.58818269209442L299.23664122137404,59.58818269209442L299.23664122137404,59.58818269209442L231.90839694656486,59.58818269209442Z" transform="translate(0, 0)" id="point-19-3"/><path class="data-point" data-type="column" opacity="0.9" fill="rgb(118, 39, 24)" d="M306.7175572519084,49.877515883012386L374.0458015267175,49.877515883012386L374.0458015267175,50.318909828879725L306.7175572519084,50.318909828879725Z" transform="translate(0, 0)" id="point-19-4"/><path class="data-point" data-type="column" opacity="0.9" fill="rgb(118, 39, 24)" d="M381.5267175572519,46.34636431607328L448.85496183206106,46.34636431607328L448.85496183206106,46.78775826194062L381.5267175572519,46.78775826194062Z" transform="translate(0, 0)" id="point-19-5"/><path class="data-point" data-type="column" opacity="0.9" fill="rgb(118, 39, 24)" d="M456.3358778625954,50.31890982887962L523.6641221374045,50.31890982887962L523.6641221374045,50.31890982887962L456.3358778625954,50.31890982887962Z" transform="translate(0, 0)" id="point-19-6"/><path class="data-point" data-type="column" opacity="0.9" fill="rgb(118, 39, 24)" d="M531.1450381679389,46.34636431607344L598.4732824427481,46.34636431607344L598.4732824427481,46.34636431607344L531.1450381679389,46.34636431607344Z" transform="translate(0, 0)" id="point-19-7"/><path class="data-point" data-type="column" opacity="0.9" fill="rgb(118, 39, 24)" d="M605.9541984732824,56.498425071022716L673.2824427480916,56.498425071022716L673.2824427480916,56.498425071022716L605.9541984732824,56.498425071022716Z" transform="translate(0, 0)" id="point-19-8"/><path class="data-point" data-type="column" opacity="0.9" fill="rgb(118, 39, 24)" d="M680.763358778626,51.2016977206143L748.0916030534352,51.2016977206143L748.0916030534352,51.2016977206143L680.763358778626,51.2016977206143Z" transform="translate(0, 0)" id="point-19-9"/><path class="data-point" data-type="column" opacity="0.9" fill="rgb(118, 39, 24)" d="M755.5725190839695,50.760303774747065L822.9007633587787,50.760303774747065L822.9007633587787,50.760303774747065L755.5725190839695,50.760303774747065Z" transform="translate(0, 0)" id="point-19-10"/><path class="data-point" data-type="column" opacity="0.9" fill="rgb(118, 39, 24)" d="M830.3816793893129,59.58818269209442L897.7099236641221,59.58818269209442L897.7099236641221,59.58818269209442L830.3816793893129,59.58818269209442Z" transform="translate(0, 0)" id="point-19-11"/><path class="data-point" data-type="column" opacity="0.9" fill="rgb(118, 39, 24)" d="M905.1908396946565,49.87751588301228L972.5190839694657,49.87751588301228L972.5190839694657,49.87751588301228L905.1908396946565,49.87751588301228Z" transform="translate(0, 0)" id="point-19-12"/></g><g class="series" transform="translate(45,10)"><path class="data-point" data-type="column" opacity="0.9" fill="rgb(1, 149, 130)" d="M7.480916030534331,32.663151994185064L74.8091603053435,32.663151994185064L74.8091603053435,54.73284928755329L7.480916030534331,54.73284928755329Z" transform="translate(0, 0)" id="point-20-0"/><path class="data-point" data-type="column" opacity="0.9" fill="rgb(1, 149, 130)" d="M82.29007633587784,36.19430356112401L149.61832061068702,36.19430356112401L149.61832061068702,59.14678874622703L82.29007633587784,59.14678874622703Z" transform="translate(0, 0)" id="point-20-1"/><path class="data-point" data-type="column" opacity="0.9" fill="rgb(1, 149, 130)" d="M157.09923664122135,45.9049703702061L224.4274809160305,45.9049703702061L224.4274809160305,61.35375847556389L157.09923664122135,61.35375847556389Z" transform="translate(0, 0)" id="point-20-2"/><path class="data-point" data-type="column" opacity="0.9" fill="rgb(1, 149, 130)" d="M231.90839694656486,45.022182478471365L299.23664122137404,45.022182478471365L299.23664122137404,59.58818269209442L231.90839694656486,59.58818269209442Z" transform="translate(0, 0)" id="point-20-3"/><path class="data-point" data-type="column" opacity="0.9" fill="rgb(1, 149, 130)" d="M306.7175572519084,37.07709145285874L374.0458015267175,37.07709145285874L374.0458015267175,49.877515883012386L306.7175572519084,49.877515883012386Z" transform="translate(0, 0)" id="point-20-4"/><path class="data-point" data-type="column" opacity="0.9" fill="rgb(1, 149, 130)" d="M381.5267175572519,41.9324248573996L448.85496183206106,41.9324248573996L448.85496183206106,46.34636431607328L381.5267175572519,46.34636431607328Z" transform="translate(0, 0)" id="point-20-5"/><path class="data-point" data-type="column" opacity="0.9" fill="rgb(1, 149, 130)" d="M456.3358778625954,49.43612193714488L523.6641221374045,49.43612193714488L523.6641221374045,50.31890982887962L456.3358778625954,50.31890982887962Z" transform="translate(0, 0)" id="point-20-6"/><path class="data-point" data-type="column" opacity="0.9" fill="rgb(1, 149, 130)" d="M531.1450381679389,41.04963696566508L598.4732824427481,41.04963696566508L598.4732824427481,46.34636431607344L531.1450381679389,46.34636431607344Z" transform="translate(0, 0)" id="point-20-7"/><path class="data-point" data-type="column" opacity="0.9" fill="rgb(1, 149, 130)" d="M605.9541984732824,42.815212749134446L673.2824427480916,42.815212749134446L673.2824427480916,56.498425071022716L605.9541984732824,56.498425071022716Z" transform="translate(0, 0)" id="point-20-8"/><path class="data-point" data-type="column" opacity="0.9" fill="rgb(1, 149, 130)" d="M680.763358778626,46.787758261940674L748.0916030534352,46.787758261940674L748.0916030534352,51.2016977206143L680.763358778626,51.2016977206143Z" transform="translate(0, 0)" id="point-20-9"/><path class="data-point" data-type="column" opacity="0.9" fill="rgb(1, 149, 130)" d="M755.5725190839695,40.16684907393024L822.9007633587787,40.16684907393024L822.9007633587787,50.760303774747065L755.5725190839695,50.760303774747065Z" transform="translate(0, 0)" id="point-20-10"/><path class="data-point" data-type="column" opacity="0.9" fill="rgb(1, 149, 130)" d="M830.3816793893129,33.10454594005251L897.7099236641221,33.10454594005251L897.7099236641221,59.58818269209442L830.3816793893129,59.58818269209442Z" transform="translate(0, 0)" id="point-20-11"/><path class="data-point" data-type="column" opacity="0.9" fill="rgb(1, 149, 130)" d="M905.1908396946565,40.60824301979768L972.5190839694657,40.60824301979768L972.5190839694657,49.87751588301228L905.1908396946565,49.87751588301228Z" transform="translate(0, 0)" id="point-20-12"/></g></g><g id="lines-secondary"/><g id="data-labels"/><g class="annotations above"><g class="axis-highlights" transform="translate(45, 10)" style="opacity: 1;"/></g></svg>