<svg id="SwingCompressed" data-name="Layer 1" xmlns="http://www.w3.org/2000/svg" viewBox="0 0 528.04 334.42">
    <defs>
        <style>.cls-1{fill:#0d2436;}.cls-1,.cls-2,.cls-3{stroke:#fff;stroke-miterlimit:10;stroke-width:0.25px;}.cls-1,.cls-3{opacity:0.9;isolation:isolate;}.cls-2{fill:#afafaf;}.cls-3{fill:#5f1a16;}
        </style>
    </defs>
    <polygon id="pennsylvania" class="cls-1" points="359.35 96.49 360.65 113.17 423.76 112.13 425.74 108.56 429.31 110.54 433.02 107.82 434.58 105.19 438.65 102.95 435.79 98.2 433.69 97.88 433.83 96.04 430.75 95.57 432.84 89.44 431.53 86.8 434.77 85.29 436.71 80.14 433.87 78.98 428.48 70.27 368.41 72.07 369.03 68.01 366.49 69.63 364.17 69.84 361.37 72.14 358.71 73.59 359.35 96.49"/>
    <polygon id="michigan" class="cls-1" points="218.11 147.1 241.42 146.89 241.7 144.78 244.44 141.82 246.7 139.58 247.29 135.16 250.34 132.83 252.91 125.35 256.58 125.64 259.56 115.09 255.49 94.39 248.63 91.52 238.03 102.03 233.43 99.85 233.46 93.79 239.24 90.07 242.16 85.76 243.06 74.73 241.53 70.03 241.93 65.58 244.38 63.37 238.41 58.26 230.35 55.62 229.2 52.53 220.12 48.77 213.24 54.89 213.93 58.51 209.11 62.36 208.31 68.32 202.89 72.29 200.42 68.83 196.65 70.67 193.07 75.47 192.34 82.42 189.34 90.23 189.23 96.87 190.88 106.48 193.65 116.44 188.49 137.46 181.98 145.2 181.05 146.25 218.11 147.1"/>
    <polygon id="maine" class="cls-2" points="446.82 96.67 456.78 141.6 456.13 147.06 462.22 154.37 468.28 139.91 467.6 135.31 472.41 131.17 475.3 132.75 477.96 129.38 483.57 128.82 486.06 125.22 490.55 116.94 494.29 116.57 501.24 110.02 505.09 112.13 508.79 108.67 515.15 105.34 519.7 99.93 523.26 99.34 521 95.99 519.89 91.54 512.07 88.34 510.37 81.98 505.05 78.46 498.72 45.88 489.21 37.96 476.6 43.82 473.1 40.53 474.17 36.76 471.01 37.4 460.7 61.61 461.88 65.44 459.27 70.06 459.36 81.15 457.29 86.44 453.79 89.92 454.46 94.52 450.94 98.2 448.53 96.06 446.82 96.67"/>
    <polygon id="iowa" class="cls-3" points="88.67 64.25 88.67 67 91 69.33 89.77 73.31 91.97 77.98 96.77 79.63 100.48 84.98 104.32 88.69 103.36 93.63 98.97 99.12 93.06 100.91 91.97 104.61 94.02 108.59 91.97 113.67 88.67 116.83 88.67 119.99 84.69 116.83 31.97 116.83 31.01 112.85 31.01 109.83 29.09 107.63 29.09 103.79 27.44 97.34 22.36 87.18 21.26 77.98 23.6 74 20.85 70.57 20.85 65.9 88.67 64.25"/>
    <polygon id="texas" class="cls-3" points="288.54 221.46 289.94 220.61 291.02 221.2 292.62 236.31 294.9 239.44 297.41 243.88 297.79 247.44 297.38 251.72 297.67 254.51 297.06 258.41 291.48 260.49 290.07 260.48 289.89 258.78 287.73 259.87 287.63 261.13 288.64 262.51 286.72 264.36 286.15 266.38 280.67 270.17 278.23 271.53 277.5 270.51 274.9 271.96 276.23 273.38 273.37 274.47 273.2 276.6 272.13 276.09 271.01 276.68 271.16 278.07 270.37 279.49 268.97 279.56 268.23 280.73 269 282.06 268.6 284.22 267.5 285.67 268.49 286.9 267.85 289.71 270.51 296.4 272.3 297.78 272.45 299.17 270.95 298.39 270.05 299.43 267.45 297.9 262.55 297.48 255 294.98 251.82 290.07 250.66 287.21 250.44 285.2 249.63 283.4 248.08 283.56 246.64 281.84 246.54 280.91 242.96 277.44 240.25 272.56 238.97 269.32 233.99 265.93 233.85 264.61 231.61 263.44 228.36 263.78 225.9 263.49 224.68 262.37 223.75 263.95 221.12 264.31 219.54 269.34 217.89 271.55 216.42 271.7 206.09 265.9 204.28 263.58 204.45 260.74 202.94 259.1 202.82 257.94 190.08 247.13 189.93 245.66 187.69 244.56 186.94 242.61 217.03 243.35 216.43 197.57 240.53 197.22 241.45 214.83 243.64 217.81 248.34 217.79 254.05 219.85 255.3 219.09 259.55 222.25 260.65 220.09 262.58 221.22 264.09 219.97 265.53 223.19 266.93 219.43 270.42 219.77 272.04 222.5 273.4 220.55 277.16 219.06 279.78 219.41 281.63 218.35 288.54 221.46"/>
    <polygon id="ohio" class="cls-2" points="348.8 47.01 350.15 79.02 346.94 81.98 346.53 84.92 343.18 87.46 348.35 91.98 344.24 101.42 343.69 105.35 336.73 112.19 331.82 111.5 327.22 118.67 326.6 123.19 320.12 122.28 319.16 129.16 312.43 137.23 303.39 127.36 298.28 131.06 290.62 129.99 287.18 131.71 284.33 127.72 279.22 127 274.79 118.58 267.33 118.94 269.75 51.22 293.58 51.14 293.29 54.7 297.32 54.46 305.25 59.37 313.89 61.97 321.9 57.68 325.77 60.02 334.3 52 338.98 51.45 348.8 47.01"/>
    <polygon id="northcarolina" class="cls-3" points="379.5 260.57 394.15 260.71 399.17 259.81 401.92 258.15 416.67 259.03 417.34 260.07 419.43 260.7 419.84 263.47 432.12 263.46 443.57 275.08 444.61 274.4 448.68 274.29 450.52 273.12 452.26 269.22 458.65 263.42 463.74 262.12 466.24 260.73 466.49 259.1 463.93 260.17 460.28 260.24 459.32 258.32 461.47 258.55 463.17 257.66 464.32 255.54 463.35 253.73 463.88 252.25 465.6 251.89 466.03 253.2 467.29 253.81 469.27 253.07 471.31 251.3 471.99 246.82 470.49 247.12 469.34 248.5 467.82 246.19 463.33 246.97 462.62 245.51 470.36 242.52 470.65 240.59 469.46 238.12 444.56 239.75 407.64 239.66 407.05 239.47 406.4 243.74 404.48 244.7 402.3 246.76 400.37 246.47 398.51 247.75 396.17 247.39 391.8 251.51 387.84 253.62 382.86 254.22 379.2 258.45 378.87 260.58 379.5 260.57"/>
    <polygon id="georgia" class="cls-3" points="311.93 287.96 314.23 292.21 357.12 294.93 361.29 300.31 362.57 288.62 370.61 291.04 370.44 279.95 373.52 272.92 378.49 265.47 373.66 264.63 374.33 255.79 370.14 253.33 370.64 248.78 360.09 241.32 360.73 235.55 349.64 228.79 346.81 220.95 336.97 215.41 340.15 208.85 317.48 209.58 301.38 209.19 309.28 257.55 311.88 260.45 311.55 263.49 308.78 271.94 311.31 278.21 309.43 282.77 311.93 287.96"/>
    <polygon id="florida" class="cls-2" points="398.62 217.99 396.38 212.94 396.66 208.31 435.09 204.66 437.62 208.31 477.04 206.49 481.39 210.98 481.39 200.18 488.96 201.58 489.38 204.94 490.93 207.19 491.49 210.98 494.15 214.2 493.87 219.68 500.32 227.39 501.31 230.62 504.95 232.16 509.58 238.75 509.02 243.1 510 247.87 513.23 249.98 515.9 257.83 520.95 265.27 523.75 270.88 522.07 276.77 523.75 282.24 520.81 286.17 521.65 292.2 517.86 295.01 512.25 296.97 512.25 293.88 509.3 293.6 505.52 288.41 502.29 286.03 497.52 284.91 497.24 282.1 495.98 279.44 491.07 273.96 491.07 270.74 486.72 270.46 483.63 265.69 480.69 262.74 479.7 260.5 481.67 258.53 482.37 255.17 481.11 253.06 478.86 252.78 478.86 255.03 477.46 256.29 475.64 253.9 475.36 250.26 476.76 246.47 477.46 242.4 476.34 238.05 472.55 231.6 469.6 231.74 461.61 224.16 460.06 222.2 452.35 217.71 447.16 218.69 444.63 221.5 439.3 224.59 432.71 228.23 432.71 225.15 428.78 222.62 430.04 220.24 426.4 218.41 424.15 219.68 418.54 217.43 415.45 217.15 415.45 214.76 409.56 217.43 406.62 215.75 403.53 215.75 402.13 217.71 398.62 217.99"/>
    <polygon id="colorado" class="cls-2" points="155.5 225.15 178.38 224.09 184.77 286.74 172.44 288.34 97.27 290.14 96.28 226.18 155.5 225.15"/>
    <polygon id="arizona" class="cls-3" points="81.45 219.41 83.37 293.44 61.58 294.32 21.08 277.46 20.79 275.74 23.53 274.13 23.21 272.21 21.26 269.94 20.24 266.99 22.06 266.69 23.37 264.59 24.24 259.25 26.14 256.33 28.16 256.61 27.8 254.49 25.98 254.17 25.77 252.96 24.59 252.12 23.52 249.49 22.89 245.75 23.57 241.16 22.56 240.71 22.66 235.18 21.61 232.65 22.09 231.22 25.53 230.64 26.55 232.34 28.39 232.75 29.59 220.18 81.45 219.41"/>
        <path class="cls-2" d="M170.27,89.55l-.84-1.71.49-2.44.24-2.32.12-1.34.37-.85.24-.37.38-.49v-.48l-1.35-.25-1.83-.85-.12-1,.85-1.34.61-.61-1-1.58-1.59.12-1.21,1-.25.25-1.14-.86v-1l1-.85v-.74l-.22-1-1.09-1-.25-.73-1.09-1.1-.73-.9H158.6l-.85-.68.49-.49-.37-.83h-3.13L152.4,66l-1,.24L140,61.85l-1.84-2.09-1.35-1.48-.37-.61-.61-.13-1.6-.12-1.1-2.21-.86-.37v1l.61,1.11-.61.25h-3v-.07l1-1.1v-.83l.62-.75.88-.75.5-.5v-.32l-.49-.68h-1.1l-1.59.79-1.47,1-1.22.46-1,.57-1.46.45-1.1.8-1.23.22-.36-.34V54.68l-1.71.45-.49.8-.61.56-.62.69h-1.33l.25,9.81-1.1,1.82-.73,1.1-.85,1-1.22.36-1.46,1.1-1.09,1.34-.49.61-.55,1.34v3.54l.43.85.73.25,1,.36.86.49v5.29l.24,2.19.12,2.06.61,2.55.36,1.34,1.21.49,1.82.6,1.58.73,1.21,1,.12.86,1,.72.36.86,2.06,1,.73.36,1.09,1.58,1.94,2.8.73,2.18.36,1.95.49,1.58v1l.29,1.34.24,1.34.61.61.85.61.12.49-.12.61-.49.85-.5.73v.86l1,1.09,1,1.71,1,1v1.09l.12.49.85.85.73.12.61.13.48.48.37.86.36.36.73.73.25.13.36.48,2.07,1.71.48.24.49.37.12.49,34.77-.61-.48-1.34-.73-.49-.61-.85-1-4-.12-4.75.24-6-.12-2.44v-2.81l-1-1.83v-2.08l1-2.68,1.12-2.19-.12-1.34.62-1.1L175,94.66l1.5-5.12.12-1.83.25-1,.38-1.47v-.61l-1.13-.48h-1.6l-.37.37-1.09,1.58-.61,1.46-.49,1-.6.49-.73.12h-.38v.37Z"/>
        <path class="cls-2" d="M170.27,89.55l-.84-1.71.49-2.44.24-2.32.12-1.34.37-.85.24-.37.38-.49v-.48l-1.35-.25-1.83-.85-.12-1,.85-1.34.61-.61-1-1.58-1.59.12-1.21,1-.25.25-1.14-.86v-1l1-.85v-.74l-.22-1-1.09-1-.25-.73-1.09-1.1-.73-.9H158.6l-.85-.68.49-.49-.37-.83h-3.13L152.4,66l-1,.24L140,61.85l-1.84-2.09-1.35-1.48-.37-.61-.61-.13-1.6-.12-1.1-2.21-.86-.37v1l.61,1.11-.61.25h-3v-.07l1-1.1v-.83l.62-.75.88-.75.5-.5v-.32l-.49-.68h-1.1l-1.59.79-1.47,1-1.22.46-1,.57-1.46.45-1.1.8-1.23.22-.36-.34V54.68l-1.71.45-.49.8-.61.56-.62.69h-1.33l.25,9.81-1.1,1.82-.73,1.1-.85,1-1.22.36-1.46,1.1-1.09,1.34-.49.61-.55,1.34v3.54l.43.85.73.25,1,.36.86.49v5.29l.24,2.19.12,2.06.61,2.55.36,1.34,1.21.49,1.82.6,1.58.73,1.21,1,.12.86,1,.72.36.86,2.06,1,.73.36,1.09,1.58,1.94,2.8.73,2.18.36,1.95.49,1.58v1l.29,1.34.24,1.34.61.61.85.61.12.49-.12.61-.49.85-.5.73v.86l1,1.09,1,1.71,1,1v1.09l.12.49.85.85.73.12.61.13.48.48.37.86.36.36.73.73.25.13.36.48,2.07,1.71.48.24.49.37.12.49,34.77-.61-.48-1.34-.73-.49-.61-.85-1-4-.12-4.75.24-6-.12-2.44v-2.81l-1-1.83v-2.08l1-2.68,1.12-2.19-.12-1.34.62-1.1L175,94.66l1.5-5.12.12-1.83.25-1,.38-1.47v-.61l-1.13-.48h-1.6l-.37.37-1.09,1.58-.61,1.46-.49,1-.6.49-.73.12h-.38v.37Z"/>
</svg>