<svg id="graphic" xmlns="http://www.w3.org/2000/svg" viewBox="0 0 647.49 576"><defs><style>.cls-1{fill:#b1491c;}.cls-1,.cls-10,.cls-11,.cls-12,.cls-2,.cls-3,.cls-4,.cls-5,.cls-6,.cls-7,.cls-8,.cls-9{opacity:0.9;isolation:isolate;}.cls-2{fill:#852f19;}.cls-3{fill:#93381a;}.cls-4{fill:#0c2939;}.cls-5{fill:#0a424a;}.cls-6{fill:#de621f;}.cls-7{fill:#084e52;}.cls-8{fill:#075a5a;}.cls-9{fill:#05716a;}.cls-10{fill:#037d72;}.cls-11{fill:#028a7a;}.cls-12{fill:#019582;}</style></defs><polygon class="cls-1" points="409.76 480.59 451.14 486.35 455.15 457.51 484.52 411.75 515.86 416.12 560.27 372.45 563.76 347.38 590.03 287.14 556.99 258.26 578.41 242.07 581.03 223.27 601.55 204.4 600.85 187.83 82.48 187.83 72.79 459.26 120.4 456.94 148.7 510.72 181.3 515.26 199.47 540.79 221.45 529.79 270.34 536.59 303.01 513.02 360.71 576 403.66 524.47 409.76 480.59"/><polygon class="cls-2" points="600.58 181.56 82.7 181.56 82.48 187.83 600.85 187.83 600.58 181.56"/><polygon class="cls-3" points="600.45 178.44 82.81 178.44 82.7 181.56 600.58 181.56 600.45 178.44"/><polygon class="cls-4" points="597.41 106.44 85.38 106.44 82.81 178.44 600.45 178.44 597.41 106.44"/><polygon class="cls-5" points="596.36 81.39 447.68 81.39 445.9 83.06 443.14 81.39 396.38 81.39 370.05 95.51 323.18 81.39 86.28 81.39 85.38 106.44 597.41 106.44 596.36 81.39"/><polygon class="cls-6" points="314.85 78.88 293.62 65.74 86.83 65.74 86.28 81.39 323.18 81.39 314.85 78.88"/><polygon class="cls-6" points="595.7 65.74 464.3 65.74 447.68 81.39 596.36 81.39 595.7 65.74"/><polygon class="cls-6" points="421.14 68.11 396.38 81.39 443.14 81.39 421.14 68.11"/><polygon class="cls-7" points="283.51 59.48 87.06 59.48 86.83 65.74 293.62 65.74 283.51 59.48"/><polygon class="cls-7" points="595.43 59.48 470.95 59.48 464.3 65.74 595.7 65.74 595.43 59.48"/><polygon class="cls-8" points="595.3 56.35 474.28 56.35 470.95 59.48 595.43 59.48 595.3 56.35"/><polygon class="cls-8" points="278.45 56.35 87.17 56.35 87.06 59.48 283.51 59.48 278.45 56.35"/><polygon class="cls-9" points="268.33 50.09 87.39 50.09 87.17 56.35 278.45 56.35 268.33 50.09"/><polygon class="cls-9" points="595.04 50.09 480.93 50.09 474.28 56.35 595.3 56.35 595.04 50.09"/><polygon class="cls-10" points="594.77 43.83 487.58 43.83 480.93 50.09 595.04 50.09 594.77 43.83"/><polygon class="cls-10" points="264.26 47.56 238.49 49.09 238.93 43.83 87.62 43.83 87.39 50.09 268.33 50.09 264.26 47.56"/><polygon class="cls-11" points="239.96 31.3 88.06 31.3 87.62 43.83 238.93 43.83 239.96 31.3"/><polygon class="cls-11" points="594.24 31.3 504.9 31.3 500.31 31.84 487.58 43.83 594.77 43.83 594.24 31.3"/><polygon class="cls-12" points="592.92 0 530.2 28.33 504.9 31.3 594.24 31.3 592.92 0"/><polygon class="cls-12" points="240.37 26.35 88.22 26.91 88.06 31.3 239.96 31.3 240.37 26.35"/></svg>