<svg id="race_az" xmlns="http://www.w3.org/2000/svg" viewBox="0 0 581.96 576">
    <defs>
    <style>.raceaz-1{fill:none;}.raceaz-2{fill:#b1491c;}.raceaz-10,.raceaz-11,.raceaz-12,.raceaz-13,.raceaz-14,.raceaz-15,.raceaz-16,.raceaz-2,.raceaz-3,.raceaz-4,.raceaz-5,.raceaz-6,.raceaz-7,.raceaz-8,.raceaz-9{opacity:0.9;isolation:isolate;}.raceaz-3{fill:#852f19;}.raceaz-4{fill:#93381a;}.raceaz-5{fill:#ed6b21;}.raceaz-6{fill:#0c2939;}.raceaz-7{fill:#0a424a;}.raceaz-8{fill:#de621f;}.raceaz-9{fill:#084e52;}.raceaz-10{fill:#075a5a;}.raceaz-11{fill:#05716a;}.raceaz-12{fill:#037d72;}.raceaz-13{fill:#028a7a;}.raceaz-14{fill:#0b3642;}.raceaz-15{fill:#762718;}.raceaz-16{fill:#019582;}
    </style>
    </defs>
    <polygon class="raceaz-1" points="346.86 576 347.37 576.23 364.19 576 346.86 576"/><polygon class="raceaz-2" points="515.07 573.94 515.16 462.25 92.94 462.25 346.86 576 364.19 576 515.07 573.94"/><polygon class="raceaz-3" points="515.25 350.92 52.51 350.92 49.33 355.72 35.28 357.72 42.5 380.58 56.98 398.44 59.08 413.27 37.66 425.06 39.55 438.34 92.94 462.25 515.16 462.25 515.25 350.92"/><polygon class="raceaz-4" points="515.25 348.5 54.12 348.5 52.51 350.92 515.25 350.92 515.25 348.5"/><polygon class="raceaz-5" points="515.29 297.68 68.46 297.68 67.56 298.99 59.83 339.9 54.12 348.5 515.25 348.5 515.29 297.68"/><polygon class="raceaz-6" points="515.35 217.81 63.21 217.81 64.06 223.83 71.74 244.25 80.65 250.94 81.98 260.31 95.92 263.11 98.24 279.51 82.74 276.93 68.46 297.68 515.29 297.68 515.35 217.81"/><polygon class="raceaz-7" points="515.37 198.45 60.46 198.45 63.21 217.81 515.35 217.81 515.37 198.45"/><polygon class="raceaz-8" points="515.38 181.51 62.33 181.51 59.97 194.95 60.46 198.45 515.37 198.45 515.38 181.51"/><polygon class="raceaz-9" points="515.39 166.99 64.88 166.99 62.33 181.51 515.38 181.51 515.39 166.99"/><polygon class="raceaz-10" points="515.4 162.15 65.73 162.15 64.88 166.99 515.39 166.99 515.4 162.15"/><polygon class="raceaz-11" points="515.4 157.31 60.87 157.31 66.13 159.84 65.73 162.15 515.4 162.15 515.4 157.31"/><polygon class="raceaz-12" points="515.41 147.63 58.83 147.63 58.44 156.15 60.87 157.31 515.4 157.31 515.41 147.63"/><polygon class="raceaz-13" points="515.42 135.53 59.38 135.53 58.83 147.63 515.41 147.63 515.42 135.53"/><polygon class="raceaz-14" points="515.42 130.69 59.6 130.69 59.38 135.53 515.42 135.53 515.42 130.69"/><polygon class="raceaz-14" points="515.42 128.27 59.72 128.27 59.6 130.69 515.42 130.69 515.42 128.27"/><polygon class="raceaz-15" points="515.42 125.85 59.83 125.85 59.72 128.27 515.42 128.27 515.42 125.85"/><polygon class="raceaz-16" points="515.52 4.51 135.99 0 116.66 0 104.89 96.21 90.84 92.63 83.38 79.35 56.84 83.11 52.82 94.04 60.38 113.67 59.83 125.85 515.42 125.85 515.52 4.51"/>
</svg>