<svg id="graphic" xmlns="http://www.w3.org/2000/svg" viewBox="0 0 749.08 576"><defs><style>.cls-1{fill:#b1491c;}.cls-1,.cls-10,.cls-11,.cls-12,.cls-13,.cls-2,.cls-3,.cls-4,.cls-5,.cls-6,.cls-7,.cls-8,.cls-9{opacity:0.9;isolation:isolate;}.cls-2{fill:#852f19;}.cls-3{fill:#93381a;}.cls-4{fill:#0c2939;}.cls-5{fill:#0a424a;}.cls-6{fill:#de621f;}.cls-7{fill:#084e52;}.cls-8{fill:#075a5a;}.cls-9{fill:#05716a;}.cls-10{fill:#037d72;}.cls-11{fill:#028a7a;}.cls-12{fill:#0b3642;}.cls-13{fill:#019582;}</style></defs><polygon class="cls-1" points="539.64 574.57 538.81 566.71 528.72 558.94 513.7 521.22 517.32 505.38 511.74 498.46 517.94 490.3 520.19 478.14 515.87 470.65 520.02 464.02 527.93 463.63 532.39 455.65 531.56 447.79 537.84 444.48 543.88 447.38 544.82 435.35 560.96 429.23 553.48 421.19 568.08 413.02 572.22 418.77 585.99 411.13 616.86 389.77 620.07 378.39 630.89 367.97 625.22 360.18 625.79 353.05 637.95 346.91 638.96 356.52 646.91 356.56 678.36 344.86 680.4 331.7 134.88 331.7 147.23 342.17 147.93 348.72 156.41 357.99 155.45 373.99 165.66 387.04 223.88 419.76 232.17 418.88 241.46 406.42 250.39 378.1 265.2 376.09 270.44 367.15 277.29 373.49 291.15 375.12 309.5 373.19 322.12 379.8 322.9 387.23 350.98 406.35 358.2 424.57 373.47 452.11 393.64 471.62 394.19 476.86 402.28 486.61 411.02 485.69 415.62 495.8 416.82 507.16 423.37 523.25 441.31 550.94 483.87 565 511.5 567.38 526.1 576 531.23 570.16 539.64 574.57"/><polygon class="cls-2" points="681.78 322.86 681.66 321.77 123.17 321.77 134.88 331.7 680.4 331.7 681.78 322.86"/><polygon class="cls-3" points="681.46 319.78 120.83 319.78 123.17 321.77 681.66 321.77 681.46 319.78"/><polygon class="cls-4" points="680.12 307.13 682.43 283.04 680.32 262.95 666.19 237.94 653.41 220.47 226.81 220.47 227.33 259.97 57.74 255.78 61.99 266.82 74.57 273 75.45 281.3 120.83 319.78 681.46 319.78 680.12 307.13"/><polygon class="cls-5" points="653.29 220.31 649.96 188.69 226.39 188.69 226.81 220.47 653.41 220.47 653.29 220.31"/><polygon class="cls-6" points="648.28 172.8 226.18 172.8 226.39 188.69 649.96 188.69 648.28 172.8"/><polygon class="cls-7" points="647.23 162.87 226.05 162.87 226.18 172.8 648.28 172.8 647.23 162.87"/><polygon class="cls-8" points="647.02 160.88 226.03 160.88 226.05 162.87 647.23 162.87 647.02 160.88"/><polygon class="cls-9" points="646.39 154.92 225.95 154.92 226.03 160.88 647.02 160.88 646.39 154.92"/><polygon class="cls-10" points="644.5 137.05 541.1 137.05 537.32 142.46 534.11 137.05 504.11 137.05 500.63 146.33 496.49 137.05 469 137.05 466.95 141.05 461.56 137.05 225.72 137.05 225.95 154.92 646.39 154.92 644.5 137.05"/><polygon class="cls-11" points="528.19 127.08 508.55 125.18 504.11 137.05 534.11 137.05 528.19 127.08"/><polygon class="cls-11" points="442.99 123.27 435.93 127.54 418.28 121.16 225.51 121.16 225.72 137.05 461.56 137.05 442.99 123.27"/><polygon class="cls-11" points="492.53 128.19 484 135.28 473.18 128.91 469 137.05 496.49 137.05 492.53 128.19"/><polygon class="cls-11" points="644.3 135.14 638.21 131.81 630.33 136.62 595.98 121.16 587.76 121.16 580.97 125.04 566.18 123.07 544.99 131.49 541.1 137.05 644.5 137.05 644.3 135.14"/><polygon class="cls-12" points="412.79 119.17 225.48 119.17 225.51 121.16 418.28 121.16 412.79 119.17"/><polygon class="cls-12" points="591.57 119.17 591.23 119.17 587.76 121.16 595.98 121.16 591.57 119.17"/><polygon class="cls-13" points="591.38 119.09 591.23 119.17 591.57 119.17 591.38 119.09"/><polygon class="cls-13" points="403.79 115.92 377.31 116.06 364.94 99.26 359.76 0 223.95 1.97 225.48 119.17 412.79 119.17 403.79 115.92"/></svg>