<svg id="race_io" xmlns="http://www.w3.org/2000/svg" viewBox="0 0 1035 576">
    <defs>
        <style>.raceio-1{fill:none;}.raceio-2{fill:#b1491c;}.raceio-10,.raceio-11,.raceio-12,.raceio-13,.raceio-14,.raceio-2,.raceio-3,.raceio-4,.raceio-5,.raceio-6,.raceio-7,.raceio-8,.raceio-9{opacity:0.9;isolation:isolate;}.raceio-3{fill:#852f19;}.raceio-4{fill:#a3411b;}.raceio-5{fill:#0c2939;}.raceio-6{fill:#0a424a;}.raceio-7{fill:#de621f;}.raceio-8{fill:#084e52;}.raceio-9{fill:#05716a;}.raceio-10{fill:#037d72;}.raceio-11{fill:#028a7a;}.raceio-12{fill:#0b3642;}.raceio-13{fill:#762718;}.raceio-14{fill:#019582;}.raceio-15{font-size:89.95px;font-family:MyriadPro-Regular, Myriad Pro;}.raceio-16{letter-spacing:-0.01em;}.raceio-17{letter-spacing:0em;}.raceio-18{letter-spacing:0em;}.raceio-19{letter-spacing:-0.01em;}.raceio-20{letter-spacing:0em;}.raceio-21{letter-spacing:0em;}
        </style>
    </defs>
    <polygon class="raceio-1" points="90.47 141.87 90.99 146.29 90.99 140.97 90.47 141.87"/><polygon class="raceio-1" points="90.99 61.52 90.99 55.92 90.99 16.91 86.21 17.02 86.21 65.26 90.99 71.24 90.99 67.11 90.99 61.52"/><polygon class="raceio-1" points="948.79 252.53 944.01 247.92 944.01 277.13 948.79 252.53"/><polygon class="raceio-2" points="821.11 510.74 842.39 458.25 821.11 417.1 832.46 378.8 846.08 374.68 162.67 374.68 171.33 408.59 171.33 448.31 191.19 471.01 191.19 502.23 201.13 543.37 745.91 543.37 787.06 576 787.06 543.37 821.11 510.74"/><polygon class="raceio-3" points="893.46 360.36 899.9 352.31 156.96 352.31 162.67 374.68 846.08 374.68 893.46 360.36"/><polygon class="raceio-4" points="904.37 346.72 155.53 346.72 156.96 352.31 899.9 352.31 904.37 346.72"/><polygon class="raceio-5" points="938.86 303.61 944.01 277.13 944.01 247.92 909.07 214.23 904 206.91 98.23 206.91 101.81 236.93 154.31 341.91 155.53 346.72 904.37 346.72 938.86 303.61"/><polygon class="raceio-6" points="888.52 184.54 95.56 184.54 98.23 206.91 904 206.91 888.52 184.54"/><polygon class="raceio-7" points="873.03 162.18 92.89 162.18 95.56 184.54 888.52 184.54 873.03 162.18"/><polygon class="raceio-8" points="870.76 158.9 847.7 150.99 91.55 150.99 92.89 162.18 873.03 162.18 870.76 158.9"/><polygon class="raceio-9" points="821.11 141.87 820.13 139.81 91.68 139.81 90.99 140.97 90.99 146.29 91.55 150.99 847.7 150.99 821.11 141.87"/><polygon class="raceio-10" points="809.61 117.44 104.79 117.44 91.68 139.81 820.13 139.81 809.61 117.44"/><polygon class="raceio-11" points="798.41 93.64 806.64 67.11 90.99 67.11 90.99 71.24 114.58 100.73 104.79 117.44 809.61 117.44 798.41 93.64"/><polygon class="raceio-12" points="90.99 67.11 806.64 67.11 808.38 61.52 90.99 61.52 90.99 67.11"/><polygon class="raceio-13" points="90.99 61.52 808.38 61.52 810.11 55.92 90.99 55.92 90.99 61.52"/><polygon class="raceio-14" points="810.11 55.92 811.17 52.49 787.06 28.37 787.06 0 90.99 16.91 90.99 55.92 810.11 55.92"/><text class="raceio-15" transform="translate(624.64 -11.4)"><tspan class="raceio-16">c</tspan><tspan x="39.76" y="0">olo</tspan><tspan class="raceio-17" x="159.74" y="0">r</tspan><tspan class="raceio-18" x="188.71" y="0">ado</tspan></text><text class="raceio-15" transform="translate(852.23 640.7)">i<tspan class="raceio-19" x="21.05" y="0">o</tspan><tspan class="raceio-20" x="69.8" y="0">w</tspan><tspan class="raceio-21" x="135.64" y="0">a</tspan></text>
</svg>