<svg id="race_ga" xmlns="http://www.w3.org/2000/svg" viewBox="0 0 578.26 576">
    <defs>
    <style>.racega-1{fill:#b1491c;}.racega-1,.racega-10,.racega-11,.racega-12,.racega-13,.racega-14,.racega-2,.racega-3,.racega-4,.racega-5,.racega-6,.racega-7,.racega-8,.racega-9{opacity:0.9;isolation:isolate;}.racega-2{fill:#852f19;}.racega-3{fill:#93381a;}.racega-4{fill:#0c2939;}.racega-5{fill:#0a424a;}.racega-6{fill:#de621f;}.racega-7{fill:#084e52;}.racega-8{fill:#075a5a;}.racega-9{fill:#05716a;}.racega-10{fill:#037d72;}.racega-11{fill:#028a7a;}.racega-12{fill:#0b3642;}.racega-13{fill:#762718;}.racega-14{fill:#019582;}
    </style>
    </defs><polygon class="racega-1" points="528.21 511.04 520.8 439.86 536.57 392.84 564.25 342.12 532.74 339.5 531.95 282.27 503.62 268.86 504.23 239.28 432.1 197.35 432.87 159.88 424.26 155.64 69.78 155.64 114.68 330.87 133.07 348.02 132.66 367.74 119.67 423.7 139.58 462.58 130.08 492.96 149.15 524.92 166.37 550.92 443.69 543.82 473.61 576 475.17 500.08 528.21 511.04"/><polygon class="racega-2" points="416.17 151.65 68.76 151.65 69.78 155.64 424.26 155.64 416.17 151.65"/><polygon class="racega-3" points="413.47 150.32 68.42 150.32 68.76 151.65 416.17 151.65 413.47 150.32"/><polygon class="racega-4" points="357.68 122.82 345.12 95.78 54.45 95.78 68.42 150.32 413.47 150.32 357.68 122.82"/><polygon class="racega-5" points="337.09 78.48 50.02 78.48 54.45 95.78 345.12 95.78 337.09 78.48"/><polygon class="racega-6" points="335.02 74.02 324.27 69.17 47.63 69.17 50.02 78.48 337.09 78.48 335.02 74.02"/><polygon class="racega-7" points="318.37 66.51 46.95 66.51 47.63 69.17 324.27 69.17 318.37 66.51"/><polygon class="racega-8" points="315.42 65.18 46.61 65.18 46.95 66.51 318.37 66.51 315.42 65.18"/><polygon class="racega-9" points="300.68 58.53 44.9 58.53 46.61 65.18 315.42 65.18 300.68 58.53"/><polygon class="racega-10" points="282.98 50.55 42.86 50.55 44.9 58.53 300.68 58.53 282.98 50.55"/><polygon class="racega-11" points="268.56 44.04 269.62 41.24 40.47 41.24 42.86 50.55 282.98 50.55 268.56 44.04"/><polygon class="racega-12" points="270.13 39.91 40.13 39.91 40.47 41.24 269.62 41.24 270.13 39.91"/><polygon class="racega-13" points="270.63 38.58 39.79 38.58 40.13 39.91 270.13 39.91 270.63 38.58"/><polygon class="racega-14" points="285.25 0 139.88 17.72 36.17 24.45 39.79 38.58 270.63 38.58 285.25 0"/>
</svg>