<svg id="graphic" xmlns="http://www.w3.org/2000/svg" viewBox="0 0 543.67 576"><defs><style>.cls-1{fill:#b1491c;}.cls-1,.cls-10,.cls-11,.cls-12,.cls-2,.cls-3,.cls-4,.cls-5,.cls-6,.cls-7,.cls-8,.cls-9{opacity:0.9;isolation:isolate;}.cls-2{fill:#852f19;}.cls-3{fill:#c0511d;}.cls-4{fill:#0c2939;}.cls-5{fill:#0a424a;}.cls-6{fill:#de621f;}.cls-7{fill:#084e52;}.cls-8{fill:#075a5a;}.cls-9{fill:#05716a;}.cls-10{fill:#037d72;}.cls-11{fill:#028a7a;}.cls-12{fill:#019582;}</style></defs><polygon class="cls-1" points="391.62 562.41 407.69 545.08 420.91 531.95 424.38 506.06 442.25 492.4 457.28 448.58 478.82 450.32 496.27 388.48 472.39 267.24 432.24 250.41 370.13 312 343.19 299.23 343.36 263.72 377.23 241.9 391.33 221.14 93.22 221.14 84.87 242.88 84.25 281.76 93.9 338.06 110.16 396.38 79.92 519.54 41.77 564.86 36.36 571.01 253.43 576 389.97 574.79 391.62 562.41"/><polygon class="cls-2" points="394.35 216.69 395.03 208.29 98.16 208.29 93.22 221.14 391.33 221.14 394.35 216.69"/><polygon class="cls-3" points="395.65 200.57 101.12 200.57 98.16 208.29 395.03 208.29 395.65 200.57"/><polygon class="cls-4" points="399.56 152.06 390.65 124.51 391.44 115.71 194.37 115.71 164.26 137.76 149.78 117.48 127.71 128.28 106.76 156.42 102.46 197.1 101.12 200.57 395.65 200.57 399.56 152.06"/><polygon class="cls-5" points="392.99 98.47 407.33 85.49 406.59 84.86 199.99 84.86 196.02 114.5 194.37 115.71 391.44 115.71 392.99 98.47"/><polygon class="cls-6" points="388.54 69.43 213.42 69.43 200.69 79.61 199.99 84.86 406.59 84.86 388.54 69.43"/><polygon class="cls-7" points="379.52 61.71 223.07 61.71 213.42 69.43 388.54 69.43 379.52 61.71"/><polygon class="cls-8" points="376.51 59.14 226.28 59.14 223.07 61.71 379.52 61.71 376.51 59.14"/><polygon class="cls-9" points="372.37 55.6 359.66 51.43 227.86 51.43 228.93 57.03 226.28 59.14 376.51 59.14 372.37 55.6"/><polygon class="cls-10" points="343.98 46.29 226.88 46.29 227.86 51.43 359.66 51.43 343.98 46.29"/><polygon class="cls-11" points="325.16 40.11 321.71 30.86 230.51 30.86 224.89 35.86 226.88 46.29 343.98 46.29 325.16 40.11"/><polygon class="cls-12" points="318.42 22.02 265.21 0 230.51 30.86 321.71 30.86 318.42 22.02"/></svg>