<svg id="graphic" xmlns="http://www.w3.org/2000/svg" viewBox="0 0 947.88 576"><defs><style>.cls-1{fill:#b1491c;}.cls-1,.cls-10,.cls-11,.cls-12,.cls-2,.cls-3,.cls-4,.cls-5,.cls-6,.cls-7,.cls-8,.cls-9{opacity:0.9;isolation:isolate;}.cls-2{fill:#852f19;}.cls-3{fill:#0c2939;}.cls-4{fill:#0a424a;}.cls-5{fill:#de621f;}.cls-6{fill:#084e52;}.cls-7{fill:#075a5a;}.cls-8{fill:#05716a;}.cls-9{fill:#037d72;}.cls-10{fill:#028a7a;}.cls-11{fill:#0b3642;}.cls-12{fill:#019582;}.cls-13{font-size:89.95px;font-family:MyriadPro-Regular, Myriad Pro;}.cls-14{letter-spacing:0em;}.cls-15{letter-spacing:0em;}</style></defs><polygon class="cls-1" points="861.43 564.31 883.97 547.62 878.96 511.72 896.49 488.35 886.47 455.79 896.49 420.73 879.8 387.34 849.74 343.1 833.88 296.35 814.68 283.83 808.84 255.44 812.18 229.56 798.64 210.29 605.47 210.29 614.34 225.39 621.01 251.27 616.84 275.48 608.49 298.02 610.16 319.72 621.01 333.91 629.36 326.4 629.36 313.04 642.72 314.71 650.23 327.24 646.06 347.27 634.37 358.96 640.21 372.31 657.74 389.84 676.11 418.23 701.99 419.9 701.99 439.1 731.2 471.65 738.72 487.51 740.39 504.21 768.77 510.89 787.97 525.08 810.51 555.97 828.04 557.63 828.04 576 861.43 564.31"/><polygon class="cls-2" points="793.83 203.43 601.44 203.43 605.47 210.29 798.64 210.29 793.83 203.43"/><polygon class="cls-3" points="354.72 148.59 354.72 166.96 393.95 145.25 404.01 139.43 340.46 139.43 354.72 148.59"/><polygon class="cls-3" points="784.63 190.33 762.93 181.15 757.08 161.95 738.25 139.43 524.07 139.43 526.68 142.75 574.26 187.83 591.8 186.99 601.44 203.43 793.83 203.43 784.63 190.33"/><polygon class="cls-4" points="722.96 121.14 500.45 121.14 517.5 131.06 524.07 139.43 738.25 139.43 722.96 121.14"/><polygon class="cls-4" points="331.34 133.56 340.46 139.43 404.01 139.43 425.67 126.89 430.84 121.14 337.92 121.14 331.34 133.56"/><polygon class="cls-5" points="303.8 116.03 315.03 109.71 287.99 109.71 303.8 116.03"/><polygon class="cls-5" points="718.68 116.03 719.01 109.71 480.81 109.71 500.45 121.14 722.96 121.14 718.68 116.03"/><polygon class="cls-5" points="338.86 119.37 337.92 121.14 430.84 121.14 440.7 110.19 443.22 109.71 319.54 109.71 338.86 119.37"/><polygon class="cls-6" points="151.87 106.02 172.74 104.35 177.06 98.29 148.43 98.29 151.87 106.02"/><polygon class="cls-6" points="216.98 102.68 226.69 98.29 209.29 98.29 216.98 102.68"/><polygon class="cls-6" points="719.59 98.29 252.04 98.29 252.04 101.01 270.4 102.68 287.99 109.71 315.03 109.71 317.15 108.52 319.54 109.71 443.22 109.71 471.59 104.35 480.81 109.71 719.01 109.71 719.59 98.29"/><polygon class="cls-7" points="148.43 98.29 177.06 98.29 178.7 96 147.41 96 148.43 98.29"/><polygon class="cls-7" points="209.29 98.29 226.69 98.29 231.74 96 205.29 96 209.29 98.29"/><polygon class="cls-7" points="719.71 96 252.04 96 252.04 98.29 719.59 98.29 719.71 96"/><polygon class="cls-8" points="147.41 96 178.7 96 180.33 93.71 146.4 93.71 147.41 96"/><polygon class="cls-8" points="719.83 93.71 252.04 93.71 252.04 96 719.71 96 719.83 93.71"/><polygon class="cls-8" points="205.29 96 231.74 96 236.79 93.71 201.29 93.71 205.29 96"/><polygon class="cls-9" points="146.4 93.71 180.33 93.71 181.08 92.66 199.45 92.66 201.29 93.71 236.79 93.71 251.95 86.86 143.35 86.86 146.4 93.71"/><polygon class="cls-9" points="720.18 86.86 252.04 86.86 252.04 93.71 719.83 93.71 720.18 86.86"/><polygon class="cls-10" points="720.35 83.48 715.59 77.71 139.29 77.71 143.35 86.86 251.95 86.86 252.04 86.82 252.04 86.86 720.18 86.86 720.35 83.48"/><polygon class="cls-11" points="713.7 75.43 138.54 75.43 138.51 75.97 139.29 77.71 715.59 77.71 713.7 75.43"/><polygon class="cls-12" points="704.49 64.28 701.15 41.74 691.97 28.38 689.47 8.35 644.39 0 644.39 64.28 618.51 37.56 383.94 48.42 368.91 26.71 140.18 48.42 138.54 75.43 713.7 75.43 704.49 64.28"/><text class="cls-13" transform="translate(322 641.56)">flo<tspan class="cls-14" x="96.42" y="0">r</tspan><tspan class="cls-15" x="126.19" y="0">ida</tspan></text></svg>