<svg id="race_wi" xmlns="http://www.w3.org/2000/svg" viewBox="0 0 571.2 576">
    <defs>
        <style>
            .race-1{fill:none;}
            .race-2{fill:#b1491c;}
            .race-10,.race-11,.race-12,.race-13,.race-2,.race-3,.race-4,.race-5,.race-6,.race-7,.race-8,.race-9{opacity:0.9;isolation:isolate;}.race-3{fill:#852f19;}.race-4{fill:#c0511d;}.race-5{fill:#0c2939;}.race-6{fill:#0a424a;}.race-7{fill:#de621f;}.race-8{fill:#084e52;}.race-9{fill:#075a5a;}.race-10{fill:#05716a;}.race-11{fill:#037d72;}.race-12{fill:#028a7a;}.race-13{fill:#019582;}
        </style>
    </defs>
    <polygon class="race-1" points="277.39 575.06 277.63 576 331.3 575.06 277.39 575.06"/><polygon class="race-2" points="528.61 571.6 525.1 561.92 519.84 558.41 515.45 552.25 508.43 523.22 507.55 488.91 509.31 445.8 508.43 428.21 508.43 407.93 501.21 394.72 501.21 379.73 508.43 360.36 516.55 344.52 515.9 337.62 134.89 337.62 137.47 343.64 152.34 350.66 157.59 353.29 165.47 364.69 179.47 384.87 184.72 400.65 187.34 414.69 190.84 426.08 190.84 433.45 192.93 443.13 194.68 452.81 199.07 457.21 205.22 461.61 206.1 465.13 205.22 469.54 201.71 475.7 198.06 480.98 198.06 487.14 205.22 495.06 212.25 507.38 219.71 514.43 219.71 522.34 220.59 525.86 226.73 532.01 232 532.89 236.38 533.77 239.9 537.29 242.53 543.45 245.16 546.09 250.43 551.37 252.18 552.25 254.81 555.77 269.73 568.08 273.24 569.84 276.75 572.48 277.39 575.06 331.3 575.06 528.61 571.6"/><polygon class="race-3" points="515.64 334.84 520.16 326.91 528.28 306.67 528.99 304.23 84.51 304.23 84.98 305.93 93.72 309.44 106.85 313.82 118.22 319.08 126.97 326.1 127.85 332.24 134.85 337.5 134.89 337.62 515.9 337.62 515.64 334.84"/><polygon class="race-4" points="532.25 293.1 81.59 293.1 82.35 296.28 84.51 304.23 528.99 304.23 532.25 293.1"/><polygon class="race-5" points="539.1 269.7 540 256.5 541.81 249.46 544.52 238.9 544.52 234.49 536.4 230.97 524.82 230.97 522.19 233.65 514.28 245.09 509.89 255.65 506.38 262.69 501.99 266.22 496.73 267.06 493.99 267.06 493.99 269.73 493.99 269.73 493.99 269.73 487.94 257.41 491.45 239.81 493.21 223.08 494.09 213.4 496.73 207.24 498.48 204.6 501.21 201.08 501.21 197.56 491.45 195.79 478.29 189.63 478.23 189.21 53.7 189.21 53.7 194.92 56.83 201.08 62.1 202.84 69.13 205.48 75.27 209 75.35 215.16 75.35 247.17 77.1 262.95 77.98 277.86 81.59 293.1 532.25 293.1 539.1 269.7"/><polygon class="race-6" points="477.41 182.59 483.55 172.91 487.94 168.51 486.99 166.95 54.71 166.95 53.7 169.39 53.7 189.21 478.23 189.21 477.41 182.59"/><polygon class="race-7" points="480.92 157.07 469.51 157.95 460.72 164.99 458.97 166.75 450.68 160.59 450.68 153.55 456.71 148.4 66.86 148.4 61.23 155.31 57.71 159.71 54.71 166.95 486.99 166.95 480.92 157.07"/><polygon class="race-8" points="457.9 147.39 457.9 142.1 457.65 140.98 75.3 140.98 69.13 145.62 66.86 148.4 456.71 148.4 457.9 147.39"/><polygon class="race-9" points="456.83 137.27 81.1 137.27 79.66 137.71 75.3 140.98 457.65 140.98 456.83 137.27"/><polygon class="race-10" points="456.33 135.06 450.49 129.85 92.99 129.85 88.44 135.06 81.1 137.27 456.83 137.27 456.33 135.06"/><polygon class="race-11" points="448.43 128.02 447.81 126.14 95.84 126.14 94.59 128.02 92.99 129.85 450.49 129.85 448.43 128.02"/><polygon class="race-12" points="446.68 122.74 438.77 114.82 433.51 108.27 409.8 108.27 403.65 103.38 407.16 99.85 404.53 93.83 381.88 93.83 365.05 100.05 357.96 101.83 296.32 77.91 107.04 77.91 107.76 106.9 99.86 120.1 95.84 126.14 447.81 126.14 446.68 122.74"/><polygon class="race-13" points="275.54 69.85 262.25 54.74 252.5 44.08 249.84 39.64 245.41 38.75 233.89 37.87 225.91 21.87 219.71 19.21 219.71 26.32 224.14 34.31 219.71 36.09 211.37 36.09 199.07 36.09 198.06 36.09 198.06 35.6 205.28 27.68 205.28 21.71 209.79 16.29 216.1 10.86 219.71 7.24 219.71 4.92 216.18 0 208.24 0 196.77 5.74 186.19 13.12 177.37 16.4 170.31 20.5 159.72 23.79 151.78 29.53 142.96 31.17 140.31 28.71 140.31 18.05 127.96 21.32 124.44 27.07 120.02 31.17 115.61 36.09 106 36.09 107.04 77.91 296.32 77.91 275.54 69.85"/>
</svg>