<svg id="graphic" xmlns="http://www.w3.org/2000/svg" viewBox="0 0 1560.29 576"><defs><style>.cls-1{fill:none;}.cls-2{fill:#b1491c;}.cls-10,.cls-11,.cls-12,.cls-13,.cls-14,.cls-2,.cls-3,.cls-4,.cls-5,.cls-6,.cls-7,.cls-8,.cls-9{opacity:0.9;isolation:isolate;}.cls-3{fill:#852f19;}.cls-4{fill:#93381a;}.cls-5{fill:#0c2939;}.cls-6{fill:#0a424a;}.cls-7{fill:#de621f;}.cls-8{fill:#084e52;}.cls-9{fill:#075a5a;}.cls-10{fill:#05716a;}.cls-11{fill:#037d72;}.cls-12{fill:#028a7a;}.cls-13{fill:#0b3642;}.cls-14{fill:#019582;}</style></defs><polygon class="cls-1" points="1068.92 576 1076.62 584.09 1089.54 576 1068.92 576"/><polygon class="cls-2" points="1093.18 573.72 1157.46 573.06 1186.85 554.99 1215.26 493.98 1317.61 404.32 1398.21 385.03 1438 363.78 1442.33 338.18 1401.75 354.36 1344.13 354.5 1329.53 324.06 1363.4 328.13 1390.37 314.59 1409.11 281.56 1394.24 252.72 1403.09 229.53 1430.31 224.26 1436.67 245.08 1456.38 254.99 1487.88 243.86 1520.48 216.46 1525.02 189.59 276.36 189.59 266.36 198.71 203.34 230.84 124.63 238.94 65.81 304.69 60.13 338.28 70 338.3 300.97 344.42 380.49 331.53 424.29 306.02 656.57 323.88 666.93 340.44 699.72 350.92 705.49 394.68 899.13 397.78 1068.92 576 1089.54 576 1093.18 573.72"/><polygon class="cls-3" points="1528.68 167.93 1493.53 167.93 1490.18 171.85 1487.69 167.93 300.12 167.93 276.36 189.59 1525.02 189.59 1528.68 167.93"/><polygon class="cls-4" points="1486.54 166.12 302.1 166.12 300.12 167.93 1487.69 167.93 1486.54 166.12"/><polygon class="cls-4" points="1528.99 166.12 1495.08 166.12 1493.53 167.93 1528.68 167.93 1528.99 166.12"/><polygon class="cls-5" points="1466.79 134.99 1395.81 146.03 1384.93 122.8 1414.49 111.95 449.22 111.95 433.23 126.53 402.83 121.4 373.18 141.07 336.38 134.85 302.1 166.12 1486.54 166.12 1466.79 134.99"/><polygon class="cls-5" points="1532.38 146.07 1508.63 150.28 1495.08 166.12 1528.99 166.12 1532.38 146.07"/><polygon class="cls-6" points="1463.69 93.89 469.72 93.89 468.24 94.6 449.22 111.95 1414.49 111.95 1463.69 93.89"/><polygon class="cls-7" points="1488.29 84.86 488.54 84.86 469.72 93.89 1463.69 93.89 1488.29 84.86"/><polygon class="cls-8" points="1498.13 81.25 496.07 81.25 488.54 84.86 1488.29 84.86 1498.13 81.25"/><polygon class="cls-9" points="1503.05 79.45 498.77 79.45 498.68 80 496.07 81.25 1498.13 81.25 1503.05 79.45"/><polygon class="cls-10" points="1507.72 77.73 1508.05 75.84 499.38 75.84 498.77 79.45 1503.05 79.45 1507.72 77.73"/><polygon class="cls-11" points="1508.96 70.42 500.3 70.42 499.38 75.84 1508.05 75.84 1508.96 70.42"/><polygon class="cls-12" points="1511.1 57.78 502.43 57.78 500.3 70.42 1508.96 70.42 1511.1 57.78"/><polygon class="cls-13" points="1511.4 55.98 502.74 55.98 502.43 57.78 1511.1 57.78 1511.4 55.98"/><polygon class="cls-14" points="1512.86 47.34 1494.81 8.09 1101.61 27.21 519.36 16.03 510.03 12.81 502.74 55.98 1511.4 55.98 1512.86 47.34"/></svg>