<svg id="Layer_1" data-name="Layer 1" xmlns="http://www.w3.org/2000/svg" viewBox="0 0 603.99 415.29"><defs><style>.cls-1{fill:#fff;}.cls-2,.cls-3,.cls-4{opacity:0.9;isolation:isolate;}.cls-3{fill:#f36e21;}.cls-4{fill:#0d2436;}</style></defs><rect class="cls-1" width="603.99" height="415.29"/><g id="data-points" class="cls-2"><path id="point-0-0" class="cls-3" d="M294.29,323.49h-117v15.75h117Z"/><path id="point-0-1" class="cls-3" d="M294.29,297.25H176V313H294.29Z"/><path id="point-0-2" class="cls-3" d="M294.29,271H164.71v15.75H294.29Z"/><path id="point-0-3" class="cls-3" d="M294.29,244.77H158.07v15.75H294.29Z"/><path id="point-0-4" class="cls-3" d="M294.29,218.53H158.6v15.75H294.29Z"/><path id="point-0-5" class="cls-3" d="M294.29,192.29H11.19V208h283.1Z"/><path id="point-0-6" class="cls-3" d="M294.29,166.05H44.42V181.8H294.29Z"/><path id="point-0-7" class="cls-3" d="M294.29,139.81H17.12v15.75H294.29Z"/><path id="point-0-8" class="cls-3" d="M294.29,113.57H141.18v15.75H294.29Z"/><path id="point-0-9" class="cls-3" d="M294.29,87.33H144.85v15.74H294.29Z"/><path id="point-0-10" class="cls-3" d="M294.29,61.09h-219V76.83h219Z"/><path id="point-0-11" class="cls-3" d="M294.29,34.85H176.11V50.59H294.29Z"/><path id="point-0-12" class="cls-3" d="M294.29,8.61H241.9V24.35h52.39Z"/></g><g id="data-points-2" data-name="data-points"><path id="point-0-0-2" data-name="point-0-0" class="cls-4" d="M315.08,320.31H436.34v15.56H315.08Z"/><path id="point-0-1-2" data-name="point-0-1" class="cls-4" d="M315.08,294.37h125.7v15.56H315.08Z"/><path id="point-0-2-2" data-name="point-0-2" class="cls-4" d="M315.08,268.43H452.52V284H315.08Z"/><path id="point-0-3-2" data-name="point-0-3" class="cls-4" d="M315.08,242.49H453.91v15.57H315.08Z"/><path id="point-0-4-2" data-name="point-0-4" class="cls-4" d="M315.08,216.55H459.87v15.57H315.08Z"/><path id="point-0-5-2" data-name="point-0-5" class="cls-4" d="M315.08,190.62H584.9v15.56H315.08Z"/><path id="point-0-6-2" data-name="point-0-6" class="cls-4" d="M315.08,164.68H574.24v15.56H315.08Z"/><path id="point-0-7-2" data-name="point-0-7" class="cls-4" d="M315.08,138.74H585.86V154.3H315.08Z"/><path id="point-0-8-2" data-name="point-0-8" class="cls-4" d="M315.08,112.8H468.92v15.56H315.08Z"/><path id="point-0-9-2" data-name="point-0-9" class="cls-4" d="M315.08,86.86H463.7v15.57H315.08Z"/><path id="point-0-10-2" data-name="point-0-10" class="cls-4" d="M315.08,60.92H524.73V76.49H315.08Z"/><path id="point-0-11-2" data-name="point-0-11" class="cls-4" d="M315.08,35H421.45V50.55H315.08Z"/><path id="point-0-12-2" data-name="point-0-12" class="cls-4" d="M315.08,9.05h45.75V24.61H315.08Z"/></g></svg>