<svg id="Layer_1" data-name="Layer 1" xmlns="http://www.w3.org/2000/svg" viewBox="0 0 603.99 415.29"><defs><style>.cls-1{fill:#fff;}.cls-2{fill:#f36e21;}.cls-2,.cls-3{opacity:0.9;isolation:isolate;}.cls-3{fill:#0d2436;}</style></defs><rect class="cls-1" width="603.99" height="415.29"/><path id="point-0-0" class="cls-2" d="M315.94,320.15H436.39v15.59H315.94Z"/><path id="point-0-1" class="cls-2" d="M315.94,294.18H441.12v15.59H315.94Z"/><path id="point-0-2" class="cls-2" d="M315.94,268.21H453.08v15.58H315.94Z"/><path id="point-0-3" class="cls-2" d="M315.94,242.23H457.41v15.59H315.94Z"/><path id="point-0-4" class="cls-2" d="M315.94,216.26H453.56v15.58H315.94Z"/><path id="point-0-5" class="cls-2" d="M315.94,190.28H594.75v15.59H315.94Z"/><path id="point-0-6" class="cls-2" d="M315.94,164.31H580.25v15.58H315.94Z"/><path id="point-0-7" class="cls-2" d="M315.94,138.33h278v15.59h-278Z"/><path id="point-0-8" class="cls-2" d="M315.94,112.36H452.66v15.58H315.94Z"/><path id="point-0-9" class="cls-2" d="M315.94,86.38H450.05V102H315.94Z"/><path id="point-0-10" class="cls-2" d="M315.94,60.41H520.46V76H315.94Z"/><path id="point-0-11" class="cls-2" d="M315.94,34.44h99.94V50H315.94Z"/><path id="point-0-12" class="cls-2" d="M315.94,8.46h36.12V24.05H315.94Z"/><g id="data-points"><path id="point-0-0-2" data-name="point-0-0" class="cls-3" d="M294.42,321h-122v15.64h122Z"/><path id="point-0-1-2" data-name="point-0-1" class="cls-3" d="M294.42,295H168.6V310.6H294.42Z"/><path id="point-0-2-2" data-name="point-0-2" class="cls-3" d="M294.42,268.89H161.73v15.64H294.42Z"/><path id="point-0-3-2" data-name="point-0-3" class="cls-3" d="M294.42,242.82H152.85v15.64H294.42Z"/><path id="point-0-4-2" data-name="point-0-4" class="cls-3" d="M294.42,216.75h-148v15.64h148Z"/><path id="point-0-5-2" data-name="point-0-5" class="cls-3" d="M294.42,190.69H17.64v15.64H294.42Z"/><path id="point-0-6-2" data-name="point-0-6" class="cls-3" d="M294.42,164.62H44.6v15.64H294.42Z"/><path id="point-0-7-2" data-name="point-0-7" class="cls-3" d="M294.42,138.55H17.77v15.64H294.42Z"/><path id="point-0-8-2" data-name="point-0-8" class="cls-3" d="M294.42,112.49H144.22v15.64h150.2Z"/><path id="point-0-9-2" data-name="point-0-9" class="cls-3" d="M294.42,86.42H144.18v15.64H294.42Z"/><path id="point-0-10-2" data-name="point-0-10" class="cls-3" d="M294.42,60.35H78.12V76h216.3Z"/><path id="point-0-11-2" data-name="point-0-11" class="cls-3" d="M294.42,34.29H185.76V49.93H294.42Z"/><path id="point-0-12-2" data-name="point-0-12" class="cls-3" d="M294.42,8.22H250.63V23.86h43.79Z"/></g></svg>