<svg id="graphic" xmlns="http://www.w3.org/2000/svg" viewBox="0 0 467.74 576"><defs><style>.cls-1{font-size:89.95px;font-family:MyriadPro-Regular, Myriad Pro;}.cls-2{letter-spacing:0em;}.cls-3{letter-spacing:0em;}.cls-4{fill:#b1491c;}.cls-10,.cls-11,.cls-12,.cls-13,.cls-14,.cls-4,.cls-5,.cls-6,.cls-7,.cls-8,.cls-9{opacity:0.9;isolation:isolate;}.cls-5{fill:#852f19;}.cls-6{fill:#0c2939;}.cls-7{fill:#0a424a;}.cls-8{fill:#de621f;}.cls-9{fill:#084e52;}.cls-10{fill:#075a5a;}.cls-11{fill:#05716a;}.cls-12{fill:#037d72;}.cls-13{fill:#028a7a;}.cls-14{fill:#019582;}</style></defs><text class="cls-1" transform="translate(-199.99 -16.4)">flo<tspan class="cls-2" x="96.42" y="0">r</tspan><tspan class="cls-3" x="126.19" y="0">ida</tspan></text><text class="cls-1" transform="translate(226.89 640.7)">maine</text><polygon class="cls-4" points="153.29 482.68 176.85 462.4 190.99 470.14 204.05 453.62 231.52 450.91 243.7 433.28 263.47 396.8 74.42 396.8 100.31 513.47 97.08 540.23 126.94 576 156.6 505.19 153.29 482.68"/><polygon class="cls-5" points="265.69 392.71 284 390.9 318.04 358.82 336.89 369.14 355.02 352.23 386.15 335.88 399.53 320 57.38 320 74.42 396.8 263.47 396.8 265.69 392.71"/><polygon class="cls-6" points="408.45 309.42 425.89 306.5 414.8 290.08 409.39 268.32 371.07 252.63 362.77 221.47 336.7 204.25 329.35 166.4 112.5 166.4 112.94 217.43 102.78 243.35 85.64 260.38 88.95 282.89 71.7 300.92 59.89 290.44 51.49 293.45 57.38 320 399.53 320 408.45 309.42"/><polygon class="cls-7" points="324.38 140.8 125.08 140.8 112.47 163.09 112.5 166.4 329.35 166.4 324.38 140.8"/><polygon class="cls-8" points="319.41 115.2 122.25 115.2 119.48 121.71 125.25 140.51 125.08 140.8 324.38 140.8 319.41 115.2"/><polygon class="cls-9" points="314.44 89.6 133.16 89.6 122.25 115.2 319.41 115.2 314.44 89.6"/><polygon class="cls-10" points="311.95 76.8 138.61 76.8 133.16 89.6 314.44 89.6 311.95 76.8"/><polygon class="cls-11" points="309.46 64 144.07 64 138.61 76.8 311.95 76.8 309.46 64"/><polygon class="cls-12" points="306.98 51.2 149.52 51.2 144.07 64 309.46 64 306.98 51.2"/><polygon class="cls-13" points="305.71 44.68 282.8 25.6 216.73 25.6 197.35 34.61 187.78 25.6 160.43 25.6 149.52 51.2 306.98 51.2 305.71 44.68"/><polygon class="cls-14" points="180.2 18.47 185.45 0 169.99 3.16 160.43 25.6 187.78 25.6 180.2 18.47"/><polygon class="cls-14" points="259.13 5.88 216.73 25.6 282.8 25.6 259.13 5.88"/></svg>