<svg id="graphic" xmlns="http://www.w3.org/2000/svg" viewBox="0 0 180 360"><defs><style>.cls-1{fill:#b1491c;}.cls-1,.cls-10,.cls-11,.cls-12,.cls-13,.cls-2,.cls-3,.cls-4,.cls-5,.cls-6,.cls-7,.cls-8,.cls-9{isolation:isolate;}.cls-2{fill:#852f19;}.cls-3{fill:#a3411b;}.cls-4{fill:#0c2939;}.cls-5{fill:#0a424a;}.cls-6{fill:#de621f;}.cls-7{fill:#084e52;}.cls-8{fill:#05716a;}.cls-9{fill:#037d72;}.cls-10{fill:#028a7a;}.cls-11{fill:#0b3642;}.cls-12{fill:#762718;}.cls-13{fill:#019582;}</style></defs><path id="point-1-5" class="cls-1" d="M0,234.17H180V360H0Z"/><path id="point-2-5" class="cls-2" d="M0,220.19H180v14H0Z"/><path id="point-6-5" class="cls-3" d="M0,216.7H180v3.49H0Z"/><path id="point-7-5" class="cls-4" d="M0,129.32H180V216.7H0Z"/><path id="point-8-5" class="cls-5" d="M0,115.34H180v14H0Z"/><path id="point-9-5" class="cls-6" d="M0,101.36H180v14H0Z"/><path id="point-10-5" class="cls-7" d="M0,94.37H180v7H0Z"/><path id="point-12-5" class="cls-8" d="M0,87.38H180v7H0Z"/><path id="point-13-5" class="cls-9" d="M0,73.4H180v14H0Z"/><path id="point-14-5" class="cls-10" d="M0,41.94H180V73.4H0Z"/><path id="point-15-5" class="cls-11" d="M0,38.45H180v3.49H0Z"/><path id="point-19-5" class="cls-12" d="M0,35H180v3.5H0Z"/><path id="point-20-5" class="cls-13" d="M0,0H180V35H0Z"/></svg>