<svg id="graphic" xmlns="http://www.w3.org/2000/svg" viewBox="0 0 180 360"><defs><style>.cls-1{fill:#b1491c;}.cls-1,.cls-10,.cls-11,.cls-12,.cls-2,.cls-3,.cls-4,.cls-5,.cls-6,.cls-7,.cls-8,.cls-9{isolation:isolate;}.cls-2{fill:#852f19;}.cls-3{fill:#93381a;}.cls-4{fill:#0c2939;}.cls-5{fill:#0a424a;}.cls-6{fill:#de621f;}.cls-7{fill:#084e52;}.cls-8{fill:#075a5a;}.cls-9{fill:#05716a;}.cls-10{fill:#037d72;}.cls-11{fill:#028a7a;}.cls-12{fill:#019582;}</style></defs><path id="point-1-9" class="cls-1" d="M0,117.39H180V360H0Z"/><path id="point-2-9" class="cls-2" d="M0,113.48H180v3.91H0Z"/><path id="point-3-9" class="cls-3" d="M0,111.52H180v2H0Z"/><path id="point-7-9" class="cls-4" d="M0,66.52H180v45H0Z"/><path id="point-8-9" class="cls-5" d="M0,50.87H180V66.52H0Z"/><path id="point-9-9" class="cls-6" d="M0,41.09H180v9.78H0Z"/><path id="point-10-9" class="cls-7" d="M0,37.17H180v3.92H0Z"/><path id="point-11-9" class="cls-8" d="M0,35.22H180v2H0Z"/><path id="point-12-9" class="cls-9" d="M0,31.3H180v3.92H0Z"/><path id="point-13-9" class="cls-10" d="M0,27.39H180V31.3H0Z"/><path id="point-14-9" class="cls-11" d="M0,19.57H180v7.82H0Z"/><path id="point-20-9" class="cls-12" d="M0,0H180V19.57H0Z"/></svg>