<svg id="graphic" xmlns="http://www.w3.org/2000/svg" viewBox="0 0 645.43 874.67"><defs><style>.cls-1{fill:#762718;}.cls-1,.cls-13,.cls-14,.cls-15,.cls-16,.cls-17,.cls-18,.cls-19,.cls-2,.cls-20,.cls-21,.cls-22,.cls-3,.cls-4,.cls-5,.cls-6,.cls-7,.cls-8,.cls-9{stroke:#fff;stroke-miterlimit:10;}.cls-2{fill:#852f19;}.cls-3{fill:#93381a;}.cls-4{fill:#a3411b;}.cls-5{fill:#b1491c;}.cls-6{fill:#c0511d;}.cls-7{fill:#cf5a1e;}.cls-8{fill:#de621f;}.cls-9{fill:#ed6b21;}.cls-10,.cls-23{font-size:26.98px;font-family:Numans-Regular, Numans;}.cls-11{letter-spacing:-0.01em;}.cls-12{letter-spacing:-0.01em;}.cls-13{fill:#0c2939;}.cls-14{fill:#0b3642;}.cls-15{fill:#0a424a;}.cls-16{fill:#084e52;}.cls-17{fill:#075a5a;}.cls-18{fill:#066662;}.cls-19{fill:#05716a;}.cls-20{fill:#037d72;}.cls-21{fill:#028a7a;}.cls-22{fill:#019582;}.cls-23,.cls-25{letter-spacing:-0.01em;}.cls-24{letter-spacing:0em;}</style></defs><rect class="cls-1" x="333.38" y="597.13" width="78.86" height="78.86"/><rect class="cls-2" x="333.38" y="123" width="78.86" height="78.86"/><rect class="cls-3" x="333.38" y="202.77" width="78.86" height="78.86"/><rect class="cls-4" x="333.38" y="439.41" width="78.86" height="78.86"/><rect class="cls-5" x="333.38" y="43.37" width="78.86" height="78.86"/><rect class="cls-6" x="333.38" y="282.19" width="78.86" height="78.86"/><rect class="cls-7" x="333.38" y="676" width="78.86" height="78.86"/><rect class="cls-8" x="333.38" y="518.27" width="78.86" height="78.86"/><rect class="cls-9" x="333.38" y="360.68" width="78.86" height="78.86"/><text class="cls-10" transform="translate(433.26 98.2)">Black</text><text class="cls-10" transform="translate(433.26 159.36)">American <tspan x="0" y="32.37">Indian</tspan></text><text class="cls-10" transform="translate(433.26 251.09)">Cherokee</text><text class="cls-10" transform="translate(433.26 330.51)">Chipp<tspan class="cls-11" x="81.22" y="0">ew</tspan><tspan x="121.53" y="0">a</tspan></text><text class="cls-10" transform="translate(433.26 415.51)">N<tspan class="cls-12" x="21.31" y="0">av</tspan><tspan x="54.02" y="0">ajo</tspan></text><text class="cls-10" transform="translate(433.26 485.07)">Sioux</text><text class="cls-10" transform="translate(433.26 557.66)">Chinese</text><text class="cls-10" transform="translate(433.26 723.25)">Samoan</text><text class="cls-10" transform="translate(433.26 632.39)">Other pacific <tspan x="0" y="32.37">Islander</tspan></text><rect class="cls-13" x="226.51" y="43.94" width="78.86" height="78.86"/><rect class="cls-14" x="226.51" y="597.91" width="78.86" height="78.86"/><rect class="cls-15" x="226.51" y="122.8" width="78.86" height="78.86"/><rect class="cls-16" x="226.51" y="202.22" width="78.86" height="78.86"/><rect class="cls-17" x="226.51" y="281.69" width="78.86" height="78.86"/><rect class="cls-18" x="226.51" y="676.96" width="78.86" height="78.86"/><rect class="cls-19" x="226.51" y="360.34" width="78.86" height="78.86"/><rect class="cls-20" x="226.51" y="440.07" width="78.86" height="78.86"/><rect class="cls-21" x="226.51" y="518.86" width="78.86" height="78.86"/><rect class="cls-22" x="226.51" y="756.01" width="78.86" height="78.86"/><text class="cls-10" transform="translate(46.93 798.46)">Other race</text><text class="cls-10" transform="translate(122.42 86.67)">Asian</text><text class="cls-10" transform="translate(113.73 167.76)">Indian</text><text class="cls-10" transform="translate(99.32 247.19)">Filipino</text><text class="cls-10" transform="translate(66.64 334.84)">Japanese</text><text class="cls-23" transform="translate(99.61 405.31)">K<tspan class="cls-24" x="18.43" y="0">orean</tspan></text><text class="cls-10" transform="translate(31.22 485.03)">Vietnamese</text><text class="cls-10" transform="translate(34.79 563.82)">Other asian</text><text class="cls-10" transform="translate(72.07 642.88)">H<tspan class="cls-25" x="20.77" y="0">aw</tspan><tspan x="60.81" y="0">aiian</tspan></text><text class="cls-10" transform="translate(39.14 721.93)">Guamanian</text></svg>