<svg id="race_co" xmlns="http://www.w3.org/2000/svg" viewBox="0 0 1035 576">
    <defs>
        <style>.raceco-1{fill:#b1491c;}.raceco-1,.raceco-10,.raceco-11,.raceco-12,.raceco-13,.raceco-14,.raceco-15,.raceco-16,.raceco-2,.raceco-3,.raceco-4,.raceco-5,.raceco-6,.raceco-7,.raceco-8,.raceco-9{opacity:0.9;isolation:isolate;}.raceco-2{fill:#852f19;}.raceco-3{fill:#93381a;}.raceco-4{fill:#ed6b21;}.raceco-5{fill:#a3411b;}.raceco-6{fill:#0c2939;}.raceco-7{fill:#0a424a;}.raceco-8{fill:#de621f;}.raceco-9{fill:#084e52;}.raceco-10{fill:#075a5a;}.raceco-11{fill:#05716a;}.raceco-12{fill:#037d72;}.raceco-13{fill:#028a7a;}.raceco-14{fill:#0b3642;}.raceco-15{fill:#066662;}.raceco-16{fill:#019582;}.raceco-17{font-size:89.95px;font-family:MyriadPro-Regular, Myriad Pro;}.raceco-18{letter-spacing:-0.01em;}.raceco-19{letter-spacing:0em;}.raceco-20{letter-spacing:0em;}
        </style>
    </defs><polygon class="raceco-1" points="899.59 419.92 126.25 419.92 124.53 574.14 799.42 576 910.47 564.61 899.59 419.92"/><polygon class="raceco-2" points="896.79 382.76 126.67 382.76 126.25 419.92 899.59 419.92 896.79 382.76"/><polygon class="raceco-3" points="896.51 379.05 126.71 379.05 126.67 382.76 896.79 382.76 896.51 379.05"/><polygon class="raceco-4" points="896.23 375.33 126.75 375.33 126.71 379.05 896.51 379.05 896.23 375.33"/><polygon class="raceco-5" points="895.95 371.61 126.8 371.61 126.75 375.33 896.23 375.33 895.95 371.61"/><polygon class="raceco-6" points="887.01 252.7 128.13 252.7 126.8 371.61 895.95 371.61 887.01 252.7"/><polygon class="raceco-7" points="885.33 230.4 128.38 230.4 128.13 252.7 887.01 252.7 885.33 230.4"/><polygon class="raceco-8" points="883.65 208.1 128.62 208.1 128.38 230.4 885.33 230.4 883.65 208.1"/><polygon class="raceco-9" points="882.82 196.96 128.75 196.96 128.62 208.1 883.65 208.1 882.82 196.96"/><polygon class="raceco-10" points="882.26 189.52 128.83 189.52 128.75 196.96 882.82 196.96 882.26 189.52"/><polygon class="raceco-11" points="881.14 174.66 129 174.66 128.83 189.52 882.26 189.52 881.14 174.66"/><polygon class="raceco-12" points="880.02 159.79 129.16 159.79 129 174.66 881.14 174.66 880.02 159.79"/><polygon class="raceco-13" points="878.34 137.5 129.41 137.5 129.16 159.79 880.02 159.79 878.34 137.5"/><polygon class="raceco-14" points="878.07 133.78 129.46 133.78 129.41 137.5 878.34 137.5 878.07 133.78"/><polygon class="raceco-15" points="877.78 130.06 129.5 130.06 129.46 133.78 878.07 133.78 877.78 130.06"/><polygon class="raceco-16" points="868.07 0.91 662.61 4.95 130.95 0 129.5 130.06 877.78 130.06 868.07 0.91"/><text class="raceco-17" transform="translate(624.64 646.56)"><tspan class="raceco-18">c</tspan><tspan x="39.76" y="0">olo</tspan><tspan class="raceco-19" x="159.74" y="0">r</tspan><tspan class="raceco-20" x="188.71" y="0">ado</tspan></text>
</svg>