<svg id="race_pa" xmlns="http://www.w3.org/2000/svg" viewBox="0 0 1035 576"><defs><style>.racepa-1{fill:none;}.racepa-2{fill:#b1491c;}.racepa-10,.racepa-11,.racepa-2,.racepa-3,.racepa-4,.racepa-5,.racepa-6,.racepa-7,.racepa-8,.racepa-9{opacity:0.9;isolation:isolate;}.racepa-3{fill:#852f19;}.racepa-4{fill:#0c2939;}.racepa-5{fill:#0a424a;}.racepa-6{fill:#de621f;}.racepa-7{fill:#084e52;}.racepa-8{fill:#05716a;}.racepa-9{fill:#037d72;}.racepa-10{fill:#028a7a;}.racepa-11{fill:#019582;}</style></defs><polygon class="racepa-1" points="135.67 0 136.68 -5.95 126.97 0 135.67 0"/><polygon class="racepa-2" points="7.32 355.16 20.51 568.24 825.39 567.89 851.4 522.82 896.47 548.83 944.43 514.84 964.75 481.64 1017.14 453.9 981.71 392.86 954.99 388.31 957.15 364.84 917.96 358.17 945.87 280.42 938.9 265.85 6.28 265.85 7.32 355.16"/><polygon class="racepa-3" points="6.28 265.85 938.9 265.85 936.25 260.31 6.21 260.31 6.28 265.85"/><polygon class="racepa-4" points="6.21 260.31 936.25 260.31 929.65 246.49 971.32 227.93 997.1 162.66 992.31 160.62 5.05 160.62 6.21 260.31"/><polygon class="racepa-5" points="5.05 160.62 992.31 160.62 961.21 147.37 950.93 130.15 4.7 130.15 5.05 160.62"/><polygon class="racepa-6" points="4.7 130.15 950.93 130.15 936.04 105.23 4.41 105.23 4.7 130.15"/><polygon class="racepa-7" points="4.41 105.23 936.04 105.23 932.73 99.69 4.35 99.69 4.41 105.23"/><polygon class="racepa-8" points="4.35 99.69 932.73 99.69 927.77 91.39 4.25 91.39 4.35 99.69"/><polygon class="racepa-9" points="4.25 91.39 927.77 91.39 922.81 83.08 4.15 83.08 4.25 91.39"/><polygon class="racepa-10" points="4.15 83.08 922.81 83.08 912.89 66.46 3.96 66.46 4.15 83.08"/><polygon class="racepa-11" points="103.93 14.13 74.21 16.4 38.15 45.09 3.92 63.09 3.96 66.46 912.89 66.46 894.17 35.12 127.88 45.71 135.67 0 126.97 0 103.93 14.13"/>
</svg>