<svg id="Layer_1" data-name="Layer 1" xmlns="http://www.w3.org/2000/svg" viewBox="0 0 1696 1232"><defs><style>.cls-1,.cls-25{fill:none;}.cls-1{stroke:#eee;stroke-dasharray:0;}.cls-19,.cls-2{fill:#fcae92;}.cls-19,.cls-2,.cls-20,.cls-23,.cls-26,.cls-27,.cls-28,.cls-29,.cls-3,.cls-30,.cls-31,.cls-38,.cls-4,.cls-5,.cls-6,.cls-7{isolation:isolate;}.cls-20,.cls-3{fill:#f98e58;}.cls-22,.cls-4{fill:#98503f;}.cls-5{fill:#893d2e;}.cls-21,.cls-6{fill:#b3654a;}.cls-23,.cls-38,.cls-7{fill:#5f1a16;}.cls-32,.cls-8{font-size:26px;}.cls-17,.cls-32,.cls-33,.cls-36,.cls-8{font-family:Numans-Regular, Numans;}.cls-9{letter-spacing:-0.02em;}.cls-10{letter-spacing:-0.02em;}.cls-11,.cls-26{fill:#86b7d1;}.cls-12,.cls-27{fill:#5991b8;}.cls-13,.cls-28{fill:#3f7a9e;}.cls-14,.cls-29{fill:#284b64;}.cls-15,.cls-30{fill:#1a364c;}.cls-16,.cls-31{fill:#0f2639;}.cls-17{font-size:20px;}.cls-18{letter-spacing:-0.01em;}.cls-19,.cls-20,.cls-23{opacity:0.9;}.cls-24{letter-spacing:-0.01em;}.cls-26,.cls-27,.cls-28,.cls-29,.cls-30,.cls-31,.cls-38{opacity:0.9;}.cls-32{opacity:0.75;}.cls-33,.cls-36{font-size:30px;}.cls-33,.cls-37{letter-spacing:0.05em;}.cls-34{letter-spacing:0.01em;}.cls-35,.cls-36{letter-spacing:0.03em;}</style></defs><line class="cls-1" x1="1621.14" y1="1108.95" x2="1621.14" y2="140.09"/><line class="cls-1" x1="1049.14" y1="1108.95" x2="1049.14" y2="140.09"/><path id="point-0-1" class="cls-2" d="M1116.76,1021.53v-10.31H906.57v10.31Z"/><path id="point-1-1" class="cls-3" d="M1120.21,1011.22V1000.9H906.57v10.32Z"/><path id="point-3-1" class="cls-4" d="M1104.7,990.59V980.28H906.57v10.31Z"/><path id="point-4-1" class="cls-5" d="M1153.8,980.28V970H906.57v10.32Z"/><path id="point-2-1" class="cls-6" d="M1117.62,1000.9V990.59h-211v10.31Z"/><path id="point-5-1" class="cls-7" d="M1117.62,970V959.65h-211V970Z"/><text class="cls-8" transform="translate(822.91 106.06)">85+</text><text class="cls-8" transform="translate(824.22 1000.76)">5-9</text><text class="cls-8" transform="translate(832.39 1081.97)">&gt;5</text><text class="cls-8" transform="translate(814.5 920.06)">10<tspan class="cls-9" x="27.93" y="0">-</tspan><tspan x="40.52" y="0">14</tspan></text><text class="cls-8" transform="translate(814.74 838.56)">15<tspan class="cls-9" x="27.29" y="0">-</tspan><tspan x="39.89" y="0">19</tspan></text><text class="cls-8" transform="translate(808.1 757.06)">20<tspan class="cls-9" x="34.58" y="0">-2</tspan><tspan x="63.04" y="0">4</tspan></text><text class="cls-8" transform="translate(807.88 675.56)">25<tspan class="cls-9" x="33.95" y="0">-</tspan><tspan x="46.54" y="0">34</tspan></text><text class="cls-8" transform="translate(807.44 594.06)">35-44</text><text class="cls-8" transform="translate(807.13 512.56)">45-54</text><text class="cls-8" transform="translate(806.65 432.16)">55-59</text><text class="cls-8" transform="translate(807.08 350.66)">60-64</text><text class="cls-8" transform="translate(809.47 272.06)">65<tspan class="cls-9" x="34.47" y="0">-</tspan><tspan class="cls-10" x="47.06" y="0">7</tspan><tspan x="60.32" y="0">4</tspan></text><text class="cls-8" transform="translate(808.64 188.56)">75-84</text><rect class="cls-11" x="33.2" y="329.13" width="44.8" height="44.8"/><rect class="cls-12" x="32.3" y="270.13" width="45.7" height="45.7"/><rect class="cls-13" x="31.27" y="213.33" width="46.73" height="46.73"/><rect class="cls-14" x="30.35" y="155.28" width="47.65" height="47.65"/><rect class="cls-15" x="30.59" y="97.13" width="47.41" height="47.41"/><rect class="cls-16" x="30.69" y="39.13" width="47.31" height="47.31"/><text class="cls-17" transform="translate(104.28 355.66)">ari<tspan class="cls-18" x="27.71" y="0">z</tspan><tspan x="38.67" y="0">ona</tspan></text><text class="cls-17" transform="translate(104.28 292.66)">colorado</text><text class="cls-17" transform="translate(104.28 236.66)">florida</text><text class="cls-17" transform="translate(104.28 178.66)">georgia</text><text class="cls-17" transform="translate(104.28 120.66)">i<tspan class="cls-18" x="5.7" y="0">ow</tspan><tspan x="35.6" y="0">a</tspan></text><text class="cls-17" transform="translate(104.28 62.66)">maine</text><rect class="cls-19" x="1610.2" y="329.13" width="44.8" height="44.8"/><rect class="cls-20" x="1609.3" y="270.13" width="45.7" height="45.7"/><rect class="cls-21" x="1608.27" y="213.33" width="46.73" height="46.73"/><rect class="cls-22" x="1607.35" y="155.28" width="47.65" height="47.65"/><rect class="cls-5" x="1607.59" y="97.13" width="47.41" height="47.41"/><rect class="cls-23" x="1607.69" y="39.13" width="47.31" height="47.31"/><text class="cls-17" transform="translate(1494.56 356.66)">michigan</text><text class="cls-17" transform="translate(1532.18 293.66)">north<tspan x="-26.21" y="24">carolina</tspan></text><text class="cls-17" transform="translate(1546.09 237.66)">ohio</text><text class="cls-17" transform="translate(1452.6 179.66)">penn<tspan class="cls-24" x="53.11" y="0">s</tspan><tspan x="64.63" y="0">yl</tspan><tspan class="cls-24" x="81.95" y="0">v</tspan><tspan x="93.9" y="0">ania</tspan></text><text class="cls-17" transform="translate(1533.63 121.66)">t<tspan class="cls-24" x="9.4" y="0">ex</tspan><tspan x="32.96" y="0">as</tspan></text><text class="cls-17" transform="translate(1485.95 63.66)">wisconsin</text><rect class="cls-25" x="81.4" y="129.92" width="714.87" height="980"/><line class="cls-1" x1="796.93" y1="1109.92" x2="796.93" y2="129.92"/><line class="cls-1" x1="653.96" y1="1109.92" x2="653.96" y2="129.92"/><line class="cls-1" x1="510.98" y1="1109.92" x2="510.98" y2="129.92"/><line class="cls-1" x1="368.01" y1="1109.92" x2="368.01" y2="129.92"/><line class="cls-1" x1="225.03" y1="1109.92" x2="225.03" y2="129.92"/><line class="cls-1" x1="82.06" y1="1109.92" x2="82.06" y2="129.92"/><path id="point-0-0" class="cls-26" d="M580,1103v-10.43H796.27V1103Z"/><path id="point-1-0" class="cls-27" d="M585.74,1092.54v-10.42H796.27v10.42Z"/><path id="point-2-0" class="cls-28" d="M605.76,1082.12v-10.43H796.27v10.43Z"/><path id="point-3-0" class="cls-29" d="M576.81,1071.69v-10.43H796.27v10.43Z"/><path id="point-4-0" class="cls-30" d="M572.16,1061.26v-10.42H796.27v10.42Z"/><path id="point-5-0" class="cls-31" d="M626.85,1050.84v-10.43H796.27v10.43Z"/><path id="point-0-1-2" data-name="point-0-1" class="cls-26" d="M576.09,1022.46V1012H796.27v10.42Z"/><path id="point-1-1-2" data-name="point-1-1" class="cls-27" d="M575.38,1012v-10.43H796.27V1012Z"/><path id="point-2-1-2" data-name="point-2-1" class="cls-28" d="M607.19,1001.61V991.19H796.27v10.42Z"/><path id="point-3-1-2" data-name="point-3-1" class="cls-29" d="M564.29,991.19V980.76h232v10.43Z"/><path id="point-4-1-2" data-name="point-4-1" class="cls-30" d="M572.52,980.76V970.34H796.27v10.42Z"/><path id="point-5-1-2" data-name="point-5-1" class="cls-31" d="M615.05,970.34V959.91H796.27v10.43Z"/><path id="point-0-2" class="cls-26" d="M552.86,941V930.53H796.27V941Z"/><path id="point-1-2" class="cls-27" d="M567.51,930.53V920.11H796.27v10.42Z"/><path id="point-2-2" class="cls-28" d="M587.53,920.11V909.68H796.27v10.43Z"/><path id="point-3-2" class="cls-29" d="M545,909.68V899.26H796.27v10.42Z"/><path id="point-4-2" class="cls-30" d="M552.5,899.26V888.83H796.27v10.43Z"/><path id="point-5-2" class="cls-31" d="M602.54,888.83V878.41H796.27v10.42Z"/><path id="point-0-3" class="cls-26" d="M558.22,859.46V849h238v10.43Z"/><path id="point-1-3" class="cls-27" d="M564.65,849V838.6H796.27V849Z"/><path id="point-2-3" class="cls-28" d="M589.32,838.6V828.18H796.27V838.6Z"/><path id="point-3-3" class="cls-29" d="M540,828.18V817.75H796.27v10.43Z"/><path id="point-4-3" class="cls-30" d="M546.42,817.75V807.33H796.27v10.42Z"/><path id="point-5-3" class="cls-31" d="M589.67,807.33V796.9h206.6v10.43Z"/><path id="point-0-4" class="cls-26" d="M552.14,778V767.53H796.27V778Z"/><path id="point-1-4" class="cls-27" d="M561.44,767.53V757.1H796.27v10.43Z"/><path id="point-2-4" class="cls-28" d="M585.74,757.1V746.68H796.27V757.1Z"/><path id="point-3-4" class="cls-29" d="M551.78,746.68V736.25H796.27v10.43Z"/><path id="point-4-4" class="cls-30" d="M547.14,736.25V725.82H796.27v10.43Z"/><path id="point-5-4" class="cls-31" d="M599,725.82V715.4h197.3v10.42Z"/><path id="point-0-5" class="cls-26" d="M308,696.45V686H796.27v10.43Z"/><path id="point-1-5" class="cls-27" d="M238,686V675.6H796.27V686Z"/><path id="point-2-5" class="cls-28" d="M333.39,675.6V665.17H796.27V675.6Z"/><path id="point-3-5" class="cls-29" d="M306.23,665.17V654.75h490v10.42Z"/><path id="point-4-5" class="cls-30" d="M349.48,654.75V644.32H796.27v10.43Z"/><path id="point-5-5" class="cls-31" d="M369.14,644.32V633.9H796.27v10.42Z"/><path id="point-0-6" class="cls-26" d="M356.27,615V604.52h440V615Z"/><path id="point-1-6" class="cls-27" d="M305.87,604.52V594.09h490.4v10.43Z"/><path id="point-2-6" class="cls-28" d="M362.34,594.09V583.67H796.27v10.42Z"/><path id="point-3-6" class="cls-29" d="M320.17,583.67V573.24h476.1v10.43Z"/><path id="point-4-6" class="cls-30" d="M362,573.24V562.82H796.27v10.42Z"/><path id="point-5-6" class="cls-31" d="M386.65,562.82V552.39H796.27v10.43Z"/><path id="point-0-7" class="cls-26" d="M371.28,533.44V523h425v10.42Z"/><path id="point-1-7" class="cls-27" d="M350.55,523V512.59H796.27V523Z"/><path id="point-2-7" class="cls-28" d="M336.25,512.59V502.16h460v10.43Z"/><path id="point-3-7" class="cls-29" d="M322,502.16V491.74H796.27v10.42Z"/><path id="point-4-7" class="cls-30" d="M378.07,491.74V481.31h418.2v10.43Z"/><path id="point-5-7" class="cls-31" d="M314.45,481.31V470.89H796.27v10.42Z"/><path id="point-0-8" class="cls-26" d="M581.81,452.94V442.51H796.27v10.43Z"/><path id="point-1-8" class="cls-27" d="M568.94,442.51V432.09H796.27v10.42Z"/><path id="point-2-8" class="cls-28" d="M553.21,432.09V421.66H796.27v10.43Z"/><path id="point-3-8" class="cls-29" d="M569.3,421.66V411.24h227v10.42Z"/><path id="point-4-8" class="cls-30" d="M554.29,411.24V400.81h242v10.43Z"/><path id="point-5-8" class="cls-31" d="M515.33,400.81V390.38H796.27v10.43Z"/><path id="point-0-9" class="cls-26" d="M579,371.43V361H796.27v10.42Z"/><path id="point-1-9" class="cls-27" d="M577.16,361V350.58H796.27V361Z"/><path id="point-2-9" class="cls-28" d="M560,350.58V340.16H796.27v10.42Z"/><path id="point-3-9" class="cls-29" d="M587.53,340.16V329.73H796.27v10.43Z"/><path id="point-4-9" class="cls-30" d="M563.22,329.73V319.31h233v10.42Z"/><path id="point-5-9" class="cls-31" d="M507.11,319.31V308.88H796.27v10.43Z"/><path id="point-0-10" class="cls-26" d="M433.47,289.93V279.51h362.8v10.42Z"/><path id="point-1-10" class="cls-27" d="M481,279.51V269.08H796.27v10.43Z"/><path id="point-2-10" class="cls-28" d="M392.73,269.08V258.65H796.27v10.43Z"/><path id="point-3-10" class="cls-29" d="M491.38,258.65V248.23H796.27v10.42Z"/><path id="point-4-10" class="cls-30" d="M457.42,248.23V237.8H796.27v10.43Z"/><path id="point-5-10" class="cls-31" d="M358.41,237.8V227.38H796.27V237.8Z"/><path id="point-0-11" class="cls-26" d="M597.54,209.43V199H796.27v10.43Z"/><path id="point-1-11" class="cls-27" d="M659.37,199V188.58h136.9V199Z"/><path id="point-2-11" class="cls-28" d="M562.51,188.58V178.15H796.27v10.43Z"/><path id="point-3-11" class="cls-29" d="M654.73,178.15V167.73H796.27v10.42Z"/><path id="point-4-11" class="cls-30" d="M611.83,167.73V157.3H796.27v10.43Z"/><path id="point-5-11" class="cls-31" d="M590,157.3V146.87H796.27V157.3Z"/><path id="point-0-12" class="cls-26" d="M730.14,126.92V116.5h66.13v10.42Z"/><path id="point-1-12" class="cls-27" d="M741.58,116.5V106.07h54.69V116.5Z"/><path id="point-2-12" class="cls-28" d="M702.27,106.07V95.65h94v10.42Z"/><path id="point-3-12" class="cls-29" d="M747.66,95.65V85.22h48.61V95.65Z"/><path id="point-4-12" class="cls-30" d="M710.49,85.22V74.8h85.78V85.22Z"/><path id="point-5-12" class="cls-31" d="M703.34,74.8V64.37h92.93V74.8Z"/><text class="cls-32" transform="translate(65.77 1149.01)">20</text><text class="cls-32" transform="translate(212.77 1149.01)">16</text><text class="cls-32" transform="translate(355.77 1149.01)">12</text><text class="cls-32" transform="translate(502.77 1149.01)">8</text><text class="cls-32" transform="translate(1184.77 1149.01)">8</text><text class="cls-33" transform="translate(623.14 1202.01)">PERCEN<tspan class="cls-34" x="136.1" y="0">T</tspan><tspan class="cls-35" x="155.33" y="0">A</tspan><tspan x="177.6" y="0">GE POPUL</tspan><tspan class="cls-34" x="347.63" y="0">A</tspan><tspan x="369.31" y="0">TION</tspan></text><text class="cls-36" transform="translate(814.15 48.01)">A<tspan class="cls-37" x="22.27" y="0">GE</tspan></text><text class="cls-32" transform="translate(1323.77 1149.01)">12</text><text class="cls-32" transform="translate(1466.77 1149.01)">16</text><text class="cls-32" transform="translate(1606.77 1149.01)">20</text><line class="cls-1" x1="1192.14" y1="1108.95" x2="1192.14" y2="140.09"/><line class="cls-1" x1="1335.14" y1="1108.95" x2="1335.14" y2="140.09"/><line class="cls-1" x1="1478.14" y1="1108.95" x2="1478.14" y2="140.09"/><path id="point-0-0-2" data-name="point-0-0" class="cls-2" d="M1109.87,1102.51v-10.32H906.57v10.32Z"/><path id="point-1-0-2" data-name="point-1-0" class="cls-3" d="M1112.45,1092.19v-10.31H906.57v10.31Z"/><path id="point-2-0-2" data-name="point-2-0" class="cls-6" d="M1118.48,1081.88v-10.32H906.57v10.32Z"/><path id="point-3-0-2" data-name="point-3-0" class="cls-4" d="M1102.12,1071.56v-10.31H906.57v10.31Z"/><path id="point-4-0-2" data-name="point-4-0" class="cls-5" d="M1157.25,1061.25v-10.31H906.57v10.31Z"/><path id="point-5-0-2" data-name="point-5-0" class="cls-7" d="M1109.87,1050.94v-10.32H906.57v10.32Z"/><path id="point-0-2-2" data-name="point-0-2" class="cls-2" d="M1128,940.2V929.89H906.57V940.2Z"/><path id="point-1-2-2" data-name="point-1-2" class="cls-3" d="M1140.88,929.89V919.57H906.57v10.32Z"/><path id="point-3-2-2" data-name="point-3-2" class="cls-4" d="M1123.65,909.26V899H906.57v10.31Z"/><path id="point-4-2-2" data-name="point-4-2" class="cls-5" d="M1177.06,899V888.63H906.57V899Z"/><path id="point-2-2-2" data-name="point-2-2" class="cls-6" d="M1136.57,919.57V909.26h-230v10.31Z"/><path id="point-5-2-2" data-name="point-5-2" class="cls-38" d="M1137.44,888.63V878.32H906.57v10.31Z"/><path id="point-0-3-2" data-name="point-0-3" class="cls-2" d="M1142.6,859.23V848.91h-236v10.32Z"/><path id="point-1-3-2" data-name="point-1-3" class="cls-3" d="M1147.77,848.91V838.6H906.57v10.31Z"/><path id="point-3-3-2" data-name="point-3-3" class="cls-4" d="M1134,828.29V818H906.57v10.32Z"/><path id="point-4-3-2" data-name="point-4-3" class="cls-5" d="M1164.14,818V807.66H906.57V818Z"/><path id="point-2-3-2" data-name="point-2-3" class="cls-6" d="M1143.47,838.6V828.29H906.57V838.6Z"/><path id="point-5-3-2" data-name="point-5-3" class="cls-38" d="M1139.16,807.66V797.34H906.57v10.32Z"/><path id="point-0-4-2" data-name="point-0-4" class="cls-2" d="M1153.8,777.25V766.94H906.57v10.31Z"/><path id="point-1-4-2" data-name="point-1-4" class="cls-3" d="M1141.74,766.94V756.63H906.57v10.31Z"/><path id="point-3-4-2" data-name="point-3-4" class="cls-4" d="M1133.13,746.31V736H906.57v10.31Z"/><path id="point-4-4-2" data-name="point-4-4" class="cls-5" d="M1154.66,736V725.68H906.57V736Z"/><path id="point-2-4-2" data-name="point-2-4" class="cls-6" d="M1136.57,756.63V746.31h-230v10.32Z"/><path id="point-5-4-2" data-name="point-5-4" class="cls-38" d="M1149.5,725.68V715.37H906.57v10.31Z"/><path id="point-0-5-2" data-name="point-0-5" class="cls-2" d="M1368.3,695.92V685.61H906.57v10.31Z"/><path id="point-1-5-2" data-name="point-1-5" class="cls-3" d="M1383,685.61V675.3H906.57v10.31Z"/><path id="point-3-5-2" data-name="point-3-5" class="cls-4" d="M1380.37,665V654.67H906.57V665Z"/><path id="point-4-5-2" data-name="point-4-5" class="cls-5" d="M1427.75,654.67V644.35H906.57v10.32Z"/><path id="point-2-5-2" data-name="point-2-5" class="cls-6" d="M1376.06,675.3V665H906.57V675.3Z"/><path id="point-5-5-2" data-name="point-5-5" class="cls-38" d="M1359.69,644.35V634H906.57v10.31Z"/><path id="point-0-6-2" data-name="point-0-6" class="cls-2" d="M1323.51,615V604.64H906.57V615Z"/><path id="point-1-6-2" data-name="point-1-6" class="cls-3" d="M1358,604.64V594.32H906.57v10.32Z"/><path id="point-3-6-2" data-name="point-3-6" class="cls-4" d="M1324.37,584V573.69H906.57V584Z"/><path id="point-4-6-2" data-name="point-4-6" class="cls-5" d="M1394.15,573.69V563.38H906.57v10.31Z"/><path id="point-2-6-2" data-name="point-2-6" class="cls-6" d="M1333.85,594.32V584H906.57v10.31Z"/><path id="point-5-6-2" data-name="point-5-6" class="cls-38" d="M1341.6,563.38V553.07h-435v10.31Z"/><path id="point-0-7-2" data-name="point-0-7" class="cls-2" d="M1368.3,532.62V522.31H906.57v10.31Z"/><path id="point-1-7-2" data-name="point-1-7" class="cls-3" d="M1381.23,522.31V512H906.57v10.32Z"/><path id="point-3-7-2" data-name="point-3-7" class="cls-4" d="M1370,501.68V491.37H906.57v10.31Z"/><path id="point-4-7-2" data-name="point-4-7" class="cls-5" d="M1349.35,491.37V481.05H906.57v10.32Z"/><path id="point-2-7-2" data-name="point-2-7" class="cls-6" d="M1362.27,512V501.68H906.57V512Z"/><path id="point-5-7-2" data-name="point-5-7" class="cls-38" d="M1360.55,481.05V470.74h-454v10.31Z"/><path id="point-0-8-2" data-name="point-0-8" class="cls-2" d="M1157.25,452.65V442.33H906.57v10.32Z"/><path id="point-1-8-2" data-name="point-1-8" class="cls-3" d="M1140,442.33V432H906.57v10.31Z"/><path id="point-3-8-2" data-name="point-3-8" class="cls-4" d="M1162.42,421.7V411.39H906.57V421.7Z"/><path id="point-4-8-2" data-name="point-4-8" class="cls-5" d="M1117.62,411.39V401.08h-211v10.31Z"/><path id="point-2-8-2" data-name="point-2-8" class="cls-6" d="M1156.39,432V421.7H906.57V432Z"/><path id="point-5-8-2" data-name="point-5-8" class="cls-38" d="M1165,401.08V390.76H906.57v10.32Z"/><path id="point-0-9-2" data-name="point-0-9" class="cls-2" d="M1157.25,370.67V360.36H906.57v10.31Z"/><path id="point-1-9-2" data-name="point-1-9" class="cls-3" d="M1135.71,360.36V350H906.57v10.32Z"/><path id="point-3-9-2" data-name="point-3-9" class="cls-4" d="M1156.39,339.73V329.42H906.57v10.31Z"/><path id="point-4-9-2" data-name="point-4-9" class="cls-5" d="M1098.67,329.42V319.1H906.57v10.32Z"/><path id="point-2-9-2" data-name="point-2-9" class="cls-6" d="M1150.36,350V339.73H906.57V350Z"/><path id="point-5-9-2" data-name="point-5-9" class="cls-38" d="M1155.53,319.1V308.79h-249V319.1Z"/><path id="point-0-10-2" data-name="point-0-10" class="cls-2" d="M1267.51,289.34V279H906.57v10.31Z"/><path id="point-1-10-2" data-name="point-1-10" class="cls-3" d="M1256.32,279V268.72H906.57V279Z"/><path id="point-3-10-2" data-name="point-3-10" class="cls-4" d="M1272.68,258.4V248.09H906.57V258.4Z"/><path id="point-4-10-2" data-name="point-4-10" class="cls-5" d="M1177.92,248.09V237.77H906.57v10.32Z"/><path id="point-2-10-2" data-name="point-2-10" class="cls-6" d="M1258.9,268.72V258.4H906.57v10.32Z"/><path id="point-5-10-2" data-name="point-5-10" class="cls-38" d="M1258,237.77V227.46H906.57v10.31Z"/><path id="point-0-11-2" data-name="point-0-11" class="cls-2" d="M1088.33,209.37V199.05H906.57v10.32Z"/><path id="point-1-11-2" data-name="point-1-11" class="cls-3" d="M1077.13,199.05V188.74H906.57v10.31Z"/><path id="point-3-11-2" data-name="point-3-11" class="cls-4" d="M1103.84,178.43V168.11H906.57v10.32Z"/><path id="point-4-11-2" data-name="point-4-11" class="cls-5" d="M1036.65,168.11V157.8H906.57v10.31Z"/><path id="point-2-11-2" data-name="point-2-11" class="cls-6" d="M1088.33,188.74V178.43H906.57v10.31Z"/><path id="point-5-11-2" data-name="point-5-11" class="cls-38" d="M1084.89,157.8V147.49H906.57V157.8Z"/><path id="point-0-12-2" data-name="point-0-12" class="cls-2" d="M979.79,126.39v-10.5H906.57v10.5Z"/><path id="point-1-12-2" data-name="point-1-12" class="cls-3" d="M967.73,115.89V105.38H906.57v10.51Z"/><path id="point-3-12-2" data-name="point-3-12" class="cls-4" d="M994.43,94.87V84.36H906.57V94.87Z"/><path id="point-4-12-2" data-name="point-4-12" class="cls-5" d="M954,84.36V73.85H906.57V84.36Z"/><path id="point-2-12-2" data-name="point-2-12" class="cls-6" d="M982.37,105.38V94.87h-75.8v10.51Z"/><path id="point-5-12-2" data-name="point-5-12" class="cls-38" d="M983.24,74.51V64H906.57V74.51Z"/></svg>