<svg id="Layer_1" data-name="Layer 1" xmlns="http://www.w3.org/2000/svg" viewBox="0 0 603.99 415.29"><defs><style>.cls-1{fill:#fff;}.cls-2{fill:#f36e21;}.cls-2,.cls-3{opacity:0.9;isolation:isolate;}.cls-3{fill:#0d2436;}</style></defs><rect class="cls-1" width="603.99" height="415.29"/><path id="point-0-0" class="cls-2" d="M294.57,321.45H178.08V337.1H294.57Z"/><path id="point-0-1" class="cls-2" d="M294.57,295.37H178.88V311H294.57Z"/><path id="point-0-2" class="cls-2" d="M294.57,269.29H166.88v15.64H294.57Z"/><path id="point-0-3" class="cls-2" d="M294.57,243.2H168v15.65h126.6Z"/><path id="point-0-4" class="cls-2" d="M294.57,217.12H165.75v15.65H294.57Z"/><path id="point-0-5" class="cls-2" d="M294.57,191h-283v15.65h283Z"/><path id="point-0-6" class="cls-2" d="M294.57,165H29.19v15.65H294.57Z"/><path id="point-0-7" class="cls-2" d="M294.57,138.88H13.26v15.65H294.57Z"/><path id="point-0-8" class="cls-2" d="M294.57,112.8H145.88v15.65H294.57Z"/><path id="point-0-9" class="cls-2" d="M294.57,86.72H150.23v15.65H294.57Z"/><path id="point-0-10" class="cls-2" d="M294.57,60.64H47.91V76.29H294.57Z"/><path id="point-0-11" class="cls-2" d="M294.57,34.56h-143V50.21h143Z"/><path id="point-0-12" class="cls-2" d="M294.57,8.48H237V24.12h57.56Z"/><path id="point-0-0-2" data-name="point-0-0" class="cls-3" d="M315.67,321.05H438.61v15.63H315.67Z"/><path id="point-0-1-2" data-name="point-0-1" class="cls-3" d="M315.67,295h130.1v15.63H315.67Z"/><path id="point-0-2-2" data-name="point-0-2" class="cls-3" d="M315.67,269H456.43v15.62H315.67Z"/><path id="point-0-3-2" data-name="point-0-3" class="cls-3" d="M315.67,242.93H459.35v15.62H315.67Z"/><path id="point-0-4-2" data-name="point-0-4" class="cls-3" d="M315.67,216.88h137v15.63h-137Z"/><path id="point-0-5-2" data-name="point-0-5" class="cls-3" d="M315.67,190.84h274.7v15.63H315.67Z"/><path id="point-0-6-2" data-name="point-0-6" class="cls-3" d="M315.67,164.8H582.52v15.62H315.67Z"/><path id="point-0-7-2" data-name="point-0-7" class="cls-3" d="M315.67,138.76h266v15.62h-266Z"/><path id="point-0-8-2" data-name="point-0-8" class="cls-3" d="M315.67,112.71H442.88v15.63H315.67Z"/><path id="point-0-9-2" data-name="point-0-9" class="cls-3" d="M315.67,86.67h117V102.3h-117Z"/><path id="point-0-10-2" data-name="point-0-10" class="cls-3" d="M315.67,60.63H486.51V76.25H315.67Z"/><path id="point-0-11-2" data-name="point-0-11" class="cls-3" d="M315.67,34.59H395V50.21H315.67Z"/><path id="point-0-12-2" data-name="point-0-12" class="cls-3" d="M315.67,8.54h27.2V24.17h-27.2Z"/></svg>